<svg width="34" height="34" viewBox="0 0 34 34" fill="none" xmlns="http://www.w3.org/2000/svg">
<g clip-path="url(#clip0_332_115)">
<path d="M21.9626 8.38737C21.9626 8.31543 21.9792 8.26009 22.018 8.22135C22.0622 8.18538 22.1231 8.16602 22.2061 8.16602C22.278 8.16602 22.3334 8.18538 22.3721 8.22135C22.4164 8.26009 22.4385 8.31543 22.4385 8.38737C22.4385 8.46208 22.4164 8.52018 22.3721 8.56445C22.3334 8.60042 22.278 8.61979 22.2061 8.61979C22.1314 8.61979 22.0733 8.60042 22.029 8.56445C21.9848 8.52018 21.9626 8.46208 21.9626 8.38737Z" fill="black"/>
<mask id="mask0_332_115" style="mask-type:luminance" maskUnits="userSpaceOnUse" x="2" y="0" width="28" height="19">
<path d="M2.67838 0H29.0417V18.4167H2.67838V0Z" fill="white"/>
</mask>
<g mask="url(#mask0_332_115)">
<path d="M5.60856 16.6564C5.82438 10.7435 10.4175 7.52833 15.9596 7.52833C17.8301 7.52833 19.7005 7.52833 21.5682 7.52833C20.6883 7.9738 19.8057 8.41928 18.923 8.86476C17.2739 9.6976 18.7238 12.1685 20.3674 11.3384C23.0125 10.0047 25.6577 8.6683 28.3001 7.33188C29.2354 6.8615 29.2354 5.33139 28.3001 4.85824C25.6577 3.52459 23.0125 2.18816 20.3674 0.854501C18.7238 0.0216558 17.2739 2.49529 18.923 3.32813C19.8057 3.77361 20.6883 4.21908 21.571 4.66456C19.2883 4.66456 17.0111 4.66456 14.7284 4.66456C8.02963 4.66456 2.98275 10.1375 2.74479 16.6564C2.67562 18.5047 5.53939 18.4964 5.60856 16.6564Z" fill="#211D1D"/>
</g>
<mask id="mask1_332_115" style="mask-type:luminance" maskUnits="userSpaceOnUse" x="4" y="14" width="28" height="20">
<path d="M4.95834 14.875H31.2995V33.2917H4.95834V14.875Z" fill="white"/>
</mask>
<g mask="url(#mask1_332_115)">
<path d="M28.3665 16.6576C28.148 22.5705 23.5549 25.7829 18.0127 25.7829C16.1423 25.7829 14.2746 25.7829 12.4041 25.7829C13.2868 25.3374 14.1667 24.8947 15.0493 24.4493C16.6984 23.6164 15.2485 21.1428 13.605 21.9729C10.9598 23.3093 8.31739 24.6429 5.67221 25.9794C4.73976 26.4525 4.73976 27.9826 5.67221 28.453C8.31739 29.7894 10.9598 31.1231 13.605 32.4595C15.2485 33.2896 16.6984 30.8187 15.0493 29.9859C14.1667 29.5404 13.284 29.0949 12.4041 28.6495C14.6841 28.6495 16.964 28.6495 19.244 28.6495C25.9455 28.6495 30.9896 23.1765 31.2276 16.6576C31.2967 14.8093 28.433 14.8148 28.3665 16.6576Z" fill="#211D1D"/>
</g>
</g>
<defs>
<clipPath id="clip0_332_115">
<rect width="34" height="34" fill="white"/>
</clipPath>
</defs>
</svg>
