<svg width="37" height="37" viewBox="0 0 37 37" fill="none" xmlns="http://www.w3.org/2000/svg">
<path d="M18.501 0C8.28283 0 0 8.28283 0 18.501C0 28.7172 8.28283 37 18.501 37C28.7172 37 37 28.7172 37 18.501C37 8.28283 28.7172 0 18.501 0ZM27.7013 27.6955C26.7279 28.669 25.1511 28.669 24.1777 27.6955L18.6263 22.1441L12.8242 27.9481C11.8508 28.9215 10.2721 28.9215 9.29867 27.9481C8.32524 26.9727 8.32524 25.3959 9.29867 24.4225L15.1026 18.6205L9.69961 13.2175C8.72618 12.244 8.72618 10.6653 9.69961 9.6919C10.673 8.71847 12.2498 8.71847 13.2252 9.6919L18.6263 15.0949L23.7768 9.94441C24.7502 8.97098 26.3289 8.97098 27.3023 9.94441C28.2757 10.9178 28.2757 12.4965 27.3023 13.47L22.1518 18.6205L27.7013 24.17C28.6748 25.1434 28.6748 26.7221 27.7013 27.6955Z" fill="#0030D0"/>
</svg>
