<svg width="33" height="33" viewBox="0 0 33 33" fill="none" xmlns="http://www.w3.org/2000/svg">
<path d="M16.5 0C7.38719 0 0 7.38719 0 16.5C0 25.6128 7.38719 33 16.5 33C25.6128 33 33 25.6128 33 16.5C33 7.38719 25.6128 0 16.5 0ZM23.1 18.15H13.8823L16.5 20.7677C17.1428 21.4105 17.1428 22.4572 16.5 23.1C15.8572 23.7428 14.8105 23.7428 14.1677 23.1L8.73297 17.667C8.08844 17.0208 8.08844 15.9775 8.73297 15.333L14.1677 9.9C14.8105 9.25719 15.8572 9.25719 16.5 9.9C17.1428 10.5428 17.1428 11.5895 16.5 12.2323L13.8823 14.85H23.1C24.0109 14.85 24.75 15.5891 24.75 16.5C24.75 17.4109 24.0109 18.15 23.1 18.15Z" fill="black"/>
</svg>
