<svg width="52" height="52" viewBox="0 0 52 52" fill="none" xmlns="http://www.w3.org/2000/svg">
<g clip-path="url(#clip0_333_1141)">
<path d="M29.1973 16.9377L27.2676 14.0156H26.417V18.2707H27.2676V15.355L29.1973 18.2707H30.05V14.0156H29.1973V16.9377Z" fill="black"/>
<path d="M18.9497 22.709H23.3317V36.7627H18.9497V22.709Z" fill="black"/>
<path d="M20.5452 16.0908C20.7653 16.021 20.9409 15.9046 21.0721 15.7375C21.2033 15.5724 21.271 15.3651 21.271 15.1175C21.271 14.9059 21.216 14.7176 21.1081 14.5505C21.0002 14.3854 20.8436 14.2542 20.6341 14.1611C20.4246 14.068 20.1771 14.0215 19.8872 14.0215H18.1353V18.2702H19.9676C20.2554 18.2702 20.505 18.2215 20.7145 18.1242C20.9261 18.0269 21.0869 17.8914 21.1991 17.7179C21.3112 17.5465 21.3662 17.3477 21.3662 17.1191C21.3662 16.8674 21.29 16.6431 21.1356 16.4484C20.9811 16.2537 20.7843 16.1353 20.5452 16.0887V16.0908ZM18.988 14.7091H19.7666C19.9697 14.7091 20.1263 14.7557 20.2342 14.8488C20.3442 14.9419 20.3993 15.0731 20.3993 15.2445C20.3993 15.4159 20.3442 15.547 20.2342 15.638C20.1263 15.729 19.9697 15.7756 19.7666 15.7756H18.988V14.7091ZM20.3294 17.4302C20.2131 17.5275 20.0522 17.5762 19.8449 17.5762H18.988V16.4315H19.828C20.0353 16.4315 20.1982 16.4844 20.321 16.5881C20.4416 16.6917 20.5029 16.8335 20.5029 17.0155C20.5029 17.1974 20.4458 17.3328 20.3315 17.4302H20.3294Z" fill="black"/>
<path d="M23.319 14.0156L21.7935 18.2686H22.6864L22.9657 17.4603H24.6584L24.9377 18.2686H25.839L24.3114 14.0156H23.319ZM23.1984 16.779L23.8141 15.0016L24.4277 16.779H23.1984Z" fill="black"/>
<path d="M34.3198 14.0215H33.2894L31.7448 15.9279V14.0215H30.8921V18.2702H31.7448V16.3765L33.2894 18.2702H34.3685L32.5658 16.1268L34.3198 14.0215Z" fill="black"/>
<path d="M28.6704 22.709H33.0524V36.7627H28.6704V22.709Z" fill="black"/>
<path d="M26.0021 0C11.6416 0 0 11.6416 0 26.0021C0 40.3626 11.6416 52.0042 26.0021 52.0042C40.3626 52.0042 52.0042 40.3626 52.0042 26.0021C52.0042 11.6416 40.3626 0 26.0021 0ZM9.59554 17.5068L25.9577 7.0459L42.4087 17.5068V20.5495H9.59554V17.5068ZM40.9784 36.7635C41.0545 36.7635 41.1159 36.8249 41.1159 36.901V37.9548C41.1159 38.0309 41.0545 38.0923 40.9784 38.0923H11.0259C10.9497 38.0923 10.8883 38.0309 10.8883 37.9548V36.901C10.8883 36.8249 10.9497 36.7635 11.0259 36.7635H13.6115V22.7098H11.0132C10.9434 22.7098 10.8883 22.6548 10.8883 22.585V21.6349C10.8883 21.5651 10.9434 21.5101 11.0132 21.5101H40.9911C41.0609 21.5101 41.1159 21.5651 41.1159 21.6349V22.585C41.1159 22.6548 41.0609 22.7098 40.9911 22.7098H38.3927V36.7635H40.9784ZM42.4214 40.3669C42.4214 40.4494 42.3516 40.5171 42.269 40.5171H9.7373C9.65267 40.5171 9.58496 40.4494 9.58496 40.3669V39.1925C9.58496 39.1079 9.65267 39.0402 9.7373 39.0402H42.269C42.3516 39.0402 42.4214 39.1079 42.4214 39.1925V40.3669Z" fill="black"/>
<path d="M42.313 29.2669C42.313 29.1209 42.3511 29.0109 42.4315 28.9368C42.5098 28.8586 42.6261 28.8184 42.7785 28.8184C42.9245 28.8184 43.0366 28.8586 43.117 28.9368C43.1953 29.0173 43.2355 29.1273 43.2355 29.2669C43.2355 29.4087 43.1932 29.5187 43.1086 29.597C43.0282 29.6753 42.9181 29.7155 42.7785 29.7155C42.6261 29.7155 42.5098 29.6774 42.4315 29.6055C42.3511 29.5272 42.313 29.415 42.313 29.2669Z" fill="black"/>
</g>
<defs>
<clipPath id="clip0_333_1141">
<rect width="52" height="52" fill="white"/>
</clipPath>
</defs>
</svg>
