<svg width="33" height="33" viewBox="0 0 33 33" fill="none" xmlns="http://www.w3.org/2000/svg">
<path d="M16.4966 0C7.38547 0 0 7.38547 0 16.4966C0 25.6059 7.38547 32.9914 16.4966 32.9914C25.6059 32.9914 32.9914 25.6059 32.9914 16.4966C32.9914 7.38547 25.6059 0 16.4966 0ZM24.7002 24.695C23.8322 25.563 22.4263 25.563 21.5583 24.695L16.6083 19.745L11.4348 24.9202C10.5669 25.7881 9.15922 25.7881 8.29125 24.9202C7.42328 24.0505 7.42328 22.6445 8.29125 21.7766L13.4664 16.6031L8.64875 11.7855C7.78078 10.9175 7.78078 9.50984 8.64875 8.64188C9.51672 7.77391 10.9227 7.77391 11.7923 8.64188L16.6083 13.4595L21.2008 8.86703C22.0688 7.99906 23.4764 7.99906 24.3444 8.86703C25.2123 9.735 25.2123 11.1427 24.3444 12.0106L19.7519 16.6031L24.7002 21.5514C25.5681 22.4194 25.5681 23.827 24.7002 24.695Z" fill="black"/>
</svg>
