<svg width="16" height="18" viewBox="0 0 16 18" fill="none" xmlns="http://www.w3.org/2000/svg">
<rect width="16" height="18" rx="3" fill="black"/>
<path d="M3 13.8001C3 13.8393 3.0018 13.8785 3.00553 13.9176C3.00926 13.9568 3.0148 13.9955 3.02213 14.034C3.02959 14.0727 3.03873 14.1107 3.04968 14.1483C3.06062 14.186 3.07337 14.2229 3.08781 14.2593C3.10224 14.2955 3.11848 14.3311 3.13628 14.3657C3.15408 14.4003 3.17345 14.434 3.1945 14.4666C3.21543 14.4994 3.23792 14.5309 3.26186 14.5613C3.28592 14.5917 3.31118 14.6207 3.338 14.6485C3.3647 14.6763 3.39261 14.7027 3.42184 14.7276C3.45107 14.7525 3.48138 14.7759 3.51277 14.7978C3.54417 14.8195 3.57665 14.8398 3.60996 14.8583C3.64328 14.8768 3.67732 14.8936 3.71233 14.9086C3.74721 14.9237 3.78269 14.937 3.8189 14.9484C3.8551 14.9597 3.89167 14.9692 3.92872 14.977C3.96577 14.9846 4.00318 14.9904 4.0407 14.9942C4.07835 14.9981 4.116 15 4.15389 15H9.53844C9.57621 15 9.61398 14.9981 9.65151 14.9942C9.68916 14.9904 9.72645 14.9846 9.76362 14.977C9.80066 14.9692 9.83723 14.9597 9.87344 14.9484C9.90952 14.937 9.94513 14.9237 9.98001 14.9087C10.0149 14.8936 10.0491 14.8768 10.0824 14.8583C10.1157 14.8398 10.148 14.8195 10.1796 14.7978C10.211 14.7759 10.2413 14.7525 10.2705 14.7276C10.2997 14.7027 10.3276 14.6763 10.3543 14.6485C10.381 14.6207 10.4064 14.5917 10.4304 14.5613C10.4544 14.5309 10.4769 14.4994 10.4978 14.4666C10.5189 14.434 10.5383 14.4003 10.5561 14.3657C10.5739 14.3311 10.59 14.2955 10.6045 14.2593C10.619 14.2229 10.6317 14.186 10.6427 14.1483C10.6536 14.1107 10.6627 14.0727 10.6701 14.034C10.6775 13.9955 10.6831 13.9568 10.6868 13.9176C10.6904 13.8785 10.6923 13.8393 10.6923 13.8001V13.4H11.8461C11.884 13.4 11.9216 13.3981 11.9593 13.3942C11.9968 13.3904 12.0342 13.3846 12.0713 13.377C12.1083 13.3692 12.1449 13.3597 12.1811 13.3483C12.2173 13.337 12.2528 13.3237 12.2877 13.3087C12.3227 13.2936 12.3567 13.2768 12.39 13.2583C12.4234 13.2398 12.4558 13.2196 12.4872 13.1978C12.5186 13.1759 12.5489 13.1525 12.5782 13.1276C12.6074 13.1027 12.6353 13.0763 12.662 13.0486C12.6888 13.0207 12.7141 12.9917 12.7381 12.9613C12.7621 12.9309 12.7846 12.8994 12.8055 12.8667C12.8265 12.834 12.8459 12.8003 12.8637 12.7657C12.8815 12.731 12.8978 12.6955 12.9122 12.6593C12.9266 12.6229 12.9394 12.586 12.9503 12.5483C12.9613 12.5107 12.9704 12.4727 12.9779 12.4341C12.9852 12.3955 12.9907 12.3567 12.9945 12.3176C12.9982 12.2784 13 12.2393 13 12.2V4.19995C13 4.16068 12.9982 4.12154 12.9945 4.08239C12.9907 4.04325 12.9852 4.00448 12.9779 3.96584C12.9704 3.92732 12.9613 3.8893 12.9503 3.85166C12.9394 3.81402 12.9266 3.77712 12.9122 3.74073C12.8978 3.70446 12.8815 3.66895 12.8637 3.6343C12.8459 3.59966 12.8265 3.56602 12.8055 3.53338C12.7846 3.50061 12.7621 3.4691 12.7381 3.43871C12.7141 3.40832 12.6888 3.37931 12.662 3.35142C12.6353 3.32366 12.6074 3.29727 12.5782 3.27238C12.5489 3.24749 12.5186 3.22411 12.4872 3.20222C12.4558 3.18046 12.4234 3.1602 12.39 3.14169C12.3567 3.12318 12.3227 3.10643 12.2877 3.09129C12.2528 3.07629 12.2173 3.06303 12.1811 3.05165C12.1449 3.04027 12.1083 3.03076 12.0713 3.02301C12.0342 3.01538 11.9968 3.00963 11.9593 3.00575C11.9216 3.00188 11.884 3 11.8461 3H6.46156C6.42379 3 6.38602 3.00188 6.34849 3.00575C6.31084 3.00963 6.27355 3.01538 6.23638 3.02301C6.19934 3.03076 6.16277 3.04027 6.12656 3.05165C6.09048 3.06303 6.05487 3.07629 6.01999 3.09129C5.98511 3.10643 5.95095 3.12318 5.91763 3.14169C5.88431 3.1602 5.85195 3.18046 5.82044 3.20222C5.78904 3.22411 5.75873 3.24749 5.7295 3.27238C5.70027 3.29727 5.67237 3.32366 5.64566 3.35142C5.61896 3.37931 5.59358 3.40832 5.56964 3.43871C5.54559 3.4691 5.52309 3.50061 5.50217 3.53338C5.48112 3.56602 5.46175 3.59966 5.44395 3.6343C5.42615 3.66895 5.41003 3.70446 5.39547 3.74073C5.38104 3.77712 5.36829 3.81402 5.35734 3.85166C5.3464 3.8893 5.33725 3.92732 5.32992 3.96584C5.32246 4.00448 5.31693 4.04325 5.3132 4.08239C5.30959 4.12154 5.30766 4.16068 5.30766 4.19995V4.60002H4.15389C4.116 4.60002 4.07835 4.60189 4.0407 4.60577C4.00318 4.60965 3.96577 4.6154 3.92872 4.62303C3.89167 4.63078 3.8551 4.64029 3.8189 4.65167C3.78269 4.66305 3.74721 4.6763 3.71233 4.69131C3.67732 4.70644 3.64328 4.7232 3.60996 4.74171C3.57665 4.76022 3.54417 4.78035 3.51277 4.80224C3.48138 4.82412 3.45107 4.84751 3.42184 4.8724C3.39261 4.89728 3.3647 4.92367 3.338 4.95144C3.31118 4.97932 3.28592 5.00834 3.26186 5.03873C3.23792 5.06912 3.21543 5.10063 3.1945 5.13327C3.17345 5.16604 3.15408 5.19968 3.13628 5.23432C3.11848 5.26896 3.10224 5.30448 3.08781 5.34075C3.07337 5.37714 3.06062 5.41403 3.04968 5.45167C3.03873 5.48932 3.02959 5.52734 3.02213 5.56585C3.0148 5.6045 3.00926 5.64327 3.00553 5.68241C3.0018 5.72155 3 5.7607 3 5.79997V13.8001ZM6.07689 4.19995C6.07689 4.17369 6.07941 4.14768 6.08434 4.12191C6.08928 4.09615 6.09649 4.07114 6.10624 4.04688C6.11586 4.02262 6.12777 3.9996 6.14172 3.97772C6.15579 3.95596 6.17167 3.9357 6.18959 3.91719C6.2074 3.89856 6.22688 3.88205 6.24781 3.86742C6.26886 3.85278 6.29099 3.84053 6.31433 3.8304C6.33766 3.82039 6.36172 3.81276 6.3865 3.80764C6.41128 3.80251 6.4363 3.80001 6.46156 3.80001H11.8461C11.8714 3.80001 11.8964 3.80251 11.9212 3.80764C11.9459 3.81276 11.97 3.82039 11.9933 3.8304C12.0167 3.84053 12.0388 3.85278 12.0599 3.86742C12.0808 3.88205 12.1003 3.89856 12.1181 3.91719C12.136 3.9357 12.1519 3.95596 12.1659 3.97772C12.18 3.9996 12.1918 4.02262 12.2015 4.04688C12.2112 4.07114 12.2185 4.09615 12.2233 4.12191C12.2283 4.14768 12.2308 4.17369 12.2308 4.19995V12.2C12.2308 12.2263 12.2283 12.2523 12.2233 12.2781C12.2185 12.3038 12.2112 12.3288 12.2015 12.3531C12.1918 12.3774 12.18 12.4004 12.1659 12.4223C12.1519 12.444 12.136 12.4643 12.1181 12.4828C12.1003 12.5014 12.0808 12.5179 12.0599 12.5326C12.0388 12.5472 12.0167 12.5595 11.9933 12.5696C11.97 12.5796 11.9459 12.5872 11.9212 12.5923C11.8964 12.5975 11.8714 12.6 11.8461 12.6H10.6923V5.79997C10.6923 5.7607 10.6904 5.72155 10.6868 5.68241C10.6831 5.64327 10.6775 5.6045 10.6701 5.56585C10.6627 5.52734 10.6536 5.48932 10.6427 5.45167C10.6317 5.41403 10.619 5.37714 10.6045 5.34075C10.59 5.30448 10.5739 5.26896 10.5561 5.23432C10.5383 5.19968 10.5189 5.16604 10.4978 5.13327C10.4769 5.10063 10.4544 5.06912 10.4304 5.03873C10.4064 5.00834 10.381 4.97932 10.3543 4.95144C10.3276 4.92367 10.2997 4.89728 10.2705 4.8724C10.2413 4.84751 10.211 4.82412 10.1796 4.80224C10.148 4.78035 10.1157 4.76022 10.0824 4.74171C10.0491 4.7232 10.0149 4.70644 9.98001 4.69131C9.94513 4.6763 9.90952 4.66305 9.87344 4.65167C9.83723 4.64029 9.80066 4.63078 9.76362 4.62303C9.72645 4.6154 9.68916 4.60965 9.65151 4.60577C9.61398 4.60189 9.57621 4.60002 9.53844 4.60002H6.07689V4.19995ZM3.76922 5.79997C3.76922 5.7737 3.77175 5.74769 3.77668 5.72193C3.78149 5.69617 3.78883 5.67115 3.79845 5.64689C3.80819 5.62263 3.81998 5.59962 3.83406 5.57774C3.84813 5.55597 3.86401 5.53572 3.88193 5.51721C3.89973 5.49857 3.91922 5.48206 3.94015 5.46743C3.9612 5.4528 3.98333 5.44054 4.00666 5.43041C4.03 5.42041 4.05406 5.41278 4.07883 5.40765C4.10361 5.40253 4.12863 5.40003 4.15389 5.40003H9.53844C9.5637 5.40003 9.58872 5.40253 9.6135 5.40765C9.63828 5.41278 9.66234 5.42041 9.68567 5.43041C9.70901 5.44054 9.73114 5.4528 9.75219 5.46743C9.77312 5.48206 9.7926 5.49857 9.81041 5.51721C9.82833 5.53572 9.84421 5.55597 9.85828 5.57774C9.87223 5.59962 9.88414 5.62263 9.89376 5.64689C9.90351 5.67115 9.91072 5.69617 9.91566 5.72193C9.92059 5.74769 9.92311 5.7737 9.92311 5.79997V13.8001C9.92311 13.8263 9.92059 13.8523 9.91566 13.8781C9.91072 13.9037 9.90351 13.9287 9.89376 13.9531C9.88414 13.9774 9.87223 14.0004 9.85828 14.0222C9.84421 14.044 9.82833 14.0643 9.81041 14.0828C9.7926 14.1014 9.77312 14.118 9.75219 14.1326C9.73114 14.1472 9.70901 14.1595 9.68567 14.1696C9.66234 14.1796 9.63828 14.1872 9.6135 14.1924C9.58872 14.1974 9.5637 14.2 9.53844 14.2H4.15389C4.12863 14.2 4.10361 14.1974 4.07883 14.1924C4.05406 14.1872 4.03 14.1796 4.00666 14.1696C3.98333 14.1595 3.9612 14.1472 3.94015 14.1326C3.91922 14.118 3.89973 14.1014 3.88193 14.0828C3.86401 14.0643 3.84813 14.044 3.83406 14.0222C3.81998 14.0004 3.80819 13.9774 3.79845 13.9531C3.78883 13.9287 3.78149 13.9037 3.77668 13.8781C3.77175 13.8523 3.76922 13.8263 3.76922 13.8001V5.79997Z" fill="white"/>
</svg>
