<svg width="20" height="20" viewBox="0 0 20 20" fill="none" xmlns="http://www.w3.org/2000/svg">
<path fill-rule="evenodd" clip-rule="evenodd" d="M0 5C0 2.23858 2.23858 0 5 0H15C17.7614 0 20 2.23858 20 5V15C20 17.7614 17.7614 20 15 20H5C2.23858 20 0 17.7614 0 15V5ZM5 2C3.34315 2 2 3.34315 2 5V15C2 16.6569 3.34315 18 5 18H15C16.6569 18 18 16.6569 18 15V5C18 3.34315 16.6569 2 15 2H5Z" fill="#1E1F24" fill-opacity="0.94902"/>
<path fill-rule="evenodd" clip-rule="evenodd" d="M10 6C8.89543 6 8 6.89543 8 8C8 9.10457 8.89543 10 10 10C11.1046 10 12 9.10457 12 8C12 6.89543 11.1046 6 10 6ZM6 8C6 5.79086 7.79086 4 10 4C12.2091 4 14 5.79086 14 8C14 10.2091 12.2091 12 10 12C7.79086 12 6 10.2091 6 8Z" fill="#1E1F24" fill-opacity="0.94902"/>
<path fill-rule="evenodd" clip-rule="evenodd" d="M10 15C7.44286 15 5.25694 16.6001 4.39366 18.8572L2.52563 18.1428C3.6752 15.1371 6.58679 13 10 13C13.4132 13 16.3248 15.1371 17.4744 18.1428L15.6064 18.8572C14.7431 16.6001 12.5572 15 10 15Z" fill="#1E1F24" fill-opacity="0.94902"/>
</svg>
