<svg width="60" height="60" viewBox="0 0 60 60" fill="none" xmlns="http://www.w3.org/2000/svg">
<rect width="60" height="60" fill="#1E1E1E"/>
<g clip-path="url(#clip0_0_1)">
<rect width="1440" height="3408" transform="translate(-748 -1385)" fill="white"/>
<rect x="-748" y="-411" width="1440" height="716" fill="#F0F5FF"/>
<rect x="-16.5" y="-9.5" width="215" height="182" rx="10.5" fill="white" stroke="#ECECEC"/>
<rect width="60" height="60" rx="6" fill="#F0F5FF"/>
<path fill-rule="evenodd" clip-rule="evenodd" d="M30 21C27.5147 21 25.2647 22.0074 23.636 23.636C22.0074 25.2647 21 27.5147 21 30C21 32.4853 22.0074 34.7353 23.636 36.364C25.2647 37.9926 27.5147 39 30 39C32.4853 39 34.7353 37.9926 36.364 36.364C37.9926 34.7353 39 32.4853 39 30C39 27.5147 37.9926 25.2647 36.364 23.636C34.7353 22.0074 32.4853 21 30 21Z" stroke="black" stroke-width="2" stroke-linecap="round" stroke-linejoin="round"/>
<path d="M30 26L30 30" stroke="black" stroke-width="2" stroke-linecap="round" stroke-linejoin="round"/>
<path d="M30 30L32 32" stroke="black" stroke-width="2" stroke-linecap="round" stroke-linejoin="round"/>
</g>
<defs>
<clipPath id="clip0_0_1">
<rect width="1440" height="3408" fill="white" transform="translate(-748 -1385)"/>
</clipPath>
</defs>
</svg>
