<svg width="60" height="60" viewBox="0 0 60 60" fill="none" xmlns="http://www.w3.org/2000/svg">
<rect width="60" height="60" fill="#1E1E1E"/>
<g clip-path="url(#clip0_0_1)">
<rect width="1440" height="3408" transform="translate(-985 -1385)" fill="white"/>
<rect x="-985" y="-411" width="1440" height="716" fill="#F0F5FF"/>
<rect x="-16.5" y="-9.5" width="215" height="182" rx="10.5" fill="white" stroke="#ECECEC"/>
<rect width="60" height="60" rx="6" fill="#F0F5FF"/>
<path d="M37 23L23 37" stroke="black" stroke-width="2" stroke-linecap="round" stroke-linejoin="round"/>
<path d="M25 28C26.6569 28 28 26.6569 28 25C28 23.3431 26.6569 22 25 22C23.3431 22 22 23.3431 22 25C22 26.6569 23.3431 28 25 28Z" stroke="black" stroke-width="2" stroke-linecap="round" stroke-linejoin="round"/>
<path d="M35 38C36.6569 38 38 36.6569 38 35C38 33.3431 36.6569 32 35 32C33.3431 32 32 33.3431 32 35C32 36.6569 33.3431 38 35 38Z" stroke="black" stroke-width="2" stroke-linecap="round" stroke-linejoin="round"/>
</g>
<defs>
<clipPath id="clip0_0_1">
<rect width="1440" height="3408" fill="white" transform="translate(-985 -1385)"/>
</clipPath>
</defs>
</svg>
