<svg width="39" height="39" viewBox="0 0 39 39" fill="none" xmlns="http://www.w3.org/2000/svg">
<rect width="39" height="39" fill="#1E1E1E"/>
<g clip-path="url(#clip0_0_1)">
<rect width="1440" height="3408" transform="translate(-1166 -3258)" fill="white"/>
<rect width="1440" height="510" transform="translate(-1165 -360)" fill="white"/>
<rect opacity="0.25" x="0.5" y="0.5" width="38" height="38" rx="19" stroke="#0A142F"/>
<path d="M22.3953 23.7135C19.2517 23.7135 16.6942 21.0685 16.6934 17.8185C16.6942 16.9946 17.3431 16.3247 18.1382 16.3247C18.22 16.3247 18.3008 16.3318 18.3783 16.3461C18.5487 16.3754 18.7105 16.435 18.8593 16.5249C18.8809 16.5382 18.8955 16.5596 18.8989 16.5845L19.2311 18.7491C19.2354 18.774 19.2276 18.7998 19.2113 18.8185C19.028 19.0284 18.7939 19.1797 18.5332 19.2553L18.4076 19.2918L18.4549 19.4172C18.8834 20.5453 19.756 21.4466 20.848 21.8914L20.9694 21.9413L21.0047 21.8114C21.0778 21.5418 21.2241 21.2998 21.4272 21.1103C21.4418 21.0961 21.4616 21.0889 21.4814 21.0889C21.4857 21.0889 21.49 21.0889 21.4952 21.0898L23.5889 21.4333C23.6138 21.4377 23.6345 21.4519 23.6474 21.4742C23.7334 21.6281 23.7911 21.7962 23.8203 21.9724C23.8341 22.0507 23.8401 22.1334 23.8401 22.2197C23.8401 23.0427 23.1921 23.7126 22.3953 23.7135Z" fill="#0A142F"/>
<path d="M27.9699 19.2865C27.8004 17.3061 26.9226 15.4689 25.4984 14.1139C24.0656 12.7509 22.2069 12 20.2629 12C15.9963 12 12.5249 15.589 12.5249 20C12.5249 21.4804 12.9199 22.9226 13.6677 24.1788L12 27.9955L17.3396 27.4075C18.2682 27.8007 19.2509 28 20.262 28C20.5279 28 20.8007 27.9858 21.0744 27.9564C21.3153 27.9297 21.5589 27.8906 21.7981 27.8407C25.3711 27.0943 27.9793 23.8158 28 20.0427V20C28 19.7598 27.9897 19.5196 27.969 19.2874L27.9699 19.2865ZM17.5453 25.7322L14.5911 26.0578L15.4731 24.0374L15.2967 23.7927C15.2838 23.7749 15.2709 23.7571 15.2563 23.7367C14.4904 22.6432 14.0859 21.3514 14.0859 20.0009C14.0859 16.4795 16.8569 13.6148 20.2629 13.6148C23.4538 13.6148 26.1584 16.1886 26.4192 19.4742C26.433 19.6504 26.4407 19.8274 26.4407 20.0018C26.4407 20.0516 26.4398 20.1005 26.439 20.153C26.3736 23.0988 24.3832 25.6005 21.5985 26.2375C21.3859 26.2865 21.1682 26.3238 20.9513 26.3479C20.7259 26.3746 20.4944 26.3879 20.2646 26.3879C19.4462 26.3879 18.6511 26.2242 17.8999 25.9004C17.8164 25.8657 17.7346 25.8283 17.658 25.79L17.5462 25.734L17.5453 25.7322Z" fill="#0A142F"/>
</g>
<defs>
<clipPath id="clip0_0_1">
<rect width="1440" height="3408" fill="white" transform="translate(-1166 -3258)"/>
</clipPath>
</defs>
</svg>
