<svg width="39" height="39" viewBox="0 0 39 39" fill="none" xmlns="http://www.w3.org/2000/svg">
<rect width="39" height="39" fill="#1E1E1E"/>
<g clip-path="url(#clip0_0_1)">
<rect width="1440" height="3408" transform="translate(-1219 -3258)" fill="white"/>
<rect width="1440" height="510" transform="translate(-1218 -360)" fill="white"/>
<rect opacity="0.25" x="0.5" y="0.5" width="38" height="38" rx="19" stroke="#0A142F"/>
<path fill-rule="evenodd" clip-rule="evenodd" d="M12 20C12 15.5817 15.5817 12 20 12C24.4183 12 28 15.5817 28 20C28 24.4183 24.4183 28 20 28C15.5817 28 12 24.4183 12 20ZM20 13.6C16.4654 13.6 13.6 16.4654 13.6 20C13.6 23.5346 16.4654 26.4 20 26.4C23.5346 26.4 26.4 23.5346 26.4 20C26.4 16.4654 23.5346 13.6 20 13.6Z" fill="black"/>
<path fill-rule="evenodd" clip-rule="evenodd" d="M18.9719 16.1569C19.4383 15.3819 20.5618 15.3819 21.0282 16.1569L21.8274 17.4848L23.3372 17.8345C24.2184 18.0386 24.5656 19.1072 23.9727 19.7902L22.9567 20.9606L23.0907 22.5047C23.1689 23.4058 22.2599 24.0662 21.4271 23.7134L20 23.1088L18.573 23.7134C17.7401 24.0662 16.8312 23.4058 16.9094 22.5047L17.0434 20.9606L16.0274 19.7902C15.4345 19.1072 15.7816 18.0386 16.6628 17.8345L18.1727 17.4848L18.9719 16.1569ZM20 17.5514L19.4562 18.4551C19.2887 18.7335 19.0154 18.932 18.6988 19.0053L17.6714 19.2433L18.3627 20.0397C18.5757 20.2851 18.6801 20.6064 18.652 20.9301L18.5608 21.9808L19.5319 21.5694C19.8311 21.4427 20.1689 21.4427 20.4681 21.5694L21.4392 21.9808L21.348 20.9301C21.32 20.6064 21.4243 20.2851 21.6374 20.0397L22.3287 19.2433L21.3013 19.0053C20.9847 18.932 20.7114 18.7335 20.5438 18.4551L20 17.5514Z" fill="black"/>
</g>
<defs>
<clipPath id="clip0_0_1">
<rect width="1440" height="3408" fill="white" transform="translate(-1219 -3258)"/>
</clipPath>
</defs>
</svg>
