<svg width="39" height="39" viewBox="0 0 39 39" fill="none" xmlns="http://www.w3.org/2000/svg">
<rect width="39" height="39" fill="#1E1E1E"/>
<g clip-path="url(#clip0_0_1)">
<rect width="1440" height="3408" transform="translate(-1113 -3258)" fill="white"/>
<rect width="1440" height="510" transform="translate(-1112 -360)" fill="white"/>
<rect opacity="0.25" x="0.5" y="0.5" width="38" height="38" rx="19" stroke="#0A142F"/>
<path d="M10.4204 19.2935C10.4571 19.2713 10.4939 19.2502 10.5297 19.2302C11.1525 18.8817 11.7836 18.5554 12.4137 18.229C12.4477 18.229 12.5046 18.1813 12.5368 18.1657C12.5855 18.1402 12.6342 18.1158 12.6829 18.0903C12.7766 18.0414 12.8703 17.9937 12.963 17.9449C13.1504 17.8483 13.3369 17.7517 13.5243 17.6551L14.6459 17.0746C15.3936 16.6883 16.1423 16.3009 16.89 15.9147C17.6378 15.5284 18.3864 15.141 19.1341 14.7547C19.8819 14.3684 20.6305 13.9811 21.3782 13.5948C22.126 13.2085 22.8747 12.8211 23.6224 12.4348C23.7887 12.3483 23.9687 12.2195 24.1469 12.1818C24.2966 12.1496 24.4427 12.0874 24.5933 12.053C24.879 11.9875 25.1941 11.9609 25.4678 12.1041C25.5624 12.154 25.6497 12.2239 25.7223 12.3116C26.0695 12.7268 26.0208 13.4083 25.9473 13.9922C25.4357 18.0614 24.924 22.1318 24.4114 26.201C24.3416 26.7593 24.2461 27.3721 23.8814 27.725C23.5728 28.0236 23.1337 28.0569 22.7525 27.9304C22.3712 27.8027 22.035 27.5352 21.7053 27.2722C20.3375 26.1777 18.9688 25.0832 17.601 23.9888C17.2758 23.729 16.9139 23.3894 16.9176 22.9176C16.9194 22.6335 17.06 22.3804 17.2033 22.1551C18.3919 20.2814 20.1069 18.9938 21.3828 17.2067C21.5629 16.9547 21.7044 16.4996 21.4573 16.3542C21.3103 16.2677 21.1412 16.3853 21.0071 16.4974C19.3206 17.9127 17.635 19.329 15.9485 20.7443C15.3982 21.206 14.8213 21.6811 14.1581 21.7943C13.5647 21.8964 12.9676 21.6966 12.3935 21.4924C11.9122 21.3215 11.4317 21.1461 10.9531 20.9652C10.6987 20.8697 10.436 20.7665 10.2394 20.55C10.0428 20.3336 9.92985 19.9695 10.0483 19.6809C10.1227 19.5 10.267 19.3856 10.4185 19.2924L10.4204 19.2935Z" fill="#0A142F"/>
</g>
<defs>
<clipPath id="clip0_0_1">
<rect width="1440" height="3408" fill="white" transform="translate(-1113 -3258)"/>
</clipPath>
</defs>
</svg>
