<svg width="20" height="20" viewBox="0 0 20 20" fill="none" xmlns="http://www.w3.org/2000/svg">
<path d="M19.5877 3.98498H0.41272V7.17793H19.5877V3.98498Z" fill="#469BB5"/>
<path d="M19.5873 7.63153H0.412659C0.303215 7.63153 0.198254 7.58374 0.120865 7.49866C0.0434766 7.41359 0 7.29821 0 7.17789V3.98496C0 3.86464 0.0434766 3.74926 0.120865 3.66418C0.198254 3.57911 0.303215 3.53131 0.412659 3.53131H19.5873C19.6968 3.53131 19.8018 3.57911 19.8791 3.66418C19.9565 3.74926 20 3.86464 20 3.98496V7.17789C20 7.29821 19.9565 7.41359 19.8791 7.49866C19.8018 7.58374 19.6968 7.63153 19.5873 7.63153ZM0.825318 6.72425H19.1747V4.4386H0.825318V6.72425Z" fill="black"/>
<path d="M17.7474 7.17794H2.25305V19.546H17.7474V7.17794Z" fill="#4DBAB5"/>
<path d="M17.7474 20H2.25299C2.14355 20 2.03859 19.9522 1.9612 19.8671C1.88381 19.7821 1.84033 19.6667 1.84033 19.5464V7.17794C1.84033 7.05762 1.88381 6.94224 1.9612 6.85716C2.03859 6.77209 2.14355 6.72429 2.25299 6.72429H17.7474C17.8568 6.72429 17.9618 6.77209 18.0392 6.85716C18.1165 6.94224 18.16 7.05762 18.16 7.17794V19.5464C18.16 19.6667 18.1165 19.7821 18.0392 19.8671C17.9618 19.9522 17.8568 20 17.7474 20ZM2.66565 19.0927H17.3347V7.63158H2.66565V19.0927Z" fill="black"/>
<path d="M12.1713 3.98498H7.82886V7.17793H12.1713V3.98498Z" fill="#4161B5"/>
<path d="M12.1714 7.63153H7.82892C7.71948 7.63153 7.61451 7.58374 7.53713 7.49866C7.45974 7.41359 7.41626 7.29821 7.41626 7.17789V3.98496C7.41626 3.86464 7.45974 3.74926 7.53713 3.66418C7.61451 3.57911 7.71948 3.53131 7.82892 3.53131H12.1714C12.2808 3.53131 12.3858 3.57911 12.4632 3.66418C12.5405 3.74926 12.584 3.86464 12.584 3.98496V7.17789C12.584 7.29821 12.5405 7.41359 12.4632 7.49866C12.3858 7.58374 12.2808 7.63153 12.1714 7.63153ZM8.24158 6.72425H11.7587V4.4386H8.24158V6.72425Z" fill="black"/>
<path d="M11.5544 7.49025H8.44678V19.546H11.5544V7.49025Z" fill="#4161B5"/>
<path d="M11.5545 20H8.44684C8.33739 20 8.23243 19.9522 8.15504 19.8671C8.07766 19.7821 8.03418 19.6667 8.03418 19.5464V7.49025C8.03418 7.36994 8.07766 7.25455 8.15504 7.16948C8.23243 7.0844 8.33739 7.03661 8.44684 7.03661H11.5545C11.6639 7.03661 11.7689 7.0844 11.8463 7.16948C11.9237 7.25455 11.9671 7.36994 11.9671 7.49025V19.5464C11.9671 19.6667 11.9237 19.7821 11.8463 19.8671C11.7689 19.9522 11.6639 20 11.5545 20ZM8.8595 19.0927H11.1418V7.94389H8.8595V19.0927Z" fill="black"/>
<path d="M9.83569 3.98494L13.7772 0.453499L16.1884 2.61389L14.6584 3.98494" fill="#4161B5"/>
<path d="M14.6594 4.43871C14.5742 4.43879 14.491 4.40985 14.4213 4.35587C14.3517 4.3019 14.2989 4.22553 14.2703 4.13727C14.2417 4.049 14.2387 3.95317 14.2616 3.86293C14.2846 3.7727 14.3324 3.69249 14.3985 3.63332L15.5361 2.61402L13.7779 1.03988L10.0957 4.33751C10.0539 4.37677 10.0054 4.40645 9.95295 4.4248C9.90055 4.44315 9.84535 4.4498 9.79057 4.44436C9.7358 4.43893 9.68257 4.42151 9.63401 4.39313C9.58545 4.36476 9.54254 4.326 9.5078 4.27913C9.47306 4.23226 9.44719 4.17824 9.43172 4.12023C9.41624 4.06222 9.41147 4.00139 9.41768 3.94132C9.42389 3.88125 9.44096 3.82315 9.46789 3.77044C9.49482 3.71773 9.53106 3.67146 9.57448 3.63437L13.516 0.102935C13.5896 0.037016 13.6817 0.00102234 13.7766 0.00102234C13.8716 0.00102234 13.9636 0.037016 14.0372 0.102935L16.4497 2.26332C16.4972 2.30586 16.5355 2.3595 16.5618 2.42034C16.5881 2.48118 16.6018 2.5477 16.6018 2.61507C16.6018 2.68243 16.5881 2.74895 16.5618 2.80979C16.5355 2.87064 16.4972 2.92427 16.4497 2.96681L14.9194 4.33751C14.846 4.40325 14.7541 4.43901 14.6594 4.43871Z" fill="black"/>
<path d="M9.83555 3.98494L5.89404 0.453499L3.48254 2.61389L5.01286 3.98494" fill="#4161B5"/>
<path d="M5.01165 4.43875C4.91667 4.43866 4.82462 4.40254 4.75104 4.33651L3.22104 2.9658C3.17352 2.92326 3.13522 2.86962 3.10892 2.80878C3.08262 2.74794 3.06897 2.68142 3.06897 2.61405C3.06897 2.54669 3.08262 2.48017 3.10892 2.41933C3.13522 2.35849 3.17352 2.30485 3.22104 2.26231L5.6335 0.101913C5.70711 0.0359938 5.79916 0 5.8941 0C5.98905 0 6.0811 0.0359938 6.15471 0.101913L10.0962 3.63336C10.1396 3.67046 10.1759 3.71672 10.2028 3.76943C10.2297 3.82215 10.2468 3.88024 10.253 3.94031C10.2592 4.00038 10.2545 4.06121 10.239 4.11922C10.2235 4.17723 10.1976 4.23126 10.1629 4.27813C10.1282 4.32499 10.0853 4.36375 10.0367 4.39213C9.98813 4.4205 9.93491 4.43792 9.88014 4.44336C9.82536 4.4488 9.77016 4.44215 9.71776 4.4238C9.66536 4.40545 9.61682 4.37577 9.57501 4.33651L5.89283 1.03886L4.1346 2.61405L5.27226 3.63336C5.33833 3.69251 5.38612 3.77269 5.40907 3.86289C5.43203 3.95309 5.42902 4.04889 5.40046 4.13714C5.37191 4.22539 5.31921 4.30176 5.24959 4.35576C5.17997 4.40977 5.09686 4.43876 5.01165 4.43875Z" fill="black"/>
<path opacity="0.6" d="M17.4502 18.5239V7.49025H2.22119L17.4502 18.5239Z" fill="#124379"/>
<path opacity="0.6" d="M19.3866 6.87164H0.743896V4.86166L6.63256 5.55608L19.3866 6.87164Z" fill="#124379"/>
<path d="M6.98007 3.18985C6.90848 3.19003 6.83897 3.16345 6.78294 3.11448L5.74336 2.20719C5.67948 2.14897 5.63889 2.06557 5.63026 1.97484C5.62163 1.88412 5.64566 1.79329 5.6972 1.72181C5.74874 1.65032 5.8237 1.60387 5.90601 1.59238C5.98833 1.5809 6.07146 1.60531 6.13761 1.66037L7.17751 2.56766C7.22908 2.6127 7.26664 2.67426 7.28496 2.74382C7.30328 2.81337 7.30147 2.88746 7.27978 2.95583C7.25808 3.0242 7.21757 3.08346 7.16387 3.12539C7.11017 3.16732 7.04593 3.18985 6.98007 3.18985Z" fill="#8ECFB5"/>
<path d="M14.5867 3.18982C14.5151 3.19001 14.4456 3.16343 14.3896 3.11445L13.35 2.20716C13.2841 2.14964 13.2416 2.06567 13.2319 1.97373C13.2223 1.88178 13.2463 1.78939 13.2986 1.71688C13.3509 1.64437 13.4273 1.59767 13.5109 1.58707C13.5946 1.57647 13.6786 1.60283 13.7446 1.66035L14.7841 2.56763C14.8357 2.61267 14.8733 2.67424 14.8916 2.74379C14.9099 2.81334 14.9081 2.88744 14.8864 2.95581C14.8647 3.02418 14.8242 3.08343 14.7705 3.12536C14.7168 3.16729 14.6526 3.18982 14.5867 3.18982Z" fill="#8ECFB5"/>
<path d="M19.5873 7.63153H0.412659C0.303215 7.63153 0.198254 7.58374 0.120865 7.49866C0.0434766 7.41359 0 7.29821 0 7.17789V3.98496C0 3.86464 0.0434766 3.74926 0.120865 3.66418C0.198254 3.57911 0.303215 3.53131 0.412659 3.53131H19.5873C19.6968 3.53131 19.8018 3.57911 19.8791 3.66418C19.9565 3.74926 20 3.86464 20 3.98496V7.17789C20 7.29821 19.9565 7.41359 19.8791 7.49866C19.8018 7.58374 19.6968 7.63153 19.5873 7.63153ZM0.825318 6.72425H19.1747V4.4386H0.825318V6.72425Z" fill="#690A3F"/>
<path d="M17.7474 20H2.25299C2.14355 20 2.03859 19.9522 1.9612 19.8671C1.88381 19.7821 1.84033 19.6667 1.84033 19.5464V7.17794C1.84033 7.05762 1.88381 6.94224 1.9612 6.85716C2.03859 6.77209 2.14355 6.72429 2.25299 6.72429H17.7474C17.8568 6.72429 17.9618 6.77209 18.0392 6.85716C18.1165 6.94224 18.16 7.05762 18.16 7.17794V19.5464C18.16 19.6667 18.1165 19.7821 18.0392 19.8671C17.9618 19.9522 17.8568 20 17.7474 20ZM2.66565 19.0927H17.3347V7.63158H2.66565V19.0927Z" fill="#690A3F"/>
<path d="M12.1714 7.63153H7.82892C7.71948 7.63153 7.61451 7.58374 7.53713 7.49866C7.45974 7.41359 7.41626 7.29821 7.41626 7.17789V3.98496C7.41626 3.86464 7.45974 3.74926 7.53713 3.66418C7.61451 3.57911 7.71948 3.53131 7.82892 3.53131H12.1714C12.2808 3.53131 12.3858 3.57911 12.4632 3.66418C12.5405 3.74926 12.584 3.86464 12.584 3.98496V7.17789C12.584 7.29821 12.5405 7.41359 12.4632 7.49866C12.3858 7.58374 12.2808 7.63153 12.1714 7.63153ZM8.24158 6.72425H11.7587V4.4386H8.24158V6.72425Z" fill="#690A3F"/>
<path d="M11.5545 20H8.44684C8.33739 20 8.23243 19.9522 8.15504 19.8671C8.07766 19.7821 8.03418 19.6667 8.03418 19.5464V7.49025C8.03418 7.36994 8.07766 7.25455 8.15504 7.16948C8.23243 7.0844 8.33739 7.03661 8.44684 7.03661H11.5545C11.6639 7.03661 11.7689 7.0844 11.8463 7.16948C11.9237 7.25455 11.9671 7.36994 11.9671 7.49025V19.5464C11.9671 19.6667 11.9237 19.7821 11.8463 19.8671C11.7689 19.9522 11.6639 20 11.5545 20ZM8.8595 19.0927H11.1418V7.94389H8.8595V19.0927Z" fill="#690A3F"/>
<path d="M14.6594 4.43871C14.5742 4.43879 14.491 4.40985 14.4213 4.35587C14.3517 4.3019 14.2989 4.22553 14.2703 4.13727C14.2417 4.049 14.2387 3.95317 14.2616 3.86293C14.2846 3.7727 14.3324 3.69249 14.3985 3.63332L15.5361 2.61402L13.7779 1.03988L10.0957 4.33751C10.0539 4.37677 10.0054 4.40645 9.95295 4.4248C9.90055 4.44315 9.84535 4.4498 9.79057 4.44436C9.7358 4.43893 9.68257 4.42151 9.63401 4.39313C9.58545 4.36476 9.54254 4.326 9.5078 4.27913C9.47306 4.23226 9.44719 4.17824 9.43172 4.12023C9.41624 4.06222 9.41147 4.00139 9.41768 3.94132C9.42389 3.88125 9.44096 3.82315 9.46789 3.77044C9.49482 3.71773 9.53106 3.67146 9.57448 3.63437L13.516 0.102935C13.5896 0.037016 13.6817 0.00102234 13.7766 0.00102234C13.8716 0.00102234 13.9636 0.037016 14.0372 0.102935L16.4497 2.26332C16.4972 2.30586 16.5355 2.3595 16.5618 2.42034C16.5881 2.48118 16.6018 2.5477 16.6018 2.61507C16.6018 2.68243 16.5881 2.74895 16.5618 2.80979C16.5355 2.87064 16.4972 2.92427 16.4497 2.96681L14.9194 4.33751C14.846 4.40325 14.7541 4.43901 14.6594 4.43871Z" fill="#690A3F"/>
<path d="M5.01165 4.43875C4.91667 4.43866 4.82462 4.40254 4.75104 4.33651L3.22104 2.9658C3.17352 2.92326 3.13522 2.86962 3.10892 2.80878C3.08262 2.74794 3.06897 2.68142 3.06897 2.61405C3.06897 2.54669 3.08262 2.48017 3.10892 2.41933C3.13522 2.35849 3.17352 2.30485 3.22104 2.26231L5.6335 0.101913C5.70711 0.0359938 5.79916 0 5.8941 0C5.98905 0 6.0811 0.0359938 6.15471 0.101913L10.0962 3.63336C10.1396 3.67046 10.1759 3.71672 10.2028 3.76943C10.2297 3.82215 10.2468 3.88024 10.253 3.94031C10.2592 4.00038 10.2545 4.06121 10.239 4.11922C10.2235 4.17723 10.1976 4.23126 10.1629 4.27813C10.1282 4.32499 10.0853 4.36375 10.0367 4.39213C9.98813 4.4205 9.93491 4.43792 9.88014 4.44336C9.82536 4.4488 9.77016 4.44215 9.71776 4.4238C9.66536 4.40545 9.61682 4.37577 9.57501 4.33651L5.89283 1.03886L4.1346 2.61405L5.27226 3.63336C5.33833 3.69251 5.38612 3.77269 5.40907 3.86289C5.43203 3.95309 5.42902 4.04889 5.40046 4.13714C5.37191 4.22539 5.31921 4.30176 5.24959 4.35576C5.17997 4.40977 5.09686 4.43876 5.01165 4.43875Z" fill="#690A3F"/>
</svg>
