<svg width="68" height="68" viewBox="0 0 68 68" fill="none" xmlns="http://www.w3.org/2000/svg">
<g clip-path="url(#clip0_78_1297)">
<path d="M20.9653 40.4242C20.9653 40.4242 22.1954 25.536 22.6033 24.5805C22.8016 24.1162 23.1986 21.6571 24.1826 20.7263C25.4567 19.5205 27.908 19.0981 29.6514 18.8944L38.7366 17.8393C39.0722 17.8003 39.4122 17.8492 39.7232 17.9812C40.0342 18.1133 40.3055 18.3239 40.5105 18.5924C40.6047 18.7154 40.6579 18.8648 40.6628 19.0196C40.6676 19.1744 40.6239 19.3268 40.5376 19.4555L38.4883 22.5153C38.1824 22.972 38.0294 23.5141 38.0513 24.0634C38.0732 24.6127 38.269 25.1408 38.6103 25.5717L45.4453 34.2003" fill="#E20613"/>
<path d="M49.0357 34.3492C48.7474 33.9721 48.3593 33.6832 47.9153 33.5153C47.4713 33.3474 46.9892 33.3071 46.5235 33.3989C46.0578 33.4908 45.6271 33.7112 45.2801 34.0352C44.9332 34.3592 44.6839 34.7738 44.5604 35.2321C44.2748 34.6152 43.8002 34.1052 43.2055 33.776C42.6107 33.4467 41.9265 33.3154 41.2521 33.4009C40.5777 33.4865 39.948 33.7844 39.4543 34.2517C38.9605 34.719 38.6283 35.3313 38.5058 36C38.4335 35.5196 38.2414 35.065 37.9474 34.6783C36.792 33.1672 34.3489 33.0938 32.4906 34.5147C31.4666 35.2977 30.8327 36.373 30.6653 37.433C29.4373 36.1808 27.1779 36.1969 25.434 37.5303C24.3673 38.3459 23.7251 39.4769 23.5904 40.5784C23.1058 40.2263 22.5193 40.0425 21.9204 40.055C21.3215 40.0675 20.7432 40.2756 20.2736 40.6475C19.8041 41.0194 19.4691 41.5347 19.3198 42.1148C19.1705 42.6949 19.2151 43.3079 19.4467 43.8603C18.6232 44.2315 17.9785 44.9114 17.6515 45.7535C17.3245 46.5956 17.3414 47.5325 17.6986 48.3622C18.0558 49.192 18.7247 49.8482 19.5611 50.1894C20.3975 50.5307 21.3345 50.5297 22.1702 50.1867C22.7467 50.6647 23.4221 51.0088 24.1477 51.194C24.8734 51.3792 25.6311 51.4009 26.3661 51.2576C27.1012 51.1143 27.7952 50.8096 28.3982 50.3654C29.0011 49.9212 29.4979 49.3486 29.8526 48.6891C30.5477 49.2585 31.3821 49.6322 32.2698 49.7718C33.1574 49.9114 34.0663 49.8119 34.9026 49.4834C35.739 49.1549 36.4727 48.6094 37.0281 47.903C37.5835 47.1966 37.9405 46.3549 38.0623 45.4646C38.6575 45.9659 39.3783 46.295 40.1468 46.4165C40.9154 46.538 41.7025 46.4472 42.4233 46.1539C43.144 45.8607 43.771 45.3761 44.2364 44.7526C44.7018 44.129 44.9881 43.3902 45.0642 42.6158C45.7171 43.0906 46.53 43.2908 47.3287 43.1735C48.1275 43.0561 48.8484 42.6306 49.3372 41.9881C49.826 41.3456 50.0436 40.5372 49.9435 39.7362C49.8434 38.9351 49.4336 38.2051 48.8017 37.7026C49.2421 37.2679 49.5088 36.6874 49.5519 36.0701C49.595 35.4528 49.4114 34.8409 49.0357 34.3492Z" fill="#F6F6F6"/>
<path d="M46.148 13.9099C45.8388 13.5051 45.4125 13.2052 44.927 13.0509C44.4415 12.8966 43.9203 12.8955 43.4342 13.0477C42.948 13.1998 42.5205 13.4979 42.2095 13.9014C41.8986 14.305 41.7194 14.7944 41.6962 15.3033C41.3634 15.2419 41.0196 15.3047 40.73 15.4798C40.4404 15.655 40.2251 15.9303 40.125 16.2536C40.0248 16.5769 40.0468 16.9257 40.1866 17.2339C40.3265 17.5421 40.5746 17.7883 40.8839 17.9257C40.739 18.3561 40.7326 18.821 40.8657 19.2551C40.9988 19.6892 41.2646 20.0707 41.6258 20.3459C41.9871 20.621 42.4254 20.776 42.8793 20.789C43.3332 20.802 43.7797 20.6724 44.1561 20.4184C44.6713 20.5766 45.2234 20.5671 45.7328 20.3911C46.2422 20.2152 46.6826 19.882 46.9904 19.4396C47.2981 18.9972 47.4574 18.4685 47.4453 17.9297C47.4331 17.3909 47.2501 16.8699 46.9226 16.4419C46.8182 16.3054 46.7003 16.1797 46.5708 16.0667C46.671 15.6989 46.685 15.3129 46.6116 14.9388C46.5383 14.5648 46.3796 14.2127 46.148 13.9099Z" fill="#F3F3F3"/>
<path d="M21.3214 39.4397C21.3645 39.3759 21.6332 38.529 22.4393 38.585C22.4393 38.585 24.5791 33.8333 29.0485 34.8448C29.0485 34.8448 33.002 30.1116 38.1827 32.8088C38.1827 32.8088 41.75 30.2035 44.4267 33.6243L44.8098 34.1253L44.4435 34.4054L41.5694 33.2434L38.6359 34.9996L35.9003 33.5788L32.4108 34.5782L30.7256 36.6781L29.9181 37.0207L26.9162 36.81L24.3018 38.6256L23.5844 40.3642L21.579 40.2174L20.9826 39.7572L21.3214 39.4397Z" fill="#A81A3F"/>
<path d="M28.9716 46.489C28.9716 46.489 33.7703 50.7673 37.7167 45.3823C37.7167 45.3823 36.3486 48.6915 34.7598 49.5699C33.171 50.4482 28.5622 48.131 28.9716 46.489Z" fill="#DADADA"/>
<path d="M21.1189 47.8514C21.1189 47.8514 25.2251 50.8568 29.4838 48.2572C29.4838 48.2572 29.6953 49.8518 26.4098 50.9284C24.6847 51.4934 20.7092 49.493 21.1189 47.8514Z" fill="#DADADA"/>
<path d="M43.9041 41.1919C43.9041 41.1919 48.891 42.8137 48.1765 37.7212C48.1765 37.7212 50.4026 39.6831 49.2329 41.5787C48.2762 43.1281 45.4036 43.1538 43.9041 41.1919Z" fill="#DADADA"/>
<path d="M36.5815 42.9005C36.5815 42.9005 38.9733 46.6554 44.6063 42.3175C44.6063 42.3175 43.9585 45.103 42.37 45.9817C40.7814 46.8604 37.419 46.034 36.5815 42.9005Z" fill="#DADADA"/>
<path d="M49.0122 43.0752C48.3827 43.5593 47.6113 43.8226 46.8171 43.8242C46.3268 43.8256 45.8411 43.7289 45.3886 43.5399C45.1937 44.2485 44.8395 44.9033 44.3532 45.4543C43.8669 46.0054 43.2612 46.4381 42.5822 46.7196C41.9033 47.0011 41.1691 47.1239 40.4355 47.0786C39.702 47.0334 38.9884 46.8213 38.3492 46.4585C38.0113 47.5895 37.3229 48.5839 36.3832 49.2983C35.4654 49.9999 34.3534 50.4013 33.1991 50.4475C32.0447 50.4938 30.9042 50.1827 29.9332 49.5567C29.4017 50.3217 28.6885 50.9427 27.8576 51.3638C27.0268 51.785 26.1043 51.9931 25.1731 51.9696C24.0259 51.9381 22.9155 51.5577 21.9901 50.8789C21.0574 51.1761 20.0482 51.1212 19.1532 50.7247C18.2583 50.3281 17.5396 49.6174 17.1332 48.727C16.7267 47.8365 16.6607 46.8279 16.9475 45.892C17.2343 44.9561 17.854 44.1577 18.6896 43.6478C18.5444 43.0583 18.5646 42.4401 18.7481 41.8613C18.9315 41.2824 19.271 40.7654 19.7293 40.3671C20.1876 39.9688 20.7468 39.7046 21.3455 39.6036C21.9443 39.5026 22.5593 39.5686 23.1228 39.7946C23.4336 38.7862 24.0971 37.8494 25.0147 37.1478C26.6801 35.8744 28.7823 35.669 30.2615 36.5388C30.6006 35.6213 31.2319 34.7739 32.071 34.1324C33.0714 33.3675 34.2612 32.9646 35.4188 33.0001C36.6211 33.036 37.6478 33.5335 38.3107 34.4005C38.3533 34.4561 38.3941 34.513 38.433 34.5709C38.7518 34.0875 39.1778 33.6841 39.678 33.3922C40.1782 33.1004 40.739 32.9279 41.3168 32.8882C41.8946 32.8485 42.4737 32.9427 43.0091 33.1635C43.5445 33.3842 44.0217 33.7256 44.4036 34.1609C44.8773 33.4918 45.5965 33.0374 46.4042 32.8969C47.2118 32.7565 48.0422 32.9414 48.714 33.4113C49.3857 33.8812 49.8441 34.5979 49.9891 35.4047C50.1341 36.2116 49.9539 37.043 49.4878 37.7174C49.5603 37.7967 49.6293 37.8791 49.6945 37.9644C50.2807 38.733 50.5381 39.7028 50.4102 40.6609C50.2823 41.619 49.7795 42.4873 49.0122 43.0752ZM44.6445 42.2335C44.679 42.2071 44.7163 42.1847 44.7558 42.1668C44.8456 42.1266 44.9444 42.1108 45.0422 42.121C45.1401 42.1312 45.2335 42.167 45.313 42.2249C45.8481 42.6085 46.5118 42.7683 47.1629 42.6702C47.8139 42.5721 48.4011 42.224 48.7995 41.6998C49.1979 41.1756 49.3761 40.5167 49.2963 39.8631C49.2165 39.2095 48.8849 38.6129 48.372 38.2C48.3106 38.1506 48.2603 38.0888 48.2245 38.0186C48.1886 37.9485 48.1681 37.8715 48.1641 37.7928C48.1601 37.7141 48.1728 37.6355 48.2014 37.562C48.23 37.4886 48.2738 37.4221 48.3299 37.3667C48.5464 37.1524 48.7107 36.8911 48.81 36.603C48.9093 36.315 48.9409 36.0079 48.9024 35.7057C48.8638 35.4034 48.7562 35.1141 48.5879 34.8601C48.4196 34.6062 48.195 34.3944 47.9316 34.2412C47.6682 34.088 47.3731 33.9975 47.0691 33.9768C46.7651 33.956 46.4605 34.0056 46.1787 34.1215C45.897 34.2375 45.6457 34.4168 45.4444 34.6455C45.2431 34.8742 45.0972 35.1462 45.0179 35.4405C44.9881 35.5511 44.925 35.65 44.8371 35.7235C44.7491 35.7971 44.6407 35.8418 44.5265 35.8517C44.4123 35.8615 44.2978 35.8359 44.1986 35.7785C44.0994 35.7211 44.0203 35.6345 43.972 35.5305C43.8059 35.1712 43.5612 34.8537 43.256 34.6017C42.9507 34.3496 42.5927 34.1693 42.2084 34.0742C41.8241 33.9791 41.4234 33.9716 41.0358 34.0522C40.6482 34.1328 40.2837 34.2994 39.9691 34.5398C39.4472 34.938 39.0927 35.5166 38.9747 36.1624C38.9511 36.2922 38.8822 36.4094 38.7804 36.4933C38.6785 36.5772 38.5503 36.6224 38.4183 36.6207C38.2864 36.6191 38.1593 36.5708 38.0595 36.4844C37.9598 36.398 37.8938 36.2791 37.8734 36.1488C37.8156 35.7602 37.6606 35.3926 37.4228 35.0799C36.4571 33.8169 34.3599 33.7891 32.7491 35.0208C31.876 35.6884 31.2893 36.6238 31.1373 37.5817C31.1211 37.6839 31.0768 37.7797 31.0093 37.8583C30.9418 37.9368 30.8539 37.9951 30.7552 38.0265C30.6565 38.058 30.5511 38.0614 30.4506 38.0364C30.3501 38.0114 30.2585 37.9589 30.1861 37.8848C29.6977 37.3875 28.9838 37.1188 28.1732 37.1311C27.3186 37.1452 26.4393 37.4654 25.6939 38.0354C24.7811 38.7333 24.1877 39.7073 24.0653 40.7075C24.0535 40.804 24.0167 40.8958 23.9585 40.9737C23.9004 41.0516 23.8229 41.113 23.7337 41.1518C23.6445 41.1906 23.5468 41.2054 23.4501 41.1949C23.3534 41.1843 23.2612 41.1486 23.1825 41.0915C22.7965 40.8103 22.329 40.6633 21.8515 40.6729C21.3741 40.6826 20.9129 40.8483 20.5385 41.1448C20.1642 41.4413 19.8972 41.8522 19.7785 42.3148C19.6597 42.7773 19.6957 43.266 19.881 43.7062C19.9374 43.8405 19.9391 43.9916 19.8858 44.1272C19.8324 44.2628 19.7282 44.3721 19.5953 44.432C18.9057 44.7431 18.3658 45.3127 18.0919 46.018C17.8181 46.7233 17.8322 47.5079 18.1312 48.2029C18.4302 48.8979 18.9902 49.4477 19.6906 49.7339C20.391 50.02 21.1758 50.0197 21.8759 49.7329C21.9699 49.694 22.0727 49.6816 22.1733 49.6969C22.2738 49.7122 22.3683 49.7547 22.4464 49.8197C23.2236 50.4629 24.1939 50.8271 25.2024 50.854C26.0341 50.8749 26.8553 50.6648 27.5748 50.2471C28.2943 49.8294 28.8839 49.2204 29.2782 48.4879C29.3172 48.4153 29.3719 48.3523 29.4381 48.3034C29.5044 48.2544 29.5807 48.2208 29.6615 48.2048C29.7424 48.1888 29.8257 48.1908 29.9056 48.2109C29.9856 48.2309 30.0601 48.2683 30.1238 48.3205C30.9011 48.9551 31.8677 49.3127 32.8708 49.3368C33.9747 49.3618 35.0492 48.9797 35.8893 48.2633C36.7295 47.5468 37.2766 46.5462 37.4263 45.4523C37.4399 45.3533 37.4798 45.2597 37.5419 45.1813C37.6039 45.103 37.6859 45.0428 37.7792 45.0069C37.8725 44.971 37.9737 44.9608 38.0723 44.9774C38.1709 44.994 38.2632 45.0367 38.3396 45.1012C38.9862 45.6453 39.7989 45.9526 40.6437 45.9724C41.4885 45.9923 42.3148 45.7234 42.9861 45.2103C43.3928 44.9025 43.7309 44.5134 43.9791 44.0678C44.2273 43.6222 44.3801 43.1299 44.4278 42.6221C44.4354 42.5459 44.4585 42.4722 44.4958 42.4053C44.5331 42.3385 44.5837 42.28 44.6445 42.2335Z" fill="#690A3F"/>
<path d="M45.7288 34.3794C45.6125 34.4684 45.4658 34.5081 45.3204 34.49C45.175 34.4719 45.0425 34.3973 44.9515 34.2824L38.1166 25.6539C37.7004 25.1306 37.4618 24.4883 37.4356 23.8202C37.4093 23.152 37.5967 22.493 37.9706 21.9386L40.0199 18.8788C40.0411 18.8473 40.0519 18.8099 40.0509 18.7719C40.0498 18.734 40.037 18.6972 40.0142 18.6669C39.8674 18.4759 39.6737 18.3262 39.452 18.2321C39.2303 18.1381 38.988 18.103 38.7487 18.1302L29.6608 19.1875C28.7105 19.298 25.818 19.6343 24.511 20.8706C23.8831 21.4643 23.4881 22.9914 23.2757 23.8122C23.1867 24.1549 23.1275 24.3825 23.0631 24.5345C22.7794 25.3194 21.9337 34.5614 21.467 40.2067C21.4628 40.2812 21.4438 40.3541 21.411 40.4211C21.3782 40.4881 21.3324 40.5479 21.2761 40.5969C21.2198 40.6459 21.1543 40.6831 21.0834 40.7064C21.0125 40.7296 20.9377 40.7384 20.8634 40.7323C20.789 40.7262 20.7166 40.7052 20.6505 40.6707C20.5844 40.6361 20.5259 40.5887 20.4784 40.5311C20.4309 40.4736 20.3955 40.4071 20.3741 40.3356C20.3527 40.2641 20.3459 40.1891 20.354 40.1149C20.3568 40.0776 20.6658 36.3455 21.0207 32.5453C21.7478 24.7738 21.9486 24.3 22.0356 24.0983C22.0676 24.0235 22.1354 23.7612 22.196 23.5299C22.4535 22.5352 22.8852 20.8708 23.7447 20.0572C25.1572 18.7213 27.7237 18.2875 29.5325 18.0767L38.6183 17.021C39.0497 16.972 39.4865 17.0352 39.8862 17.2047C40.2859 17.3741 40.6351 17.6439 40.8999 17.988C41.0648 18.2037 41.1581 18.4657 41.1665 18.7371C41.175 19.0085 41.0982 19.2757 40.9469 19.5012L38.898 22.5608C38.6569 22.9188 38.5362 23.3444 38.5534 23.7758C38.5706 24.2071 38.7248 24.6218 38.9936 24.9595L45.8286 33.5881C45.8742 33.6456 45.908 33.7116 45.928 33.7823C45.9481 33.8529 45.954 33.9268 45.9455 33.9998C45.937 34.0727 45.9141 34.1433 45.8783 34.2074C45.8425 34.2715 45.7943 34.3279 45.7367 34.3734L45.7288 34.3794Z" fill="#690A3F"/>
<path d="M46.7061 20.5131C46.3485 20.7856 45.9361 20.9773 45.4973 21.0751C45.0585 21.1729 44.6037 21.1744 44.1642 21.0795C43.7161 21.3227 43.2089 21.4356 42.7 21.4054C42.191 21.3751 41.7007 21.203 41.2846 20.9085C40.8685 20.614 40.5431 20.2088 40.3453 19.7389C40.1476 19.269 40.0854 18.7531 40.1657 18.2496C39.864 18.0127 39.6392 17.6916 39.52 17.3269C39.4007 16.9622 39.3922 16.5704 39.4957 16.2009C39.5991 15.8314 39.8097 15.5009 40.101 15.2511C40.3923 15.0014 40.751 14.8436 41.132 14.7977C41.3093 14.0313 41.7767 13.3635 42.436 12.9344C43.0954 12.5054 43.8953 12.3485 44.6678 12.4968C45.4403 12.6451 46.1253 13.087 46.579 13.7296C47.0326 14.3723 47.2195 15.1657 47.1005 15.9433C47.1657 16.0135 47.2276 16.0871 47.2862 16.1642C47.7851 16.8182 48.0042 17.6433 47.8954 18.4586C47.7867 19.2739 47.3589 20.0128 46.7061 20.5131ZM40.8652 16.0694C40.6918 16.2023 40.5782 16.3984 40.5493 16.6149C40.5205 16.8314 40.5787 17.0505 40.7111 17.2241C40.7943 17.334 40.9042 17.4209 41.0302 17.4766C41.1573 17.5331 41.2587 17.6349 41.3147 17.7621C41.3706 17.8894 41.3772 18.0329 41.333 18.1647C41.2253 18.4843 41.2206 18.8296 41.3194 19.1521C41.4182 19.4745 41.6155 19.7579 41.8837 19.9623C42.1519 20.1668 42.4775 20.2821 42.8146 20.2919C43.1517 20.3017 43.4834 20.2057 43.7631 20.0172C43.8321 19.9705 43.9107 19.9398 43.9931 19.9274C44.0756 19.915 44.1597 19.9212 44.2395 19.9456C44.674 20.0777 45.1407 20.0569 45.5618 19.8867C45.9829 19.7164 46.3328 19.407 46.5534 19.01C46.774 18.6129 46.8518 18.1523 46.7739 17.7048C46.696 17.2574 46.4671 16.8501 46.1253 16.551C46.0462 16.4822 45.9881 16.3926 45.9576 16.2924C45.9271 16.1921 45.9253 16.0853 45.9526 15.9842C46.0234 15.7233 46.0384 15.4505 45.9966 15.1834C45.9548 14.9164 45.8572 14.6611 45.7102 14.4343C45.5631 14.2075 45.3699 14.0143 45.1431 13.8672C44.9164 13.7201 44.6612 13.6224 44.3941 13.5806C44.1271 13.5387 43.8542 13.5537 43.5933 13.6244C43.3325 13.6951 43.0894 13.82 42.88 13.9909C42.6707 14.1619 42.4997 14.375 42.3782 14.6165C42.2568 14.858 42.1876 15.1223 42.1751 15.3923C42.1714 15.472 42.1507 15.5499 42.1144 15.6209C42.0781 15.6918 42.027 15.7542 41.9645 15.8038L41.9564 15.8101C41.8944 15.8574 41.8233 15.8913 41.7474 15.9094C41.6716 15.9276 41.5929 15.9297 41.5162 15.9157C41.403 15.8937 41.2864 15.896 41.1741 15.9226C41.0619 15.9491 40.9566 15.9991 40.8652 16.0694Z" fill="#690A3F"/>
<path d="M24.2507 28.7299C24.1867 28.7789 24.1101 28.8088 24.0299 28.8164C23.9496 28.8239 23.8688 28.8087 23.7968 28.7725C23.7248 28.7362 23.6644 28.6805 23.6225 28.6116C23.5807 28.5427 23.559 28.4634 23.5601 28.3828C23.5617 28.2193 23.6281 24.3687 24.8359 21.9118C25.2039 21.1636 26.1009 20.5951 27.5743 20.1776C28.5864 19.8906 29.8416 19.6822 31.3066 19.5594C31.4202 19.5499 31.533 19.5859 31.6201 19.6594C31.7072 19.733 31.7615 19.8382 31.771 19.9518C31.7806 20.0655 31.7446 20.1782 31.671 20.2653C31.5974 20.3524 31.4923 20.4067 31.3786 20.4163C28.1646 20.6858 26.0608 21.3689 25.6071 22.2914C24.4851 24.5734 24.4201 28.3565 24.4199 28.3945C24.419 28.4596 24.4032 28.5236 24.3739 28.5817C24.3446 28.6398 24.3025 28.6905 24.2507 28.7299Z" fill="#FE5B4A"/>
<path d="M30.1164 39.517C30.0453 39.5714 29.9589 39.6022 29.8693 39.6051C29.7798 39.608 29.6916 39.5829 29.6171 39.5332C28.7718 38.9695 27.976 38.7742 27.2524 38.9526C26.0981 39.237 25.4592 40.3871 25.4527 40.3991C25.3985 40.4994 25.3068 40.574 25.1976 40.6067C25.0883 40.6393 24.9707 40.6272 24.8704 40.573C24.7701 40.5189 24.6954 40.4271 24.6628 40.3179C24.6301 40.2087 24.6422 40.091 24.6964 39.9907C24.729 39.9301 25.5127 38.5011 27.0376 38.1206C28.0076 37.8781 29.0359 38.1131 30.0938 38.8182C30.1507 38.8561 30.1977 38.9071 30.2309 38.9669C30.2642 39.0266 30.2827 39.0934 30.2849 39.1618C30.2871 39.2301 30.273 39.298 30.2437 39.3598C30.2144 39.4216 30.1707 39.4755 30.1164 39.517Z" fill="white"/>
<path d="M37.1895 36.6438C37.1183 36.6982 37.0318 36.7289 36.9422 36.7318C36.8526 36.7346 36.7644 36.7094 36.6899 36.6596C35.8446 36.0959 35.0492 35.9003 34.3252 36.079C33.1715 36.3634 32.5323 37.5138 32.5258 37.5252C32.4701 37.6224 32.3786 37.694 32.2709 37.7247C32.1631 37.7554 32.0476 37.7428 31.949 37.6896C31.8504 37.6364 31.7765 37.5468 31.743 37.4399C31.7095 37.3329 31.7191 37.2171 31.7698 37.1172C31.8024 37.0566 32.5862 35.6276 34.1107 35.2467C35.081 35.0046 36.1091 35.2392 37.1669 35.9443C37.2139 35.9756 37.2543 36.0158 37.2858 36.0627C37.3172 36.1096 37.3391 36.1623 37.3502 36.2177C37.3613 36.273 37.3613 36.33 37.3504 36.3854C37.3394 36.4408 37.3177 36.4935 37.2863 36.5405C37.2598 36.5799 37.2271 36.6148 37.1895 36.6438Z" fill="white"/>
</g>
<defs>
<clipPath id="clip0_78_1297">
<rect width="48" height="48" fill="white" transform="translate(0 29.1554) rotate(-37.402)"/>
</clipPath>
</defs>
</svg>
