<svg width="17" height="18" viewBox="0 0 17 18" fill="none" xmlns="http://www.w3.org/2000/svg">
<path fill-rule="evenodd" clip-rule="evenodd" d="M11.8458 9.08305C11.268 9.08305 10.7988 8.52834 10.7988 7.84523C10.7988 7.16106 11.268 6.60741 11.8458 6.60741C12.4245 6.60741 12.8928 7.16106 12.8928 7.84523C12.8928 8.52834 12.4245 9.08305 11.8458 9.08305ZM8.35576 9.08305C7.77795 9.08305 7.30875 8.52834 7.30875 7.84523C7.30875 7.16106 7.77795 6.60741 8.35576 6.60741C8.93447 6.60741 9.40278 7.16106 9.40278 7.84523C9.40278 8.52834 8.93447 9.08305 8.35576 9.08305ZM4.8666 9.08305C4.2879 9.08305 3.81959 8.52834 3.81959 7.84523C3.81959 7.16106 4.2879 6.60741 4.8666 6.60741C5.44442 6.60741 5.91362 7.16106 5.91362 7.84523C5.91362 8.52834 5.44442 9.08305 4.8666 9.08305ZM8.62998 0.00255637C3.93622 -0.106911 0.0731288 3.31288 0.00101302 7.63998C-0.0239159 9.1441 0.41234 10.5609 1.18959 11.7724C2.52685 13.8028 1.06761 17.2941 1.06761 17.2941L5.37587 15.1006C6.30358 15.4469 7.31231 15.649 8.36912 15.6742C13.0629 15.7826 16.9269 12.3639 16.999 8.03574C17.0711 3.70864 13.3246 0.112023 8.62998 0.00255637Z" fill="#0030D0"/>
</svg>
