<svg width="427" height="399" viewBox="0 0 427 399" fill="none" xmlns="http://www.w3.org/2000/svg">
<path d="M128.03 269.794C140.236 269.794 150.13 259.899 150.13 247.693C150.13 235.488 140.236 225.594 128.03 225.594C115.825 225.594 105.93 235.488 105.93 247.693C105.93 259.899 115.825 269.794 128.03 269.794Z" fill="#FFBE64"/>
<path d="M131.41 263.69C133.97 263.142 135.456 259.948 134.73 256.556C134.003 253.165 131.339 250.86 128.78 251.409C126.22 251.957 124.734 255.151 125.46 258.542C126.187 261.933 128.851 264.238 131.41 263.69Z" fill="#E39B42"/>
<path d="M135.95 248.344C138.712 248.344 140.95 246.105 140.95 243.344C140.95 240.582 138.712 238.344 135.95 238.344C133.189 238.344 130.95 240.582 130.95 243.344C130.95 246.105 133.189 248.344 135.95 248.344Z" fill="white"/>
<path d="M119.301 251.86C122.06 251.731 124.191 249.39 124.062 246.631C123.933 243.873 121.592 241.742 118.834 241.871C116.075 242 113.944 244.341 114.073 247.099C114.202 249.857 116.543 251.989 119.301 251.86Z" fill="white"/>
<path d="M138.681 243.829C138.957 242.308 137.948 240.851 136.426 240.574C134.905 240.298 133.447 241.307 133.171 242.829C132.895 244.35 133.904 245.808 135.426 246.084C136.947 246.36 138.405 245.351 138.681 243.829Z" fill="#E39B42"/>
<path d="M119.02 249.773C120.566 249.773 121.82 248.52 121.82 246.973C121.82 245.427 120.566 244.173 119.02 244.173C117.474 244.173 116.22 245.427 116.22 246.973C116.22 248.52 117.474 249.773 119.02 249.773Z" fill="#E39B42"/>
<path d="M350.826 54.1091C356.053 37.4406 346.777 19.6908 330.109 14.464C313.44 9.23726 295.691 18.5127 290.464 35.1812C285.237 51.8497 294.512 69.5992 311.181 74.826C327.849 80.0528 345.599 70.7776 350.826 54.1091Z" fill="#FFBE64"/>
<path d="M314.469 65.13C322.439 67.45 330.779 62.88 333.109 54.91L304.249 46.49C301.929 54.46 306.499 62.8 314.469 65.13Z" fill="#E39B42"/>
<path d="M314.709 42.62C314.249 42.48 313.979 42 314.109 41.53C315.039 38.36 313.209 35.0201 310.029 34.0901C306.859 33.1601 303.519 34.99 302.589 38.17C302.449 38.63 301.969 38.9 301.499 38.77C301.039 38.63 300.769 38.15 300.899 37.68C302.099 33.58 306.409 31.21 310.509 32.41C314.609 33.61 316.979 37.92 315.779 42.02C315.639 42.48 315.159 42.75 314.689 42.62H314.709Z" fill="#E39B42"/>
<path d="M339.559 49.87C339.099 49.73 338.829 49.25 338.959 48.78C339.889 45.61 338.059 42.2701 334.879 41.3401C331.709 40.4101 328.369 42.24 327.439 45.42C327.299 45.88 326.819 46.15 326.349 46.02C325.889 45.88 325.619 45.4 325.749 44.93C326.949 40.83 331.259 38.46 335.359 39.66C339.459 40.86 341.829 45.17 340.629 49.27C340.489 49.73 340.009 50 339.539 49.87H339.559Z" fill="#E39B42"/>
<path d="M356.359 135.15L352.503 152.558C351.995 154.849 353.442 157.119 355.733 157.626L383.744 163.831C386.036 164.339 388.305 162.892 388.813 160.601L392.669 143.193C393.177 140.901 391.73 138.632 389.439 138.124L361.428 131.919C359.136 131.412 356.867 132.858 356.359 135.15Z" fill="#87AFD9"/>
<path d="M388.75 160.75L386.34 171.62L379.94 160.35L388.75 160.75Z" fill="#87AFD9"/>
<path d="M374.8 144.33L355.26 140L352.48 152.54C351.97 154.83 353.42 157.1 355.71 157.6L375.25 161.93L378.03 149.39C378.54 147.1 377.09 144.83 374.8 144.33Z" fill="#6E9CCC"/>
<path d="M339.295 142.534L335.439 159.942C334.931 162.234 336.378 164.503 338.669 165.011L366.68 171.215C368.972 171.723 371.241 170.277 371.749 167.985L375.605 150.577C376.112 148.285 374.666 146.016 372.375 145.509L344.364 139.304C342.072 138.796 339.803 140.242 339.295 142.534Z" fill="#C7C7C7"/>
<path d="M335.41 159.93L333 170.8L343.56 163.28L335.41 159.93Z" fill="#C7C7C7"/>
<path d="M109.864 48.2857C101.124 42.4657 90.224 44.0457 93.644 55.9257C97.144 68.0858 115.634 72.5457 115.634 72.5457C115.634 72.5457 130.144 60.2456 127.794 47.8056C125.504 35.6656 115.054 39.1557 109.864 48.2757V48.2857Z" fill="#FF7869"/>
<path d="M110.665 128.15L82.2053 128C80.9253 128 80.1454 129.4 80.8254 130.48L85.4653 137.89C80.7153 142.55 76.9454 148.33 74.8554 154.61C73.1054 159.84 72.5053 165.41 73.4353 170.94L74.5454 170.95C75.4954 165.93 77.7354 161.36 80.8854 157.52C83.9354 153.8 87.8453 150.78 92.2653 148.72L97.0153 156.3C97.6953 157.38 99.2954 157.29 99.8454 156.14L112.125 130.46C112.635 129.39 111.865 128.15 110.675 128.14L110.665 128.15Z" fill="#87AFD9"/>
<path d="M232.828 0.885566L192.044 9.81518C189.811 10.3042 188.396 12.5113 188.885 14.7449L193.642 36.4702C194.131 38.7038 196.338 40.118 198.572 39.6289L239.356 30.6993C241.589 30.2103 243.004 28.0032 242.515 25.7697L237.758 4.04433C237.269 1.81078 235.062 0.396531 232.828 0.885566Z" fill="#C7C7C7"/>
<path d="M199.502 17.7637C198.782 17.7637 198.142 17.2638 197.982 16.5438C197.802 15.7038 198.332 14.8737 199.172 14.6937L228.232 8.33367C229.072 8.15367 229.902 8.68373 230.082 9.52373C230.262 10.3637 229.732 11.1937 228.892 11.3737L199.832 17.7337C199.722 17.7537 199.612 17.7737 199.502 17.7737V17.7637Z" fill="white"/>
<path d="M201.132 25.2136C200.412 25.2136 199.771 24.7136 199.611 23.9936C199.431 23.1536 199.962 22.3236 200.802 22.1436L229.861 15.7836C230.701 15.6036 231.532 16.1336 231.712 16.9736C231.892 17.8136 231.362 18.6435 230.522 18.8235L201.462 25.1835C201.352 25.2035 201.242 25.2236 201.132 25.2236V25.2136Z" fill="white"/>
<path d="M202.762 32.6639C202.042 32.6639 201.402 32.1638 201.242 31.4438C201.062 30.6038 201.592 29.7738 202.432 29.5938L231.492 23.2338C232.332 23.0538 233.162 23.5838 233.342 24.4238C233.522 25.2638 232.992 26.0939 232.152 26.2739L203.092 32.6338C202.982 32.6538 202.872 32.6738 202.762 32.6738V32.6639Z" fill="white"/>
<path d="M0 366.214C0 339.594 95.4301 334.014 213.15 334.014C330.87 334.014 425.21 336.344 426.3 366.214C427.39 396.094 330.87 398.414 213.15 398.414C95.4301 398.414 0 392.834 0 366.214Z" fill="#F0F5FF"/>
<path d="M111.05 368.234C106.14 369.604 84.06 367.904 82.3 372.684C80.53 377.464 98.3501 379.834 102.4 378.864C102.76 381.334 104.34 387.904 117.96 391.674C127.85 393.454 144.06 392.424 159.04 389.874C184.52 385.554 210.32 377.664 223.42 377.664C252.56 377.664 320.75 376.274 313.73 365.664C300.14 345.154 156.49 368.234 111.06 368.234H111.05Z" fill="#C5D6F9"/>
<path d="M260.64 218.764C260.64 218.764 250.16 206.584 235.88 220.634C221.59 234.684 210.46 263.134 204.69 272.584C198.92 282.034 209.51 290.583 218.96 284.673C228.41 278.763 247.61 249.724 254.09 242.074C260.57 234.424 265.67 225.324 260.64 218.754V218.764Z" fill="#DE9681"/>
<path d="M258.48 213.914C258.48 213.914 265.04 219.534 263.04 228.774C261.04 238.004 232.53 274.004 225.54 280.394C218.56 286.784 212.06 290.103 205.93 286.103C199.8 282.103 202.16 275.123 204.29 270.693C206.42 266.263 222.25 235.843 226.68 229.223C231.11 222.603 246.46 205.474 258.47 213.904L258.48 213.914Z" fill="#E3EBFF"/>
<path d="M205.95 286.104C199.82 282.104 202.18 275.124 204.31 270.694C206.44 266.264 222.27 235.844 226.7 229.224C227.54 227.964 228.79 226.314 230.32 224.544L236.72 236.774L240.85 222.264L251.96 247.724C242.52 261.024 229.89 276.414 225.55 280.384C218.57 286.774 212.07 290.094 205.94 286.094L205.95 286.104Z" fill="#C9D5F2"/>
<path d="M221.28 264.374L223.19 264.063L228.35 277.534C227.23 278.754 226.28 279.734 225.56 280.394C220.74 284.804 216.15 287.754 211.75 287.844C209.48 286.084 208.65 283.504 208.65 283.504L219.2 280.833C219.2 280.833 221.98 272.484 221.29 264.374H221.28Z" fill="#E3EBFF"/>
<path d="M212.49 286.253C212.49 286.253 219.12 284.523 218.55 276.003C217.97 267.483 209.31 224.623 207.99 222.943C206.67 221.263 198.12 217.753 197.94 222.653C197.68 229.603 195.82 271.503 199.79 279.473C202.42 284.763 207.28 288.233 212.5 286.253H212.49Z" fill="#DE9681"/>
<path d="M199.65 229.873C199.65 229.873 197.2 221.903 196.83 220.603C196.46 219.303 194.92 214.653 195.17 212.883C195.41 211.243 196.16 209.843 196.16 209.843C196.16 209.843 194.83 207.573 195.54 206.433C195.54 206.433 194.56 203.663 195.68 202.573C195.68 202.573 195.98 199.573 196.67 198.563C197.37 197.553 204.19 197.293 204.19 197.293C204.19 197.293 206.62 208.303 207.13 212.403C207.65 216.493 209.11 221.693 207.97 223.883C206.82 226.073 199.62 229.883 199.62 229.883L199.65 229.873Z" fill="#DE9681"/>
<path d="M207.16 212.403C207.68 216.493 209.14 221.693 208 223.883C207.78 224.313 207.32 224.803 206.73 225.313C204.67 223.463 203.08 220.823 202.93 218.813C202.75 216.353 203.69 216.003 202.64 214.113C201.59 212.233 202.23 208.623 202.23 208.623C200.84 206.513 202.66 203.793 202.08 201.783C201.63 200.203 202.43 198.163 202.79 197.373C203.63 197.313 204.22 197.293 204.22 197.293C204.22 197.293 206.65 208.303 207.16 212.403Z" fill="#D48770"/>
<path d="M213.36 244.303C213.36 244.303 219.5 264.564 220.09 275.144C220.68 285.724 217.06 288.164 209.7 288.474C202.34 288.784 198.75 278.934 198.14 274.984C197.53 271.034 196.63 251.304 197.32 245.864C197.32 245.864 206.9 246.243 213.36 244.303Z" fill="#E3EBFF"/>
<path d="M214.72 249.034C213.92 246.164 213.36 244.303 213.36 244.303C206.9 246.243 197.32 245.864 197.32 245.864C197.16 247.164 197.08 249.283 197.07 251.803C198.26 252.043 199.89 252.224 201.94 252.024C205.54 251.684 211.77 250.584 214.72 249.034Z" fill="#B7C5E8"/>
<path d="M211.89 240.404C211.89 240.404 213.27 239.883 213.97 240.303C214.67 240.723 214.91 242.864 215.41 243.384C215.9 243.904 216.11 245.684 214.81 246.914C213.51 248.144 201.31 251.064 197.85 250.394C194.39 249.724 195.66 247.384 195.48 246.474C195.3 245.554 196.3 242.674 198.1 243.334C199.91 243.994 204.26 243.594 211.89 240.404Z" fill="#E3EBFF"/>
<path d="M289.36 359.453C289.36 359.453 301.63 345.753 292.98 331.673C284.34 317.593 206.17 268.433 196.62 264.343C187.06 260.263 166.38 274.813 176.76 288.413C187.14 302.013 242.04 355.103 251.08 361.113C260.12 367.113 275.71 372.103 289.36 359.453Z" fill="#DE9681"/>
<path d="M294.08 356.303C294.08 356.303 278.74 375.583 255.38 365.193C232.02 354.803 193.17 309.323 183.41 298.953C173.65 288.583 172.42 276.283 179.44 268.463C186.47 260.643 197.09 260.744 204.76 265.144C212.43 269.544 253.02 298.693 266.85 306.493C280.69 314.283 307.7 331.823 294.07 356.313L294.08 356.303Z" fill="#87AFD9"/>
<path d="M280.62 365.974C283.18 362.484 284.66 358.623 284.77 355.193C285.26 339.843 261.39 308.173 261.39 308.173C261.39 308.173 252.4 312.393 250.06 312.323C247.72 312.243 223.9 299.954 216.27 298.044C209.12 296.244 200.53 302.924 192.97 309.344C194.06 310.534 195.23 311.844 196.43 313.254C212.63 330.934 238.19 357.563 255.38 365.203C265.5 369.703 274.11 368.634 280.62 365.984V365.974Z" fill="#6E99C4"/>
<path d="M179.85 267.434C179.85 267.434 122.89 352.054 119.95 357.364C117.01 362.664 123.82 374.624 132.58 367.024C141.35 359.424 155.11 345.204 164.13 336.754C173.17 328.284 196.43 299.704 202.5 286.784C208.57 273.874 192.17 254.344 179.84 267.434H179.85Z" fill="#DE9681"/>
<path d="M127.86 346.384C127.86 346.384 126.35 351.224 113.74 355.514C107.66 358.064 85.55 360.634 83.82 366.614C82.09 372.584 96.2301 372.864 101.96 372.914C103.82 372.934 105.7 372.184 107.73 371.884C111.97 371.254 116.64 370.824 121.62 371.004C128.98 371.274 137.72 372.984 139.03 368.434C139.37 367.254 139.27 363.994 138.85 362.304C139.97 359.244 141.43 356.054 143.72 353.204C150.12 345.234 134.92 336.254 127.85 346.404L127.86 346.384Z" fill="#DE9681"/>
<path d="M145.15 353.374C145.08 353.344 145 353.324 144.93 353.284C142.61 352.164 140.32 351.004 138.15 349.614C137.13 348.964 136.18 348.194 135.17 347.514C134.15 346.834 133.18 346.094 132.17 345.404C131.12 344.684 130.1 343.934 129.08 343.164C128.25 343.864 127.48 344.684 126.81 345.644L126.65 345.964C126.65 345.964 124.92 350.354 113.24 354.324C111.44 355.074 107.92 355.894 104.18 356.754C92.7402 359.394 83.8901 361.764 82.5901 366.244C82.1901 367.614 82.4103 368.914 83.2103 369.994C85.8703 373.564 94.6102 374.094 101.93 374.164C101.97 374.164 102 374.164 102.04 374.164C103.29 374.164 104.52 373.864 105.7 373.584C106.42 373.414 107.17 373.234 107.9 373.124C112.89 372.384 117.36 372.104 121.55 372.254C122.94 372.304 124.38 372.404 125.81 372.514C132.24 372.974 138.88 373.444 140.23 368.774C140.63 367.374 140.52 364.214 140.15 362.374C141.45 358.884 142.9 356.204 144.69 353.974C144.85 353.774 144.98 353.574 145.12 353.364L145.15 353.374Z" fill="#F5F5F5"/>
<path d="M205.15 272.333C205.15 272.333 211.02 285.873 195.31 304.313C178.47 324.073 146.49 360.384 146.49 360.384C146.49 360.384 128.45 354.694 122.2 342.644C122.2 342.644 172.84 273.653 179.67 266.983C186.87 259.963 201.26 260.073 205.16 272.343L205.15 272.333Z" fill="#87AFD9"/>
<path d="M195.3 304.314C211.01 285.884 212.19 280.394 212.19 280.394C211.32 277.674 210.24 272.074 208.54 270.494C204.08 265.444 197.56 267.884 195.86 269.794C187.06 279.714 132.36 352.584 132.36 352.584C132.6 353.014 132.85 353.444 133.11 353.854C139.77 358.244 146.49 360.364 146.49 360.364C146.49 360.364 178.47 324.054 195.31 304.304L195.3 304.314Z" fill="#6E99C4"/>
<path d="M249.06 296.003C249.06 296.003 247.96 310.133 247.12 318.563C246.28 327.003 241.53 347.134 262 362.794C280.46 376.924 301.64 369.063 306.27 364.144C313.36 356.624 315.78 344.713 315.02 332.103C314.26 319.493 310.4 306.574 314.76 286.544C319.12 266.514 251.38 258.553 249.06 295.993V296.003Z" fill="#DE9681"/>
<path d="M315.37 353.084C315.37 353.084 317.05 346.823 317.18 340.683C317.31 334.543 314.87 318.694 314.44 316.294C314.02 313.894 313.6 308.904 313.49 308.484C313.38 308.064 283.44 309.894 266.7 307.774C249.97 305.654 248.95 304.064 248.48 304.004C248 303.944 245.31 323.273 244.69 328.173C244.07 333.073 246.03 355.914 263.43 365.284C280.82 374.654 304.72 376.794 315.38 353.084H315.37Z" fill="#6E99C4"/>
<path d="M263.2 208.843C255.14 210.453 248.98 211.353 245.31 216.843C237.81 228.053 243.45 250.143 244.69 267.523C245.43 277.813 247.38 293.203 248.42 298.653C249.45 304.103 273.95 312.073 288.76 309.453C300.11 307.443 311.78 309.453 313 298.983C314.43 286.633 315.14 273.063 316.17 261.843C317.52 247.113 314.9 225.323 304.71 214.143C301.54 210.663 296.38 207.783 292 206.823C278.02 203.763 274.67 206.553 263.21 208.843H263.2Z" fill="#DE9681"/>
<path d="M258.48 195.474C258.48 195.474 260.56 206.233 258.95 211.563C257.34 216.903 266.03 218.684 271.36 217.794C276.69 216.904 286.22 214.654 284.95 208.194C283.64 201.494 281.42 202.223 278.72 184.933C276.58 171.253 254.86 182.244 258.48 195.474Z" fill="#DE9681"/>
<path d="M259.39 209.423C259.99 203.743 258.48 195.474 258.48 195.474C255.6 184.974 269.06 175.834 275.51 179.404C275.99 180.894 276.37 182.594 276.63 184.534C276.77 185.544 269.97 205.984 259.39 209.434V209.423Z" fill="#D48770"/>
<path d="M234.97 158.563C234.97 158.563 233.98 166.863 237.21 176.223L240.91 157.713L234.96 158.563H234.97Z" fill="#17254D"/>
<path d="M255.36 140.984C255.36 140.984 238.29 143.504 236.87 159.014C235.44 174.514 239.61 201.964 249.84 204.114C259.18 206.074 272.38 195.414 277.45 185.444C282.79 174.954 283.88 162.074 279.38 152.814C275.44 144.704 268.79 139.074 255.36 140.994V140.984Z" fill="#DE9681"/>
<path d="M253.39 175.204C253.39 176.434 254.15 177.414 255.07 177.414C255.99 177.414 256.73 176.404 256.72 175.184C256.72 173.954 255.96 172.974 255.04 172.974C254.12 172.974 253.38 173.984 253.39 175.204Z" fill="#121D3F"/>
<path d="M240.48 176.004C240.48 177.234 241.24 178.214 242.16 178.214C243.08 178.214 243.82 177.204 243.81 175.984C243.81 174.754 243.05 173.774 242.13 173.774C241.21 173.774 240.47 174.784 240.48 176.004Z" fill="#121D3F"/>
<path d="M255.1 191.114C255.59 191.094 255.8 191.724 255.4 192.004C254.26 192.824 252.37 193.904 250.18 194.114C247.4 194.384 245.56 193.164 244.62 192.294C244.3 191.994 244.5 191.454 244.94 191.444L255.09 191.114H255.1Z" fill="white"/>
<path d="M249.07 186.034C249.48 185.994 249.79 185.954 249.87 185.934C250.19 185.884 250.41 185.584 250.36 185.264C250.31 184.944 250.01 184.724 249.69 184.774C248.92 184.894 247.47 184.994 246.85 184.754C246.82 184.744 246.8 184.734 246.79 184.724C246.77 184.554 246.91 184.054 247.04 183.614L247.08 183.474C249.17 176.234 248.26 174.124 248.23 174.004C248.15 173.694 247.83 173.504 247.52 173.574C247.21 173.654 247.02 173.974 247.09 174.284C247.1 174.334 247.93 176.314 245.95 183.144L245.91 183.284C245.58 184.424 245.3 185.404 246.42 185.834C247.15 186.114 248.29 186.084 249.07 186.014V186.034Z" fill="#CC7A66"/>
<path d="M251.29 168.264C251.29 168.264 250.42 168.304 250.48 168.874C250.53 169.444 250.81 170.694 251.19 170.814C251.57 170.924 255.99 170.294 257.71 170.144C259.43 169.994 262.21 170.124 262.32 169.914C262.43 169.704 261.25 168.754 259.24 168.444C257.54 168.174 253.54 167.874 251.29 168.274V168.264Z" fill="#17254D"/>
<path d="M237.58 171.374C237.58 171.374 236.57 171.674 236.46 171.064C236.32 170.304 239.11 169.004 243.84 168.764C245.23 168.764 245.26 170.404 245 171.194C244.75 171.924 242.6 170.804 237.58 171.374Z" fill="#17254D"/>
<path d="M252.71 182.344C252.71 182.344 253.41 180.374 258.04 180.104C261.8 179.884 264.68 180.224 264.83 182.564C265.32 185.584 251.1 187.184 252.71 182.344Z" fill="#D48770"/>
<path d="M244.77 184.164C244.65 185.654 241.49 186.334 239.02 186.734C238.6 184.984 238.24 183.174 237.93 181.334C241.09 181.274 244.83 181.594 244.77 184.164Z" fill="#D48770"/>
<path d="M267.96 154.884C267.96 154.884 267.07 159.084 267.3 161.664C267.53 164.244 267.55 167.974 270.54 171.464C273.53 174.954 272.93 175.224 274.08 179.264C275.23 183.294 280.12 192.834 280.24 193.634C280.36 194.434 281.61 193.333 282.96 187.573C284.31 181.813 286.15 169.024 285.61 159.024C285.07 149.034 275 139.763 265.51 139.583C265.51 139.583 256.2 136.343 247.89 140.683C239.58 145.023 233.71 151.034 234.87 159.974L236.76 159.874C236.76 159.874 237.02 156.904 237.45 156.594C239.42 155.164 241.81 154.684 243.82 155.754C243.82 155.754 251.8 159.404 255.68 158.614C255.68 158.614 263.66 158.484 267.97 154.884H267.96Z" fill="#17254D"/>
<path d="M270.25 176.364C270.25 176.364 269.58 168.324 274.37 167.844C279.16 167.364 279.73 174.094 277.02 178.734C275.5 181.334 270.98 184.834 270.25 176.364Z" fill="#DE9681"/>
<path d="M276.24 173.334C275.29 173.254 274.48 173.664 273.89 174.104C274.15 173.204 274.66 172.374 275.61 171.954C275.85 171.844 275.96 171.554 275.85 171.314C275.74 171.074 275.46 170.964 275.21 171.074C271.83 172.584 272.75 177.614 272.79 177.834C272.84 178.094 273.09 178.264 273.36 178.214C273.63 178.154 273.79 177.904 273.75 177.644C273.75 177.624 273.59 176.764 273.64 175.704C273.64 175.704 273.66 175.694 273.67 175.684C273.68 175.674 274.79 174.184 276.16 174.304C276.43 174.324 276.66 174.134 276.69 173.864C276.71 173.594 276.52 173.364 276.25 173.334H276.24Z" fill="#CC7A66"/>
<path d="M284.01 204.713C284.01 204.713 267.73 217.623 263.07 216.203C259.52 215.123 259.28 211.783 259.35 210.243C259.37 209.763 259.38 209.423 259.38 209.423C259.38 209.423 251.97 210.003 248.21 211.323C244.45 212.643 242.13 214.233 242.13 214.233C242.13 214.233 239.09 227.663 238.56 239.483C238.03 251.303 239.41 280.763 239.32 290.153C239.24 299.543 236.67 306.673 235.34 308.443C234.01 310.213 229.25 310.713 229.25 310.713C229.25 310.713 230.91 313.963 243.4 320.103C255.89 326.243 275.89 328.643 288.2 329.653C300.51 330.663 317.99 327.893 317.99 327.893C317.99 327.893 316.75 303.093 317.42 292.403C318.08 281.713 318.86 250.213 317.01 238.653C315.16 227.093 310.85 216.233 306.55 212.543C298.74 205.843 284.01 204.713 284.01 204.713Z" fill="#E3EBFF"/>
<path d="M259.36 210.243C259.29 211.783 259.52 215.123 263.08 216.203C267.74 217.623 284.02 204.713 284.02 204.713C284.02 204.713 284.95 204.783 286.46 204.993C284.78 206.263 281.27 208.963 278.82 211.103C275.51 214.003 266.1 219.903 261.75 217.873C257.58 215.933 257.61 212.833 258.26 209.523C258.96 209.453 259.4 209.423 259.4 209.423C259.4 209.423 259.39 209.763 259.37 210.243H259.36Z" fill="#C9D5F2"/>
<path d="M229.26 310.713C229.26 310.713 234.02 310.213 235.35 308.443C236.68 306.673 239.24 299.543 239.33 290.153C239.41 281.173 238.15 253.823 238.51 241.123L240.58 243.243C240.58 243.243 246.59 243.823 246.52 245.833C246.45 247.853 249.38 250.243 248.88 251.563C248.39 252.883 247.75 255.013 247.75 255.013L250.65 258.323C250.65 258.323 270.74 232.133 279.93 226.473C289.12 220.823 307.27 240.443 307.27 240.443C307.27 240.443 295.66 268.083 287.94 278.153C280.21 288.223 274.58 294.883 276.07 299.123C277.56 303.363 286.08 304.443 286.36 310.933C286.64 317.413 283.98 320.953 281.56 322.663C279.83 323.883 289.31 327.733 298.4 329.633C294.99 329.843 291.48 329.893 288.23 329.633C275.92 328.623 255.91 326.223 243.43 320.083C230.94 313.943 229.28 310.693 229.28 310.693L229.26 310.713Z" fill="#C9D5F2"/>
<path d="M311.29 349.974C311.29 349.974 322.19 332.244 297.77 316.084C273.35 299.924 235.06 279.974 224.01 277.904C212.96 275.834 194.64 295.244 210.64 310.544C226.64 325.844 246.38 340.534 264.8 355.894C287.15 374.544 301.97 365.374 311.29 349.974Z" fill="#DE9681"/>
<path d="M309.98 360.694C309.98 360.694 297.3 373.714 279.17 366.634C261.04 359.564 243.87 344.834 220.01 324.864C200.02 308.124 188.66 300.204 195.06 283.744C201.46 267.284 215.43 267.364 220.92 269.724C226.42 272.084 273.62 298.514 285.92 305.354C298.22 312.194 312.29 323.784 315.97 336.394C320.14 350.694 309.98 360.694 309.98 360.694Z" fill="#87AFD9"/>
<path d="M202.93 218.804L219.88 221.254C221.1 221.434 222.15 220.384 221.99 219.164L217.19 183.814C217.08 182.994 216.43 182.344 215.61 182.224L198.11 179.694C197.52 179.614 197.02 180.104 197.1 180.694L202.17 218.034C202.22 218.424 202.53 218.734 202.93 218.794V218.804Z" fill="#0E1E3D"/>
<path d="M202.17 218.044L197.1 180.704C197.02 180.114 197.52 179.614 198.11 179.704L213.62 181.944C214.44 182.064 215.09 182.714 215.2 183.534L220 218.884C220.17 220.104 219.11 221.154 217.89 220.974L202.93 218.814C202.54 218.754 202.23 218.444 202.17 218.054V218.044Z" fill="#17254D"/>
<path d="M300.96 224.834C300.96 224.834 291.64 213.874 278.48 228.984C265.32 244.104 248.16 275.694 243.14 285.564C238.12 295.434 249.34 303.144 258.31 296.514C267.27 289.884 292.43 257.084 298.3 248.954C304.17 240.824 306.48 230.994 300.96 224.834Z" fill="#DE9681"/>
<path d="M301.58 219.834C301.58 219.834 311.94 225.294 307.26 240.454C302.58 255.614 261.25 298.184 254.21 301.434C247.17 304.684 235.78 298.544 237.53 289.094C239.28 279.644 257.64 256.204 267.95 238.784C279.2 219.764 290.54 213.184 301.58 219.834Z" fill="#E3EBFF"/>
<path d="M245.39 273.324C247.88 269.364 250.76 265.064 253.71 260.674C256.09 263.084 261.66 270.884 258.25 289.104L245.39 273.334V273.324Z" fill="#E3EBFF"/>
<path d="M254.08 298.954C254.08 298.954 246.42 302.004 240.17 295.564C231.73 286.864 217.85 235.274 216.93 228.224C216.01 221.164 223.96 219.824 226.75 223.544C229.54 227.274 253.62 271.464 255.82 279.264C258.02 287.064 258.9 296.324 254.08 298.954Z" fill="#DE9681"/>
<path d="M228.1 225.674C228.1 225.674 226.71 219.934 226.72 214.114C226.72 208.294 226.62 205.234 225.5 203.414C224.38 201.594 219.08 197.764 219.08 197.764L219.6 201.554C219.6 201.554 220.57 202.974 219.1 203.594C217.63 204.214 207.17 197.994 205.39 196.904C203.61 195.814 203.06 201.554 203.95 203.064C203.95 203.064 202.32 206.704 203.67 208.844C203.67 208.844 202.35 212.254 204.24 214.464C204.24 214.464 203.81 217.444 204.97 219.004C206.13 220.554 213.69 223.864 215.31 226.034C216.94 228.204 216.43 229.794 218.17 233.094C219.91 236.394 230.81 235.754 228.11 225.664L228.1 225.674Z" fill="#DE9681"/>
<path d="M203.97 203.024C206.09 204.144 208.46 205.504 210.61 206.554C211.42 206.904 212.31 207.164 213.12 207.594C213.17 207.614 213.16 207.694 213.11 207.694C210.93 208.034 209.78 207.534 208.1 206.204C206.71 205.244 205.24 204.144 203.92 203.104C203.87 203.064 203.92 202.984 203.98 203.014L203.97 203.024Z" fill="#CC7A66"/>
<path d="M203.68 208.804C205.51 209.304 207.28 210.104 209.06 210.684C210.15 210.994 211.18 211.294 212.26 211.774C212.31 211.794 212.3 211.864 212.26 211.874C209.93 212.444 208.57 211.694 206.66 210.544C205.68 210.004 204.61 209.434 203.64 208.894C203.59 208.864 203.62 208.774 203.68 208.794V208.804Z" fill="#CC7A66"/>
<path d="M204.25 214.424C206.5 214.934 208.73 215.674 210.98 216.154C211.3 216.194 211.64 216.214 212 216.244C212.03 216.244 212.05 216.274 212.05 216.304C210.75 217.544 209.32 216.954 207.93 216.254C206.71 215.724 205.39 215.124 204.21 214.524C204.16 214.494 204.19 214.414 204.25 214.424Z" fill="#CC7A66"/>
<path d="M212.16 219.424C212.24 217.964 212.4 217.524 213.19 216.444C214.56 215.074 212.88 213.744 213.75 212.034C215.79 210.504 213.46 209.164 214.83 207.874C217.15 207.524 217.5 204.644 217.53 203.344C218.24 203.594 218.77 203.704 219.04 203.614C221.1 204.904 224.66 207.314 225.71 209.184C226.01 209.724 226.35 210.414 226.69 211.184C226.7 212.084 226.71 213.044 226.71 214.124C226.71 216.534 226.94 218.914 227.22 220.894C225.19 227.654 215.71 226.674 215.29 226.044C214.59 225.104 212.78 223.954 210.85 222.824C212.34 221.604 212.06 220.884 212.15 219.424H212.16Z" fill="#D48770"/>
<path d="M242.31 249.904C242.31 249.904 252.87 266.904 255.1 274.004C257.33 281.104 263.54 296.074 254.2 301.434C244.86 306.794 238.64 297.714 236.41 293.564C234.17 289.414 225.51 263.254 224.57 259.084C224.57 259.084 237.07 256.434 242.31 249.914V249.904Z" fill="#E3EBFF"/>
<path d="M245.41 255.034C243.62 252.004 242.32 249.904 242.32 249.904C237.07 256.424 224.58 259.074 224.58 259.074C224.77 259.914 225.27 261.644 225.97 263.894C229.96 263.194 239.44 260.984 245.42 255.034H245.41Z" fill="#B7C5E8"/>
<path d="M240.07 247.234C240.07 247.234 241.48 246.304 242.36 246.604C243.24 246.904 244.06 249.214 244.74 249.664C245.42 250.114 246.1 252.044 244.96 253.744C243.82 255.444 229.3 262.444 225.31 261.944C221.32 261.434 223.05 259.444 222.62 258.474C222.19 257.494 221.49 254.274 223.67 254.554C225.85 254.834 232.38 252.714 240.07 247.234Z" fill="#E3EBFF"/>
<path d="M199.78 277.463C199.78 277.463 144.15 363.453 141.78 369.543C139.4 375.633 145.11 383.753 153.87 376.683C162.64 369.603 187.02 342.133 195.96 333.193C214.63 314.503 222.65 299.933 225.12 291.073C228.13 280.263 215.7 257.093 199.78 277.463Z" fill="#DE9681"/>
<path d="M158.05 371.613C158.53 370.803 158.86 369.883 158.98 368.893C159.43 365.113 156.73 361.683 152.96 361.233C151.32 361.033 149.74 361.433 148.44 362.263C148.44 362.263 130.34 369.523 120.72 372.183C111.1 374.843 107.6 375.993 106.43 378.323C105.26 380.653 113.18 388.013 120.07 388.503C126.96 388.993 134.08 386.303 140.24 387.273C146.4 388.233 154.35 386.973 156.4 383.853C158.45 380.733 158.22 375.243 158.05 371.623V371.613Z" fill="#DE9681"/>
<path d="M147.5 357.483L145.35 362.373C144.08 362.883 129.78 369.013 120.54 371.573C110.7 374.293 107.14 375.473 105.85 378.033C105.51 378.713 105.64 379.603 106.25 380.683C108.05 383.863 114.31 388.733 120.01 389.133C123.33 389.363 126.69 388.883 129.94 388.413C133.56 387.893 136.97 387.403 140.13 387.893C142.73 388.293 145.66 388.323 148.36 387.973C152.21 387.473 155.6 386.213 156.92 384.203C159.07 380.943 160.32 376.433 160.15 372.743C162.87 369.493 164.73 366.093 164.73 366.093L147.5 357.493V357.483Z" fill="white"/>
<path d="M227.18 299.483C227.18 299.483 197.69 344.563 167.81 373.213C167.81 373.213 147.4 369.423 139.62 355.163C139.62 355.163 194.33 282.283 203.12 272.373C211.92 262.453 223.56 270.523 226.28 274.753C229 278.983 233.91 289.393 227.18 299.493V299.483Z" fill="#87AFD9"/>
</svg>
