<svg width="24" height="24" viewBox="0 0 24 24" fill="none" xmlns="http://www.w3.org/2000/svg">
<path fill-rule="evenodd" clip-rule="evenodd" d="M11.6206 2.00706C11.7465 2.00237 11.873 2 12 2C12.127 2 12.2535 2.00237 12.3794 2.00706C12.4959 1.99298 12.6135 1.99971 12.7265 2.02599C17.9102 2.39815 22 6.72146 22 12C22 17.2785 17.9102 21.6019 12.7265 21.974C12.6135 22.0003 12.4959 22.007 12.3794 21.9929C12.2535 21.9976 12.127 22 12 22C11.873 22 11.7465 21.9976 11.6206 21.9929C11.504 22.007 11.3865 22.0003 11.2735 21.974C6.08979 21.6018 2 17.2785 2 12C2 6.72147 6.08979 2.39817 11.2735 2.02599C11.3865 1.99971 11.504 1.99298 11.6206 2.00706ZM14.3753 19.6415C16.3116 19.0402 17.9329 17.7233 18.9297 16H15.6277C15.3421 17.2534 14.9225 18.4743 14.3753 19.6415ZM13.5697 16C13.2202 17.3536 12.6937 18.6602 12 19.885C11.3063 18.6602 10.7797 17.3536 10.4302 16H13.5697ZM15.9663 14H19.748C19.9125 13.3608 20 12.6906 20 12C20 11.3094 19.9125 10.6392 19.748 10H15.9663C16.0404 10.662 16.0778 11.3297 16.0778 12C16.0778 12.6703 16.0404 13.338 15.9663 14ZM13.9523 10C14.0356 10.6611 14.0778 11.3291 14.0778 12C14.0778 12.6709 14.0356 13.3389 13.9523 14H10.0477C9.96437 13.3389 9.92218 12.6709 9.92218 12C9.92218 11.3291 9.96437 10.6611 10.0477 10H13.9523ZM15.6277 8H18.9297C17.9329 6.27669 16.3116 4.95975 14.3753 4.35852C14.9225 5.52565 15.3421 6.74663 15.6277 8ZM13.5697 8H10.4302C10.7797 6.64643 11.3063 5.33979 12 4.11504C12.6937 5.33979 13.2202 6.64643 13.5697 8ZM9.62469 4.35853C7.68839 4.95976 6.06714 6.2767 5.07026 8H8.37225C8.65792 6.74663 9.07745 5.52566 9.62469 4.35853ZM8.03363 10H4.25203C4.08751 10.6392 4 11.3094 4 12C4 12.6906 4.08751 13.3608 4.25204 14H8.03363C7.95961 13.338 7.92218 12.6703 7.92218 12C7.92218 11.3297 7.95961 10.662 8.03363 10ZM8.37225 16C8.65792 17.2534 9.07746 18.4743 9.62469 19.6415C7.68839 19.0402 6.06714 17.7233 5.07026 16H8.37225Z" fill="#1E1F24"/>
</svg>
