<svg width="367" height="51" viewBox="0 0 367 51" fill="none" xmlns="http://www.w3.org/2000/svg">
<mask id="mask0_25_224" style="mask-type:luminance" maskUnits="userSpaceOnUse" x="5" y="4" width="80" height="42">
<path d="M5.92145 4.78125H84.1128V45.8535H5.92145V4.78125Z" fill="white"/>
</mask>
<g mask="url(#mask0_25_224)">
<mask id="mask1_25_224" style="mask-type:luminance" maskUnits="userSpaceOnUse" x="5" y="4" width="80" height="42">
<path d="M8.70581 4.78125H81.2584C81.9975 4.78125 82.7047 5.08672 83.2272 5.63125C83.7497 6.17578 84.0428 6.91953 84.0428 7.68984V42.9449C84.0428 43.7152 83.7497 44.4523 83.2272 44.9969C82.7047 45.5414 81.9975 45.8535 81.2584 45.8535H8.70581C7.96671 45.8535 7.25947 45.5414 6.737 44.9969C6.21454 44.4523 5.92145 43.7152 5.92145 42.9449V7.68984C5.92145 6.91953 6.21454 6.17578 6.737 5.63125C7.25947 5.08672 7.96671 4.78125 8.70581 4.78125Z" fill="white"/>
</mask>
<g mask="url(#mask1_25_224)">
<path d="M5.92145 4.78125H84.1128V45.8535H5.92145V4.78125Z" fill="#0030D0"/>
</g>
</g>
<path d="M96.575 38.4011H91.6052V13.5652H105.266V17.8683H96.575V24.2698H104.654V28.573H96.575V38.4011Z" fill="#0030D0"/>
<path d="M125.399 38.4011L123.666 32.4777H114.975L113.268 38.4011H107.814L116.224 13.4589H122.392L130.853 38.4011H125.399ZM122.468 28.0683C120.869 22.7226 119.971 19.6945 119.767 18.9839C119.563 18.28 119.416 17.7222 119.333 17.3105C118.977 18.7648 117.944 22.3507 116.25 28.0683H122.468Z" fill="#0030D0"/>
<path d="M148.814 31.4949C148.814 33.746 148.031 35.5191 146.47 36.8074C144.921 38.1023 142.774 38.7464 140.022 38.7464C137.473 38.7464 135.218 38.255 133.268 37.2589V32.3449C134.88 33.1085 136.237 33.6398 137.346 33.9386C138.467 34.2441 139.486 34.3902 140.404 34.3902C141.525 34.3902 142.373 34.171 142.953 33.7261C143.545 33.2878 143.845 32.6304 143.845 31.7605C143.845 31.2691 143.717 30.8308 143.462 30.4589C143.207 30.087 142.825 29.7284 142.315 29.3699C141.806 29.0179 140.773 28.4534 139.232 27.6699C137.766 26.9659 136.67 26.282 135.944 25.6245C135.211 24.9738 134.625 24.2101 134.185 23.3402C133.758 22.457 133.548 21.4277 133.548 20.2589C133.548 18.0675 134.262 16.3409 135.689 15.0792C137.116 13.8242 139.091 13.1933 141.627 13.1933C142.863 13.1933 144.048 13.3527 145.17 13.6714C146.291 13.9769 147.464 14.4019 148.687 14.9464L147.056 19.037C145.782 18.5058 144.724 18.1339 143.896 17.9214C143.08 17.6956 142.264 17.5761 141.449 17.5761C140.493 17.5761 139.767 17.8152 139.257 18.2933C138.747 18.7581 138.492 19.3558 138.492 20.0995C138.492 20.5644 138.594 20.9695 138.798 21.3214C139.002 21.6601 139.321 21.9988 139.767 22.3308C140.226 22.6495 141.296 23.2273 142.978 24.0574C145.202 25.173 146.731 26.2886 147.566 27.4042C148.394 28.5199 148.814 29.8878 148.814 31.4949Z" fill="#0030D0"/>
<path d="M163.202 38.4011H158.156V17.948H151.682V13.5652H169.676V17.948H163.202V38.4011Z" fill="#0030D0"/>
<path d="M173.157 35.9839C173.157 35.0277 173.393 34.3105 173.871 33.8324C174.362 33.3409 175.075 33.0886 176.012 33.0886C176.929 33.0886 177.63 33.3409 178.127 33.8324C178.618 34.3304 178.866 35.0476 178.866 35.9839C178.866 36.8738 178.611 37.571 178.102 38.0823C177.605 38.5937 176.91 38.8527 176.012 38.8527C175.107 38.8527 174.406 38.6003 173.896 38.1089C173.399 37.5976 173.157 36.887 173.157 35.9839Z" fill="#0030D0"/>
<path d="M198.23 38.4011H184.952V13.5652H198.23V16.1152H187.705V24.137H197.593V26.687H187.705V35.8245H198.23V38.4011Z" fill="#0030D0"/>
<path d="M220.265 38.4011H217.105L210.708 27.4839L204.183 38.4011H201.252L209.178 25.412L201.787 13.5652H204.846L210.784 23.3933L216.748 13.5652H219.704L212.313 25.3058L220.265 38.4011Z" fill="#0030D0"/>
<path d="M234.768 15.7964C232.149 15.7964 230.079 16.7128 228.549 18.5324C227.033 20.3386 226.281 22.8222 226.281 25.9699C226.281 29.2304 227.007 31.7472 228.473 33.5136C229.932 35.2866 232.022 36.1699 234.742 36.1699C236.405 36.1699 238.298 35.8644 240.426 35.2402V37.7636C238.776 38.4144 236.737 38.7464 234.309 38.7464C230.792 38.7464 228.078 37.6441 226.179 35.4261C224.274 33.1949 223.325 30.0339 223.325 25.9433C223.325 23.3933 223.783 21.1554 224.701 19.223C225.618 17.2972 226.944 15.8097 228.677 14.7605C230.41 13.7179 232.449 13.1933 234.793 13.1933C237.291 13.1933 239.47 13.6714 241.343 14.6277L240.171 17.1245C238.368 16.2413 236.565 15.7964 234.768 15.7964Z" fill="#0030D0"/>
<path d="M264.622 38.4011H261.844V26.7136H249.279V38.4011H246.527V13.5652H249.279V24.137H261.844V13.5652H264.622V38.4011Z" fill="#0030D0"/>
<path d="M287.009 38.4011L284.053 30.512H274.495L271.564 38.4011H268.761L278.191 13.4589H280.51L289.889 38.4011H287.009ZM283.186 27.9089L280.408 20.2058C280.051 19.2363 279.682 18.0409 279.312 16.6199C279.07 17.7023 278.732 18.8976 278.293 20.2058L275.489 27.9089H283.186Z" fill="#0030D0"/>
<path d="M312.672 38.4011H309.512L296.488 17.5495H296.361C296.526 19.9933 296.616 22.2378 296.616 24.2698V38.4011H294.067V13.5652H297.176L310.174 34.3105H310.302C310.283 34.0116 310.232 33.0355 310.149 31.3886C310.079 29.7284 310.053 28.5331 310.072 27.8027V13.5652H312.672V38.4011Z" fill="#0030D0"/>
<path d="M330.601 25.3855H338.706V37.4714C337.444 37.8831 336.164 38.1886 334.857 38.4011C333.545 38.6269 332.035 38.7464 330.321 38.7464C326.715 38.7464 323.905 37.6308 321.885 35.3995C319.878 33.155 318.878 30.0074 318.878 25.9699C318.878 23.4066 319.368 21.1488 320.356 19.1964C321.356 17.2507 322.79 15.7632 324.663 14.7339C326.53 13.7113 328.722 13.1933 331.238 13.1933C333.768 13.1933 336.138 13.6847 338.349 14.6542L337.253 17.2042C335.112 16.2679 333.048 15.7964 331.06 15.7964C328.155 15.7964 325.886 16.6995 324.255 18.5058C322.624 20.2988 321.809 22.7824 321.809 25.9699C321.809 29.3366 322.586 31.8867 324.153 33.6199C325.733 35.3398 328.04 36.1964 331.086 36.1964C332.729 36.1964 334.348 36.0038 335.928 35.612V27.962H330.601V25.3855Z" fill="#0030D0"/>
<path d="M358.601 38.4011H345.322V13.5652H358.601V16.1152H348.075V24.137H357.963V26.687H348.075V35.8245H358.601V38.4011Z" fill="#0030D0"/>
<path d="M19.7252 25.3398H21.3818C22.9428 25.3398 24.1088 25.021 24.8734 24.3835C25.6507 23.746 26.0458 22.8164 26.0458 21.5945C26.0458 20.3593 25.7144 19.4429 25.0518 18.8585C24.4019 18.2609 23.3952 17.9554 22.019 17.9554H19.7252V25.3398ZM31.143 21.4085C31.143 24.0648 30.3338 26.1035 28.7218 27.5179C27.1225 28.939 24.8479 29.6429 21.8915 29.6429H19.7252V38.4882H14.679V13.6523H22.2738C25.1792 13.6523 27.3774 14.3031 28.8747 15.5914C30.3848 16.8863 31.143 18.8253 31.143 21.4085Z" fill="white"/>
<path d="M51.1126 38.4882L49.3795 32.5648H40.6888L38.9812 38.4882H33.5272L41.9376 13.546H48.1052L56.5666 38.4882H51.1126ZM48.1817 28.1554C46.5824 22.8097 45.684 19.7816 45.4801 19.071C45.2763 18.3671 45.1297 17.8093 45.0469 17.3976C44.6901 18.8519 43.6579 22.4378 41.9631 28.1554H48.1817Z" fill="white"/>
<path d="M67.8759 23.8789L72.8457 13.6523H78.2742L70.3735 28.8195V38.4882H65.3528V28.9789L57.4521 13.6523H62.9316L67.8759 23.8789Z" fill="white"/>
</svg>
