<svg width="438" height="123" viewBox="0 0 438 123" fill="none" xmlns="http://www.w3.org/2000/svg">
<path d="M1 37.5L63.5 31.5L109.5 18L149.5 4.5L156.5 2L163.5 1L169 1.5L172.5 2.5L174.5 4.5L179 12.5L181 19L183.5 24L187 29.5L193 35.5L197 38.5L203 43L209.5 46.5L218 50L227.5 52L236 53L243.5 54L252.5 55L262.5 55.5H275L284.5 54L295.5 53L306 52L315 51.5L328.5 51L338.5 49.5L350 48L361 46.5L372 45.5L382.5 44.5L394 43.5L405.5 43L415 43.5L426.5 46L431.5 48L434.5 51L436.5 54.5L437 58V63.3262L434.5 66.5L431.5 70L427 73.5L422 76L414 79.5L407.5 81.5L399.5 83.5L392 85L386 87L380.5 88.5L371.5 90.5L362 91.5L354.5 93L346 93.5L338 95L329 96H319.5L307.5 97.5L302 98.5L265.5 101.5L213.5 105.5L157 109L143.5 111L129.5 112.5L117.5 115L104.5 116.5L98 119.5L90.5 122" stroke="#CEC7C2" stroke-width="2" stroke-dasharray="6 4"/>
</svg>
