<svg width="539" height="34" viewBox="0 0 539 34" fill="none" xmlns="http://www.w3.org/2000/svg">
<rect x="52" y="13.5" width="98.0907" height="6" rx="3" fill="#0030D0"/>
<rect x="220.09" y="13.5" width="98.0907" height="6" rx="3" fill="#0030D0"/>
<rect x="388.18" y="13.5" width="98.0907" height="6" rx="3" fill="#0030D0"/>
<circle cx="17" cy="17" r="17" fill="#0030D0"/>
<path d="M16.288 22V12.72L14.48 13.136V11.888L16.96 10.8H18.048V22H16.288Z" fill="white"/>
<circle cx="185.09" cy="17" r="17" fill="#0030D0"/>
<path d="M182.002 22V20.784C182.727 20.208 183.421 19.6267 184.082 19.04C184.743 18.4533 185.33 17.8773 185.842 17.312C186.365 16.736 186.775 16.176 187.074 15.632C187.373 15.0773 187.522 14.544 187.522 14.032C187.522 13.6907 187.463 13.3707 187.346 13.072C187.229 12.7627 187.037 12.5173 186.77 12.336C186.503 12.144 186.146 12.048 185.698 12.048C185.026 12.048 184.519 12.2613 184.178 12.688C183.847 13.1147 183.687 13.6267 183.698 14.224H182.05C182.061 13.4347 182.226 12.7733 182.546 12.24C182.877 11.7067 183.314 11.3013 183.858 11.024C184.413 10.7467 185.037 10.608 185.73 10.608C186.786 10.608 187.629 10.9067 188.258 11.504C188.898 12.0907 189.218 12.912 189.218 13.968C189.218 14.5973 189.063 15.2213 188.754 15.84C188.455 16.4587 188.061 17.056 187.57 17.632C187.09 18.1973 186.573 18.7307 186.018 19.232C185.463 19.7333 184.935 20.1867 184.434 20.592H189.554V22H182.002Z" fill="white"/>
<circle cx="353.18" cy="17" r="17" fill="#0030D0"/>
<path d="M352.9 22.192C352.174 22.192 351.513 22.064 350.916 21.808C350.329 21.5413 349.86 21.1413 349.508 20.608C349.156 20.0747 348.969 19.408 348.948 18.608H350.628C350.649 19.2053 350.852 19.712 351.236 20.128C351.63 20.5333 352.185 20.736 352.9 20.736C353.582 20.736 354.105 20.5493 354.468 20.176C354.83 19.792 355.012 19.3173 355.012 18.752C355.012 18.0693 354.766 17.5627 354.276 17.232C353.796 16.9013 353.204 16.736 352.5 16.736H351.668V15.328H352.516C353.145 15.328 353.652 15.1787 354.036 14.88C354.43 14.5813 354.628 14.16 354.628 13.616C354.628 13.1573 354.473 12.784 354.164 12.496C353.865 12.208 353.438 12.064 352.884 12.064C352.308 12.064 351.854 12.2347 351.524 12.576C351.193 12.9067 351.012 13.3227 350.98 13.824H349.3C349.321 13.1733 349.481 12.608 349.78 12.128C350.089 11.648 350.51 11.2747 351.044 11.008C351.577 10.7413 352.19 10.608 352.884 10.608C353.63 10.608 354.254 10.7413 354.756 11.008C355.268 11.264 355.652 11.616 355.908 12.064C356.174 12.5013 356.308 12.9813 356.308 13.504C356.308 14.1013 356.142 14.624 355.812 15.072C355.481 15.52 355.038 15.8187 354.484 15.968C355.124 16.1067 355.652 16.4213 356.068 16.912C356.484 17.392 356.692 18.016 356.692 18.784C356.692 19.4027 356.548 19.9733 356.26 20.496C355.972 21.008 355.545 21.4187 354.98 21.728C354.414 22.0373 353.721 22.192 352.9 22.192Z" fill="white"/>
<circle cx="521.27" cy="17" r="17" fill="#0030D0"/>
<path d="M522.51 22V19.76H516.894V18.416L522.238 10.8H524.19V18.288H525.758V19.76H524.19V22H522.51ZM518.734 18.288H522.606V12.672L518.734 18.288Z" fill="white"/>
</svg>
