<svg width="539" height="34" viewBox="0 0 539 34" fill="none" xmlns="http://www.w3.org/2000/svg">
<rect x="52" y="13.5" width="98.0907" height="6" rx="3" fill="#0030D0"/>
<rect x="220.09" y="13.5" width="98.0907" height="6" rx="3" fill="#0030D0"/>
<rect x="388.18" y="13.5" width="98.0907" height="6" rx="3" fill="#EFF0F7"/>
<circle cx="17" cy="17" r="17" fill="#0030D0"/>
<path d="M16.288 22.5273V13.2473L14.48 13.6633V12.4153L16.96 11.3273H18.048V22.5273H16.288Z" fill="white"/>
<circle cx="185.09" cy="17" r="17" fill="#0030D0"/>
<path d="M182.002 22.5273V21.3113C182.727 20.7353 183.421 20.154 184.082 19.5673C184.743 18.9807 185.33 18.4047 185.842 17.8393C186.365 17.2633 186.775 16.7033 187.074 16.1593C187.373 15.6047 187.522 15.0713 187.522 14.5593C187.522 14.218 187.463 13.898 187.346 13.5993C187.229 13.29 187.037 13.0447 186.77 12.8633C186.503 12.6713 186.146 12.5753 185.698 12.5753C185.026 12.5753 184.519 12.7887 184.178 13.2153C183.847 13.642 183.687 14.154 183.698 14.7513H182.05C182.061 13.962 182.226 13.3007 182.546 12.7673C182.877 12.234 183.314 11.8287 183.858 11.5513C184.413 11.274 185.037 11.1353 185.73 11.1353C186.786 11.1353 187.629 11.434 188.258 12.0313C188.898 12.618 189.218 13.4393 189.218 14.4953C189.218 15.1247 189.063 15.7487 188.754 16.3673C188.455 16.986 188.061 17.5833 187.57 18.1593C187.09 18.7247 186.573 19.258 186.018 19.7593C185.463 20.2607 184.935 20.714 184.434 21.1193H189.554V22.5273H182.002Z" fill="white"/>
<circle cx="353.18" cy="17" r="17" fill="#0030D0"/>
<path d="M352.9 22.7193C352.174 22.7193 351.513 22.5913 350.916 22.3353C350.329 22.0687 349.86 21.6687 349.508 21.1353C349.156 20.602 348.969 19.9353 348.948 19.1353H350.628C350.649 19.7327 350.852 20.2393 351.236 20.6553C351.63 21.0607 352.185 21.2633 352.9 21.2633C353.582 21.2633 354.105 21.0767 354.468 20.7033C354.83 20.3193 355.012 19.8447 355.012 19.2793C355.012 18.5967 354.766 18.09 354.276 17.7593C353.796 17.4287 353.204 17.2633 352.5 17.2633H351.668V15.8553H352.516C353.145 15.8553 353.652 15.706 354.036 15.4073C354.43 15.1087 354.628 14.6873 354.628 14.1433C354.628 13.6847 354.473 13.3113 354.164 13.0233C353.865 12.7353 353.438 12.5913 352.884 12.5913C352.308 12.5913 351.854 12.762 351.524 13.1033C351.193 13.434 351.012 13.85 350.98 14.3513H349.3C349.321 13.7007 349.481 13.1353 349.78 12.6553C350.089 12.1753 350.51 11.802 351.044 11.5353C351.577 11.2687 352.19 11.1353 352.884 11.1353C353.63 11.1353 354.254 11.2687 354.756 11.5353C355.268 11.7913 355.652 12.1433 355.908 12.5913C356.174 13.0287 356.308 13.5087 356.308 14.0313C356.308 14.6287 356.142 15.1513 355.812 15.5993C355.481 16.0473 355.038 16.346 354.484 16.4953C355.124 16.634 355.652 16.9487 356.068 17.4393C356.484 17.9193 356.692 18.5433 356.692 19.3113C356.692 19.93 356.548 20.5007 356.26 21.0233C355.972 21.5353 355.545 21.946 354.98 22.2553C354.414 22.5647 353.721 22.7193 352.9 22.7193Z" fill="white"/>
<circle cx="521.27" cy="17" r="17" fill="#EFF0F7"/>
<path d="M522.526 22.5273V20.1273H516.846V19.0873L522.286 11.3273H523.854V18.9433H525.518V20.1273H523.854V22.5273H522.526ZM518.334 18.9433H522.59V12.8153L518.334 18.9433Z" fill="#6F6C90"/>
<rect x="388.18" y="13.5" width="49.045" height="6" rx="3" fill="#0030D0"/>
</svg>
