<svg width="539" height="34" viewBox="0 0 539 34" fill="none" xmlns="http://www.w3.org/2000/svg">
<rect x="52" y="13.5" width="98.0907" height="6" rx="3" fill="#0030D0"/>
<rect x="220.09" y="13.5" width="98.0907" height="6" rx="3" fill="#EFF0F7"/>
<rect x="220.09" y="13.5" width="49.045" height="6" rx="3" fill="#0030D0"/>
<rect x="388.18" y="13.5" width="98.0907" height="6" rx="3" fill="#EFF0F7"/>
<circle cx="17" cy="17" r="17" fill="#0030D0"/>
<path d="M16.288 22V12.72L14.48 13.136V11.888L16.96 10.8H18.048V22H16.288Z" fill="white"/>
<circle cx="185.09" cy="17" r="17" fill="#0030D0"/>
<path d="M182.002 22V20.784C182.727 20.208 183.421 19.6267 184.082 19.04C184.743 18.4533 185.33 17.8773 185.842 17.312C186.365 16.736 186.775 16.176 187.074 15.632C187.373 15.0773 187.522 14.544 187.522 14.032C187.522 13.6907 187.463 13.3707 187.346 13.072C187.229 12.7627 187.037 12.5173 186.77 12.336C186.503 12.144 186.146 12.048 185.698 12.048C185.026 12.048 184.519 12.2613 184.178 12.688C183.847 13.1147 183.687 13.6267 183.698 14.224H182.05C182.061 13.4347 182.226 12.7733 182.546 12.24C182.877 11.7067 183.314 11.3013 183.858 11.024C184.413 10.7467 185.037 10.608 185.73 10.608C186.786 10.608 187.629 10.9067 188.258 11.504C188.898 12.0907 189.218 12.912 189.218 13.968C189.218 14.5973 189.063 15.2213 188.754 15.84C188.455 16.4587 188.061 17.056 187.57 17.632C187.09 18.1973 186.573 18.7307 186.018 19.232C185.463 19.7333 184.935 20.1867 184.434 20.592H189.554V22H182.002Z" fill="white"/>
<circle cx="353.18" cy="17" r="17" fill="#EFF0F7"/>
<path d="M352.852 23.192C352.137 23.192 351.492 23.064 350.916 22.808C350.34 22.5413 349.876 22.1467 349.524 21.624C349.182 21.1013 349.001 20.4507 348.98 19.672H350.34C350.35 20.312 350.574 20.8667 351.012 21.336C351.449 21.7947 352.062 22.024 352.852 22.024C353.641 22.024 354.233 21.8053 354.628 21.368C355.033 20.9307 355.236 20.4027 355.236 19.784C355.236 19.2613 355.108 18.8347 354.852 18.504C354.606 18.1733 354.27 17.928 353.844 17.768C353.428 17.608 352.969 17.528 352.468 17.528H351.636V16.392H352.468C353.193 16.392 353.758 16.2267 354.164 15.896C354.58 15.5653 354.788 15.1013 354.788 14.504C354.788 14.0027 354.622 13.592 354.292 13.272C353.972 12.9413 353.492 12.776 352.852 12.776C352.233 12.776 351.737 12.9627 351.364 13.336C350.99 13.6987 350.782 14.1573 350.74 14.712H349.38C349.412 14.104 349.572 13.5653 349.86 13.096C350.158 12.6267 350.564 12.264 351.076 12.008C351.588 11.7413 352.18 11.608 352.852 11.608C353.577 11.608 354.18 11.736 354.66 11.992C355.15 12.248 355.518 12.5893 355.764 13.016C356.02 13.4427 356.148 13.912 356.148 14.424C356.148 14.9893 355.993 15.5067 355.684 15.976C355.374 16.4347 354.91 16.744 354.292 16.904C354.953 17.0427 355.502 17.3573 355.94 17.848C356.377 18.3387 356.596 18.984 356.596 19.784C356.596 20.4027 356.452 20.9733 356.164 21.496C355.886 22.008 355.47 22.4187 354.916 22.728C354.361 23.0373 353.673 23.192 352.852 23.192Z" fill="#6F6C90"/>
<circle cx="521.27" cy="17" r="17" fill="#EFF0F7"/>
<path d="M522.526 23V20.6H516.846V19.56L522.286 11.8H523.854V19.416H525.518V20.6H523.854V23H522.526ZM518.334 19.416H522.59V13.288L518.334 19.416Z" fill="#6F6C90"/>
</svg>
