<svg width="32" height="32" viewBox="0 0 32 32" fill="none" xmlns="http://www.w3.org/2000/svg">
<g clip-path="url(#clip0_313_350)">
<path d="M15.7161 14.7663C15.7161 14.6764 15.7395 14.6087 15.789 14.5632C15.8372 14.515 15.9088 14.4902 16.0025 14.4902C16.0924 14.4902 16.1614 14.515 16.2109 14.5632C16.259 14.6126 16.2838 14.6803 16.2838 14.7663C16.2838 14.8535 16.2577 14.9212 16.2056 14.9694C16.1562 15.0176 16.0885 15.0423 16.0025 15.0423C15.9088 15.0423 15.8372 15.0189 15.789 14.9746C15.7395 14.9264 15.7161 14.8574 15.7161 14.7663Z" fill="black"/>
<path d="M15.9857 0.105469C9.1875 0.105469 3.375 4.39583 1.10156 10.4128L15.9948 12.0065L30.8685 10.4128C28.5964 4.39583 22.7839 0.105469 15.9857 0.105469Z" fill="#F1F1F1"/>
<path d="M15.9857 31.9479C22.7839 31.9479 28.5964 27.6576 30.8698 21.6406L15.9857 20.5781L1.10156 21.6406C3.375 27.6562 9.1875 31.9479 15.9857 31.9479Z" fill="#E90000"/>
<path d="M31.0534 10.9316C30.9935 10.7572 30.9336 10.584 30.8685 10.4121H1.10156C-0.253906 13.9069 -0.253906 18.1452 1.10156 21.64H30.8685C32.1549 18.3275 32.2292 14.2871 31.0534 10.9316Z" fill="#0000D2"/>
</g>
<defs>
<clipPath id="clip0_313_350">
<rect width="32" height="32" fill="white"/>
</clipPath>
</defs>
</svg>
