<svg width="52" height="53" viewBox="0 0 52 53" fill="none" xmlns="http://www.w3.org/2000/svg">
<g clip-path="url(#clip0_332_486)">
<mask id="mask0_332_486" style="mask-type:luminance" maskUnits="userSpaceOnUse" x="4" y="11" width="8" height="31">
<path d="M4.99414 11.3066H11.7866V41.6933H4.99414V11.3066Z" fill="white"/>
</mask>
<g mask="url(#mask0_332_486)">
<path d="M4.99414 11.541L11.2775 23.0105V30.0054L4.99956 41.4501L4.99414 11.541Z" fill="#5B57A2"/>
</g>
<mask id="mask1_332_486" style="mask-type:luminance" maskUnits="userSpaceOnUse" x="29" y="14" width="19" height="13">
<path d="M29.1201 14.8398H47.1143V26.8532H29.1201V14.8398Z" fill="white"/>
</mask>
<g mask="url(#mask1_332_486)">
<path d="M29.1201 18.8368L35.008 15.1517L47.0601 15.1406L29.1201 26.3617V18.8368Z" fill="#D90751"/>
</g>
<path d="M29.0876 11.4746L29.1201 26.6569L22.8232 22.7067V0.0078125L29.0876 11.4746Z" fill="#FAB718"/>
<mask id="mask2_332_486" style="mask-type:luminance" maskUnits="userSpaceOnUse" x="22" y="0" width="26" height="16">
<path d="M22.1868 0H47.1143V15.5467H22.1868V0Z" fill="white"/>
</mask>
<g mask="url(#mask2_332_486)">
<path d="M47.0601 15.1404L35.008 15.1515L29.0876 11.4746L22.8232 0.0078125L47.0601 15.1404Z" fill="#ED6F26"/>
</g>
<path d="M29.1201 41.5147V34.1499L22.8232 30.2715L22.826 52.9925L29.1201 41.5147Z" fill="#63B22F"/>
<mask id="mask3_332_486" style="mask-type:luminance" maskUnits="userSpaceOnUse" x="4" y="11" width="44" height="28">
<path d="M4.99414 11.3066H47.1141V38.16H4.99414V11.3066Z" fill="white"/>
</mask>
<g mask="url(#mask3_332_486)">
<path d="M34.9943 37.8616L11.2775 23.0105L4.99414 11.541L47.0329 37.8478L34.9943 37.8616Z" fill="#1487C9"/>
</g>
<mask id="mask4_332_486" style="mask-type:luminance" maskUnits="userSpaceOnUse" x="22" y="37" width="26" height="16">
<path d="M22.1868 37.4531H47.1143V52.9998H22.1868V37.4531Z" fill="white"/>
</mask>
<g mask="url(#mask4_332_486)">
<path d="M22.8259 52.9913L29.1201 41.5135L34.9945 37.8615L47.033 37.8477L22.8259 52.9913Z" fill="#017F36"/>
</g>
<mask id="mask5_332_486" style="mask-type:luminance" maskUnits="userSpaceOnUse" x="4" y="26" width="19" height="16">
<path d="M4.99414 26.1465H22.88V41.6932H4.99414V26.1465Z" fill="white"/>
</mask>
<g mask="url(#mask5_332_486)">
<path d="M4.99976 41.4499L22.8748 30.2703L16.865 26.5078L11.2777 30.0053L4.99976 41.4499Z" fill="#984995"/>
</g>
</g>
<defs>
<clipPath id="clip0_332_486">
<rect width="52" height="53" fill="white"/>
</clipPath>
</defs>
</svg>
