<svg width="80" height="80" viewBox="0 0 80 80" fill="none" xmlns="http://www.w3.org/2000/svg">
<path d="M43.3457 41.3385C43.3457 41.1139 43.4043 40.9447 43.528 40.8307C43.6484 40.7103 43.8275 40.6484 44.0618 40.6484C44.2865 40.6484 44.459 40.7103 44.5827 40.8307C44.7031 40.9544 44.765 41.1237 44.765 41.3385C44.765 41.5566 44.6999 41.7259 44.5697 41.8464C44.446 41.9668 44.2767 42.0286 44.0618 42.0286C43.8275 42.0286 43.6484 41.9701 43.528 41.8594C43.4043 41.7389 43.3457 41.5664 43.3457 41.3385Z" fill="black"/>
<mask id="mask0_332_647" style="mask-type:luminance" maskUnits="userSpaceOnUse" x="0" y="1" width="77" height="78">
<path d="M0 1.99805H76.6667V78.248H0V1.99805Z" fill="white"/>
</mask>
<g mask="url(#mask0_332_647)">
<path d="M37.9395 77.9362C17.0182 77.9362 0 60.918 0 39.9902C0 19.0625 17.0215 2.03125 37.9395 2.03125C44.7949 2.03125 51.4974 3.86393 57.3275 7.34375C58.5547 8.07292 58.9583 9.66146 58.2259 10.8789C57.487 12.1126 55.8919 12.4837 54.6908 11.7773C49.6582 8.7793 43.8704 7.19076 37.9395 7.19076C19.8665 7.19076 5.15625 21.901 5.15625 39.9902C5.15625 58.0599 19.8698 72.7604 37.9395 72.7604C56.0189 72.7604 70.7194 58.0599 70.7194 39.9902C70.7194 38.5612 71.8783 37.4089 73.3073 37.4089C74.7363 37.4089 75.8952 38.5612 75.8952 39.9902C75.8952 60.918 58.8672 77.9362 37.9395 77.9362Z" fill="#03BB38"/>
</g>
<path d="M34.8729 61.169C34.7557 61.169 34.6385 61.169 34.5181 61.1527C32.6724 61.0518 30.9829 60.0948 29.9315 58.5648L17.2883 40.1566C15.4133 37.4288 16.1131 33.6983 18.8345 31.8233C21.5884 29.9418 25.2863 30.6482 27.1678 33.3695L35.4426 45.4333L68.8052 7.35065C70.9894 4.85391 74.7687 4.61953 77.2557 6.79727C79.7427 8.97174 79.9966 12.7608 77.8124 15.2478L39.3749 59.1182C38.242 60.4301 36.5949 61.169 34.8729 61.169Z" fill="#00BF63"/>
</svg>
