<svg width="60" height="60" viewBox="0 0 60 60" fill="none" xmlns="http://www.w3.org/2000/svg">
<rect width="60" height="60" fill="#1E1E1E"/>
<g clip-path="url(#clip0_0_1)">
<rect width="1440" height="3408" transform="translate(-293 -2132)" fill="white"/>
<rect width="60" height="60" rx="6" fill="#F0F5FF"/>
<path fill-rule="evenodd" clip-rule="evenodd" d="M20 26C20 23.7909 21.7909 22 24 22H36C38.2091 22 40 23.7909 40 26V34C40 36.2091 38.2091 38 36 38H24C21.7909 38 20 36.2091 20 34V26ZM24 24C22.8954 24 22 24.8954 22 26V34C22 35.1046 22.8954 36 24 36H36C37.1046 36 38 35.1046 38 34V26C38 24.8954 37.1046 24 36 24H24Z" fill="black"/>
<path fill-rule="evenodd" clip-rule="evenodd" d="M39 29H21V27H39V29Z" fill="black"/>
<path fill-rule="evenodd" clip-rule="evenodd" d="M31 33C31 32.4477 31.4477 32 32 32L35 32C35.5523 32 36 32.4477 36 33C36 33.5523 35.5523 34 35 34L32 34C31.4477 34 31 33.5523 31 33Z" fill="black"/>
</g>
<defs>
<clipPath id="clip0_0_1">
<rect width="1440" height="3408" fill="white" transform="translate(-293 -2132)"/>
</clipPath>
</defs>
</svg>
