<svg width="60" height="60" viewBox="0 0 60 60" fill="none" xmlns="http://www.w3.org/2000/svg">
<rect width="60" height="60" fill="#1E1E1E"/>
<g clip-path="url(#clip0_0_1)">
<rect width="1440" height="3408" transform="translate(-657 -2013)" fill="white"/>
<rect width="60" height="60" rx="6" fill="#F0F5FF"/>
<path fill-rule="evenodd" clip-rule="evenodd" d="M36.0176 23C35.7571 23 35.5072 23.1035 35.323 23.2877L24.4251 34.1856C24.0406 34.5701 23.7678 35.0519 23.636 35.5794L23.3744 36.6256L24.4207 36.3641C24.9482 36.2322 25.4299 35.9594 25.8144 35.575L36.7123 24.677C36.8035 24.5858 36.8759 24.4775 36.9252 24.3583C36.9746 24.2391 37 24.1114 37 23.9824C37 23.8534 36.9746 23.7256 36.9252 23.6064C36.8759 23.4873 36.8035 23.379 36.7123 23.2877C36.6211 23.1965 36.5128 23.1241 36.3936 23.0748C36.2744 23.0254 36.1466 23 36.0176 23ZM33.9088 21.8735C34.4681 21.3142 35.2267 21 36.0176 21C36.4093 21 36.7971 21.0771 37.1589 21.227C37.5208 21.3769 37.8496 21.5966 38.1265 21.8735C38.4034 22.1505 38.6231 22.4792 38.773 22.8411C38.9229 23.2029 39 23.5907 39 23.9824C39 24.374 38.9229 24.7619 38.773 25.1237C38.6231 25.4855 38.4034 25.8143 38.1265 26.0913L27.2286 36.9892C26.5878 37.63 25.7849 38.0846 24.9057 38.3043L22.2426 38.9701C21.9018 39.0553 21.5413 38.9555 21.2929 38.7071C21.0445 38.4587 20.9447 38.0982 21.0299 37.7575L21.6957 35.0943C21.9155 34.2151 22.3701 33.4122 23.0109 32.7714L33.9088 21.8735Z" fill="black"/>
<path fill-rule="evenodd" clip-rule="evenodd" d="M34.293 28.7071L31.293 25.7071L32.7072 24.2928L35.7072 27.2928L34.293 28.7071Z" fill="black"/>
<path fill-rule="evenodd" clip-rule="evenodd" d="M30 38C30 37.4477 30.4477 37 31 37L38 37C38.5523 37 39 37.4477 39 38C39 38.5523 38.5523 39 38 39L31 39C30.4477 39 30 38.5523 30 38Z" fill="black"/>
</g>
<defs>
<clipPath id="clip0_0_1">
<rect width="1440" height="3408" fill="white" transform="translate(-657 -2013)"/>
</clipPath>
</defs>
</svg>
