<svg width="61" height="60" viewBox="0 0 61 60" fill="none" xmlns="http://www.w3.org/2000/svg">
<rect width="61" height="60" fill="#1E1E1E"/>
<g clip-path="url(#clip0_0_1)">
<rect width="1440" height="3408" transform="translate(-334 -1878)" fill="white"/>
<rect x="0.5" width="60" height="60" rx="6" fill="#F0F5FF"/>
<path fill-rule="evenodd" clip-rule="evenodd" d="M21.024 30.6587L23 30C23 25.5817 26.5817 22 31 22L31.6587 20.024C31.441 20.0097 31.2217 20 31 20C25.4773 20 21 24.477 21 30C21 30.2213 21.0097 30.441 21.024 30.6587Z" fill="#2B2D33"/>
<path fill-rule="evenodd" clip-rule="evenodd" d="M40.9761 29.3416L39.0001 29.9999C39.0001 34.4182 35.4184 37.9999 31.0001 37.9999L30.3414 39.9759C30.5591 39.9902 30.7784 39.9999 31.0001 39.9999C36.5227 39.9999 41.0001 35.5229 41.0001 29.9999C41.0001 29.7786 40.9904 29.5596 40.9761 29.3416Z" fill="#2B2D33"/>
<path fill-rule="evenodd" clip-rule="evenodd" d="M36 28C35.4487 28 35 27.5513 35 27H33C33 28.303 33.8367 29.4117 35 29.825V31H37V29.825C38.1634 29.4117 39 28.303 39 27C39 25.346 37.654 24 36 24C35.4487 24 35 23.5513 35 23C35 22.4487 35.4487 22 36 22C36.5514 22 37 22.4487 37 23H39C39 21.697 38.1634 20.5883 37 20.175V19H35V20.175C33.8367 20.5883 33 21.697 33 23C33 24.654 34.346 26 36 26C36.5514 26 37 26.4487 37 27C37 27.5513 36.5514 28 36 28Z" fill="#2B2D33"/>
<path fill-rule="evenodd" clip-rule="evenodd" d="M28.119 33.8763L29.533 32.462C27.5837 30.5127 24.4113 30.5127 22.462 32.462C20.5127 34.4113 20.5127 37.5837 22.462 39.5333C23.437 40.508 24.717 40.995 25.9977 40.995C27.278 40.995 28.5583 40.508 29.533 39.5333L28.119 38.119C26.949 39.2887 25.0457 39.288 23.8763 38.119C23.5493 37.792 23.3173 37.407 23.1733 36.9977H26V34.9977H23.1733C23.3173 34.5883 23.5493 34.203 23.876 33.8763C25.046 32.7067 26.949 32.7067 28.119 33.8763Z" fill="#2B2D33"/>
</g>
<defs>
<clipPath id="clip0_0_1">
<rect width="1440" height="3408" fill="white" transform="translate(-334 -1878)"/>
</clipPath>
</defs>
</svg>
