<svg width="45" height="44" viewBox="0 0 45 44" fill="none" xmlns="http://www.w3.org/2000/svg">
<path d="M0 0H45V21.3477C45 27.2231 41.9049 32.6526 36.8808 35.5905L22.5002 44L8.11934 35.5905C3.09502 32.6526 5.15757e-06 27.2231 5.15757e-06 21.3477L0 0Z" fill="#FFDD2D"/>
<path fill-rule="evenodd" clip-rule="evenodd" d="M12.4136 11V18.0835C13.3701 16.9897 15.1092 16.2495 17.0976 16.2495H19.2584V24.484C19.2584 26.6747 18.6706 28.8198 17.7985 29.8746H27.1978C26.3276 28.8187 25.7412 26.6763 25.7412 24.4882V16.2495H27.9021C29.8905 16.2495 31.6295 16.9897 32.586 18.0835V11H12.4136Z" fill="#333333"/>
</svg>
