<svg width="53" height="52" viewBox="0 0 53 52" fill="none" xmlns="http://www.w3.org/2000/svg">
<g clip-path="url(#clip0_333_1431)">
<mask id="mask0_333_1431" style="mask-type:luminance" maskUnits="userSpaceOnUse" x="0" y="1" width="53" height="48">
<path d="M0 1.91797H53V48.5338H0V1.91797Z" fill="white"/>
</mask>
<g mask="url(#mask0_333_1431)">
<path d="M52.0311 23.479L52.6826 21.334L50.4218 21.4044C49.3535 21.3638 48.3874 21.0388 47.5206 20.4267C47.6255 20.4267 47.7221 20.4267 47.827 20.4267C48.1666 20.4267 48.4978 20.3807 48.8235 20.2886C49.152 20.1965 49.4584 20.0638 49.7455 19.8878C50.0326 19.7117 50.2921 19.5005 50.5184 19.254C50.7475 19.0076 50.9352 18.734 51.0843 18.4361L52.056 16.3236C51.2748 16.3317 50.4936 16.2857 49.7179 16.1909C48.9588 16.0148 48.3239 15.6384 47.8132 15.0615C47.4764 14.7067 47.0817 14.4332 46.6262 14.2382C46.1735 14.0459 45.7015 13.9457 45.2074 13.943C44.8182 13.9457 44.4372 14.0053 44.0673 14.1217C44.1225 13.9511 44.1639 13.7751 44.1971 13.599C44.2744 12.9761 44.2247 12.364 44.0535 11.7601C43.8824 11.1561 43.6008 10.609 43.2061 10.1134L41.5112 8.05234L40.4567 10.479C40.2856 10.8284 40.0399 11.1128 39.7114 11.3321C39.5292 10.4519 39.1124 9.69088 38.4609 9.05443C37.9282 8.51818 37.3098 8.10651 36.6032 7.81943C35.8993 7.53234 35.165 7.3888 34.4004 7.39422C34.1354 7.39422 33.8704 7.41318 33.6054 7.4538L31.5737 7.84109C31.7504 7.1613 32.0292 6.52484 32.4073 5.9263L33.5281 4.1713L30.6655 4.47193L29.7601 2.55714L28.0017 3.44547L26.3593 1.91797L24.7499 3.4888L22.9833 2.60318L22.0779 4.47193L19.2291 4.15234L20.3636 5.90193C20.739 6.49776 21.0151 7.13693 21.1918 7.81672L19.2346 7.44026H19.1711C18.8979 7.39964 18.6246 7.38068 18.3485 7.38339C17.5839 7.37797 16.8496 7.5188 16.1457 7.80588C15.4418 8.09297 14.8207 8.50734 14.288 9.04088C13.6365 9.67734 13.2169 10.4384 13.032 11.3213C12.709 11.1046 12.4633 10.8257 12.2949 10.4844L11.2377 8.05234L9.51244 10.1269C9.12322 10.6198 8.84717 11.1696 8.67879 11.7709C8.5104 12.3694 8.46348 12.9788 8.54077 13.599C8.57389 13.7751 8.6153 13.9511 8.67051 14.1217C8.30061 14.0026 7.91967 13.943 7.53046 13.943C7.03634 13.9457 6.56155 14.0459 6.10884 14.2409C5.65613 14.4332 5.26139 14.7067 4.92462 15.0615C4.41671 15.6303 3.79009 16.0067 3.03926 16.1909C2.25806 16.3046 1.47134 16.348 0.681862 16.3236L1.65077 18.4361C1.80259 18.734 1.9903 19.0076 2.21941 19.254C2.44577 19.4978 2.70525 19.709 2.99233 19.8851C3.27941 20.0611 3.58582 20.1965 3.91155 20.2886C4.23728 20.3807 4.57129 20.4267 4.91082 20.4267C5.01572 20.4267 5.11233 20.4267 5.21723 20.4267C4.35322 21.0442 3.38431 21.3773 2.31603 21.4234L0.0166016 21.353L0.712226 23.498C0.839206 23.9096 1.02139 24.2969 1.26155 24.6571C1.50171 25.0173 1.78879 25.3369 2.1228 25.6159C2.45957 25.8921 2.82671 26.1196 3.22973 26.2903C3.63275 26.4636 4.04957 26.5773 4.48572 26.6315C4.39462 27.1948 4.17655 27.7067 3.8315 28.1671C3.48645 28.6276 3.05306 28.9878 2.53134 29.2423L0.817122 29.9303L1.75566 31.5255C2.14212 32.1159 2.64728 32.5763 3.27665 32.9067C3.90327 33.2398 4.57405 33.4023 5.289 33.3969C5.66165 33.3969 6.03155 33.3563 6.39593 33.2805C6.47874 33.684 6.58363 34.0794 6.70785 34.4694C7.04186 35.3307 7.06395 36.2028 6.7741 37.0803L5.92665 38.8163L7.81754 39.3011C8.2454 39.4067 8.67879 39.4609 9.12046 39.4609C9.44066 39.4555 9.75535 39.4148 10.0645 39.339C10.2881 39.2903 10.5062 39.2253 10.716 39.1413C10.9617 39.5692 11.257 39.9619 11.6048 40.314C12.8167 41.5355 14.5364 42.153 16.7061 42.153H18.2574L15.0498 43.4286L17.49 44.5851C18.4672 45.059 19.4693 45.4869 20.4934 45.8607L20.187 46.6786L21.0289 47.055C22.4339 47.5994 23.8914 47.8973 25.4014 47.9488C25.4014 47.9488 26.0529 47.9488 26.4034 47.9488C26.7568 47.9488 27.4027 47.9488 27.4027 47.9488C28.9016 47.8946 30.3508 47.5994 31.7476 47.0605L32.5895 46.684L32.2831 45.8688C33.3183 45.4788 34.3313 45.0373 35.3196 44.5471L37.7129 43.4096L34.5108 42.134H36.0704C38.2456 42.134 39.9792 41.4948 41.1799 40.2951C41.5277 39.943 41.8231 39.5503 42.066 39.1223C42.2786 39.2036 42.4939 39.2713 42.7175 39.3201C43.0211 39.3878 43.3303 39.423 43.6422 39.4203C44.0839 39.4203 44.5173 39.3661 44.9451 39.2632L46.8498 38.7703L46.0217 37.0667C45.7153 36.1784 45.7346 35.2955 46.0742 34.418C46.2039 34.028 46.3226 33.6326 46.4137 33.2426C46.7808 33.3184 47.1507 33.359 47.5261 33.359C48.2466 33.3644 48.9229 33.1965 49.5523 32.8553C50.1817 32.514 50.6868 32.0428 51.065 31.4442L51.9925 29.868L50.2783 29.1773C49.7538 28.9228 49.3204 28.5653 48.9754 28.1048C48.6303 27.6444 48.4122 27.1326 48.3211 26.5665C48.7573 26.5123 49.1741 26.3959 49.5771 26.2226C49.9774 26.0492 50.3445 25.8244 50.6813 25.5455C51.0153 25.2665 51.3024 24.9496 51.5425 24.5894C51.7855 24.2292 51.9676 23.8446 52.0946 23.433" fill="white"/>
</g>
<path d="M26.3592 8.48003C24.54 8.48003 23.1792 9.06773 22.8838 9.75565L26.3592 11.0963L29.84 9.75023C29.5447 9.05961 28.1838 8.47461 26.3592 8.47461" fill="white"/>
<path d="M26.4034 44.0436H26.3592C25.2247 44.0328 24.1095 43.8919 23.0081 43.6211L22.1082 45.9584C23.5022 46.3511 24.9238 46.5461 26.373 46.5461C27.8195 46.5461 29.2411 46.3511 30.6351 45.9584L29.7545 43.6265C28.6559 43.8973 27.5379 44.0382 26.4034 44.049" fill="white"/>
<path d="M33.0587 41.7324C32.1036 42.1983 31.1153 42.5855 30.094 42.8916L30.8034 44.8064C31.9435 44.5139 33.0421 44.1158 34.1021 43.6066L32.6225 43.1299L33.0587 41.7324Z" fill="white"/>
<path d="M19.6846 41.7324L20.1207 43.1299L18.6411 43.6066C19.6984 44.113 20.797 44.5139 21.9343 44.8064L22.6492 42.8916C21.6279 42.5855 20.6397 42.1983 19.6846 41.7324Z" fill="white"/>
<path d="M26.3592 6.25141C27.6842 6.23786 28.9347 6.53578 30.1051 7.13974C30.2183 6.77141 30.3536 6.4112 30.5109 6.06182L30.1189 6.10516L29.7076 6.1512L29.5337 5.78557L29.012 4.70766L28.0597 5.19245L27.687 5.37932L27.4082 5.1112L26.3592 4.08203L25.3351 5.1112L25.0563 5.3712L24.6837 5.18703L23.7258 4.70224L23.2096 5.78016L23.0357 6.14307L22.6244 6.09974L22.2324 6.0537C22.3898 6.40578 22.525 6.76599 22.6382 7.13432C23.8031 6.53578 25.0425 6.24328 26.3592 6.25141Z" fill="white"/>
<path d="M47.2914 18.7489C47.468 18.8085 47.6475 18.8383 47.8324 18.8383C48.2051 18.8328 48.5501 18.738 48.8703 18.5485C49.1878 18.3616 49.4362 18.1043 49.6129 17.7847C48.4342 17.5951 47.4487 17.0616 46.6592 16.1814C46.2755 15.7616 45.7952 15.5476 45.221 15.5449C44.7849 15.553 44.3846 15.6722 44.0203 15.9024C45.8642 16.8639 46.2424 18.4103 47.2803 18.7543" fill="white"/>
<path d="M4.91642 18.8386C5.10136 18.8386 5.27803 18.8088 5.45194 18.7492C6.50642 18.4025 6.88459 16.8344 8.70923 15.8946C8.34485 15.6644 7.94459 15.5452 7.51121 15.5371C6.93152 15.5398 6.44845 15.7538 6.06475 16.1763C5.27527 17.0538 4.29532 17.5873 3.11938 17.7769C3.29329 18.0992 3.54173 18.3538 3.85918 18.5434C4.17938 18.7329 4.52444 18.8277 4.89709 18.8304" fill="white"/>
<path d="M47.7883 25.0215H47.8656C49.8199 25.0215 50.4714 22.9929 50.4714 22.9929H50.4327C49.4031 22.9577 48.4259 22.714 47.5067 22.2563C46.5847 21.8013 45.8063 21.1756 45.1686 20.3821C43.8326 18.7165 42.7312 17.254 40.567 16.6798L40.3517 16.6419L40.3048 16.4306C40.2468 16.1056 40.4759 15.7942 40.9562 15.4746C43.9485 13.5598 41.9141 11.1142 41.9141 11.1142C41.9141 11.1142 41.0611 13.0669 39.1509 13.0669H39.0074C38.7893 13.0642 38.5712 13.0425 38.3559 13.0046L38.0053 12.9396C38.1516 12.4413 38.1544 11.9429 38.0164 11.4446C37.8784 10.9435 37.6189 10.5156 37.2352 10.1581C36.857 9.77625 36.4153 9.48375 35.9157 9.28063C35.4133 9.0775 34.8916 8.9773 34.3478 8.98271C34.1573 8.98 33.9641 8.99625 33.7764 9.02876C34.4278 9.87105 34.9164 11.274 34.1546 12.1433C33.5003 12.8881 31.8855 12.9206 31.8855 14.0581C31.8855 14.5294 32.3354 15.071 33.136 15.564C35.5541 17.0563 37.9529 19.036 38.9577 21.6848C40.2026 24.989 38.8003 27.1854 36.7935 28.4502C37.2379 28.8158 37.7514 29.0298 38.3311 29.0867C38.5188 29.0867 38.6954 29.0867 38.8666 29.0867C39.9459 29.13 40.9203 28.8348 41.7844 28.201C41.6381 29.084 41.2764 29.8694 40.6967 30.5627C40.1999 31.1288 39.6009 31.5594 38.8997 31.8573C38.2013 32.1525 37.4698 32.2852 36.7079 32.2527C36.7079 32.8865 36.9509 33.4119 37.4367 33.829C37.9639 34.1756 38.5436 34.3896 39.173 34.4681C39.173 34.4681 36.9039 34.9204 36.65 38.2002C36.6555 39.0479 36.4567 39.8469 36.051 40.5944H36.0896C41.3537 40.5944 41.2185 36.1717 41.2185 36.1717C41.3565 36.586 41.5911 36.9381 41.9169 37.2333C42.2453 37.5258 42.6235 37.7235 43.0569 37.8238C43.2363 37.8698 43.4185 37.8888 43.6035 37.8888C43.9044 37.886 44.1997 37.8508 44.4896 37.7804C44.2522 37.1629 44.1335 36.5238 44.1335 35.8656C44.1335 35.2048 44.2522 34.5683 44.4896 33.9508C44.8622 32.919 45.0389 31.8546 45.0168 30.7604C45.3177 31.1206 45.6876 31.3942 46.121 31.581C46.5571 31.7679 47.0126 31.8465 47.4874 31.8194C47.9097 31.8275 48.3072 31.7327 48.6826 31.5404C49.0553 31.3481 49.3589 31.08 49.5936 30.7333C46.0796 29.3033 46.4329 24.7019 46.4329 24.7019C46.8442 24.9483 47.2914 25.0702 47.7745 25.0675M46.72 29.8775C45.2901 29.1896 44.3847 27.3588 44.1694 26.6871C43.954 30.2865 42.1377 32.8025 40.0453 35.2265C39.3938 35.9604 38.8997 36.7865 38.5657 37.7046C38.7424 36.7729 39.1288 35.9388 39.7251 35.194C41.6795 32.8729 43.5786 29.9804 43.7139 26.6438C43.8271 24.5692 43.3357 22.6408 42.2426 20.8615C42.4082 21.3327 42.5048 21.8175 42.5269 22.3158C42.5517 22.8142 42.5048 23.3044 42.3834 23.7892C42.2647 24.274 42.077 24.7344 41.8202 25.165C41.5663 25.5983 41.2544 25.9856 40.8845 26.3296C40.8845 26.3296 44.4758 22.0856 39.3938 17.7388C37.3732 16.0867 35.1566 15.0656 34.0165 14.3371C38.1296 15.6533 40.1419 14.2044 40.1419 14.2044C39.576 14.635 38.9411 14.9329 38.2427 15.0954C37.5416 15.2606 36.8404 15.2742 36.1338 15.1415C36.4209 15.2769 36.7217 15.4231 37.0392 15.5883C40.509 17.4327 43.6283 20.4715 44.1583 24.6775V24.645C44.9644 28.7752 46.7641 29.8342 46.7641 29.8342" fill="white"/>
<path d="M13.5646 34.4304C14.1829 34.36 14.7543 34.1596 15.2788 33.8291C15.7785 33.4202 16.0324 32.8975 16.0407 32.2583C15.2788 32.2908 14.5473 32.1581 13.8462 31.8629C13.145 31.565 12.546 31.1343 12.0464 30.5683C11.4418 29.8858 11.0554 29.1004 10.887 28.2121C11.751 28.8512 12.7254 29.1464 13.8075 29.1004C13.9814 29.1004 14.1581 29.1004 14.3486 29.1004C14.9283 29.0435 15.4445 28.8296 15.8916 28.4612C13.8848 27.1856 12.477 25.0081 13.722 21.6958C14.7185 19.0471 17.1228 17.0618 19.5409 15.575C20.3442 15.0848 20.7941 14.535 20.7941 14.0691C20.7941 12.9587 19.1821 12.9262 18.5251 12.1543C17.7632 11.2877 18.238 9.89018 18.895 9.03976C18.7073 9.00726 18.514 8.99372 18.3236 8.99643C17.7798 8.99101 17.258 9.08851 16.7557 9.29435C16.256 9.49747 15.8143 9.78997 15.4362 10.1691C15.0525 10.5266 14.7902 10.9573 14.6522 11.4556C14.5142 11.9566 14.5197 12.455 14.666 12.9533L14.3154 13.0237C14.1001 13.0616 13.8821 13.0833 13.664 13.086H13.526C11.6102 13.086 10.7628 11.1333 10.7628 11.1333C10.7628 11.1333 8.76149 13.56 11.7538 15.4802C12.2672 15.8052 12.4963 16.1193 12.4052 16.4389L12.3583 16.6475L12.143 16.6854C9.98159 17.2623 8.8857 18.7221 7.54414 20.3877C6.90648 21.1758 6.13081 21.7933 5.21711 22.2456C4.30341 22.6979 3.33451 22.9443 2.31039 22.9796H2.24414C2.24414 22.9796 2.8956 25.0081 4.85273 25.0081H4.94383C5.4269 25.0135 5.87409 24.8916 6.28539 24.6452C6.28539 24.6452 6.63044 29.2466 3.11919 30.6766C3.35107 31.0206 3.65471 31.2914 4.02737 31.4837C4.40279 31.676 4.80029 31.7681 5.22263 31.7627C5.69742 31.7898 6.15289 31.7112 6.58904 31.5244C7.02518 31.3375 7.39232 31.0639 7.6932 30.701C7.67112 31.7979 7.84779 32.8623 8.22044 33.8941C8.45784 34.5116 8.57654 35.1481 8.57654 35.8089C8.57654 36.4671 8.45784 37.1062 8.22044 37.7237C8.51029 37.7941 8.80289 37.8294 9.10102 37.8321C9.28596 37.8321 9.46815 37.8104 9.64758 37.7671C10.081 37.6669 10.4591 37.4691 10.7876 37.1766C11.1134 36.8814 11.348 36.5266 11.486 36.115C11.486 36.115 11.348 40.5377 16.6149 40.5377H16.6535C16.2533 39.7875 16.0545 38.9912 16.06 38.1435C15.8143 34.8637 13.5398 34.4114 13.5398 34.4114M12.6923 35.2077C10.5806 32.7837 8.78081 30.2677 8.52685 26.6358C8.30602 27.275 7.40612 29.1248 5.97899 29.8289C5.97899 29.8289 7.77049 28.7673 8.58482 24.6398V24.6696C9.12034 20.4662 12.2368 17.4275 15.7095 15.5831C16.0297 15.4098 16.3278 15.2689 16.6149 15.1362C15.8999 15.2771 15.1877 15.2662 14.4783 15.1037C13.7661 14.9385 13.1229 14.6379 12.5488 14.1964C12.5488 14.1964 14.5556 15.6454 18.6741 14.3318C17.5534 15.0658 15.3451 16.0868 13.3245 17.7389C8.26737 22.0858 11.8835 26.3298 11.8835 26.3298C11.5136 25.9858 11.2017 25.5985 10.9477 25.1652C10.6938 24.7346 10.5061 24.2741 10.3846 23.7893C10.2659 23.3046 10.2162 22.8143 10.2411 22.316C10.2659 21.8177 10.3625 21.3329 10.5282 20.8616C9.43227 22.641 8.94091 24.5666 9.05409 26.6439C9.19211 29.9887 11.0692 32.8731 13.0374 35.1941C13.6364 35.9362 14.0256 36.7731 14.205 37.7048C13.8655 36.7866 13.3714 35.9633 12.7172 35.2266" fill="white"/>
<path d="M22.4478 18.2576C22.5334 18.347 22.619 18.4499 22.7018 18.5447L22.7625 18.6151L22.9889 18.9211L23.0413 18.9916C23.1269 19.1189 23.2097 19.2597 23.2953 19.3951C23.5906 19.972 24.0102 20.4459 24.5568 20.8116C25.1006 21.1799 25.7023 21.3939 26.3593 21.4561C27.0135 21.3939 27.6153 21.1799 28.1564 20.8143C28.7002 20.4486 29.1197 19.9774 29.4151 19.4005C29.5007 19.2597 29.5835 19.1189 29.6773 18.9916L29.716 18.9347C29.7933 18.8264 29.8706 18.718 29.9506 18.6151L30.0031 18.5528C30.0859 18.4499 30.1715 18.347 30.2625 18.2576L30.3012 18.2197C30.7042 17.8053 31.19 17.5209 31.7559 17.372L31.4937 17.2366L30.4254 16.5974L29.3295 15.9609L26.3593 17.5561L23.425 15.9934L22.3319 16.6299L21.2636 17.2691L20.9875 17.4207C21.5479 17.5534 22.0365 17.8189 22.4478 18.2143L22.4947 18.2576M25.1999 18.1303H27.6622V18.9672C27.4221 18.737 27.135 18.6449 26.801 18.6855V19.8853C26.7982 20.1886 26.8672 20.473 27.0108 20.7411H25.81C25.9618 20.4784 26.0419 20.1941 26.0446 19.8907V18.6909C25.7134 18.6503 25.4263 18.7451 25.1861 18.9726L25.1999 18.1303Z" fill="white"/>
<path d="M26.1163 16.5148V11.6317L22.9446 10.5781L23.7506 15.3204L26.1163 16.5148ZM25.4648 12.8315V13.6169L25.3103 13.5465C25.0673 13.4679 24.852 13.346 24.6588 13.1835C24.2972 12.9588 24.0791 12.6419 24.0046 12.2329L25.4648 12.8315Z" fill="white"/>
<path d="M28.965 15.3205L29.7987 10.5918L26.627 11.6453V16.5285L28.965 15.3205ZM27.3115 12.8316L28.7497 12.2385C28.6752 12.6501 28.4599 12.967 28.0983 13.1891C27.905 13.3516 27.6897 13.4735 27.4468 13.552L27.2977 13.6224L27.3115 12.8316Z" fill="white"/>
<path d="M21.6278 27.8367C21.9121 27.9287 22.202 27.9721 22.5001 27.9721V27.8827C22.5194 27.8258 22.5332 27.7689 22.547 27.7094C22.594 27.4548 22.6188 27.1975 22.6243 26.9375C22.4421 26.8319 22.3041 26.6883 22.2075 26.5042C22.1661 26.3931 22.0971 26.3064 21.9977 26.2414C21.9011 26.1737 21.7907 26.1439 21.672 26.1467C21.3794 26.171 21.1089 26.2631 20.8632 26.4202C20.8245 26.7073 20.8715 26.9808 21.004 27.2381C21.1365 27.4954 21.3352 27.6931 21.5947 27.8312" fill="white"/>
<path d="M28.6476 25.248C28.0596 25.8845 26.9003 26.9705 26.8478 27.022L26.776 27.0924L23.1323 27.0328C23.1295 27.3308 23.0909 27.6205 23.0164 27.9076V28.0241L27.3502 28.7878C27.8002 28.4818 29.0451 27.588 29.5254 27.2441C29.2163 26.781 29.1141 26.2772 29.219 25.7328C29.0092 25.6028 28.827 25.443 28.6725 25.2535" fill="white"/>
<path d="M29.1417 20.9512C28.7883 21.3385 28.3687 21.6364 27.8829 21.8476C27.3971 22.0589 26.8892 22.1645 26.3592 22.1618C26.2267 22.1699 26.0942 22.1699 25.9617 22.1618C25.8292 22.151 25.6994 22.132 25.5697 22.1049C25.5007 22.4055 25.5228 22.6953 25.6414 22.9797C25.8374 23.3535 26.1411 23.5999 26.5551 23.7191L26.7042 23.7787V23.9358C26.7235 24.2716 26.8422 24.5668 27.0631 24.8214C27.2867 25.076 27.5627 25.2385 27.8967 25.3089C28.0844 25.1166 28.2556 24.946 28.3853 24.8051C28.2666 24.5776 28.228 24.3366 28.2694 24.082C28.3108 23.8301 28.4267 23.6135 28.6144 23.432C28.5592 23.8166 28.6199 24.1822 28.7938 24.5316C28.965 24.881 29.2245 25.1518 29.564 25.3468L29.7489 25.4308L29.6965 25.623C29.6358 25.8072 29.6137 25.9995 29.6302 26.1945C29.6468 26.3868 29.6993 26.571 29.7876 26.747C29.8787 26.9203 29.9974 27.072 30.1464 27.202C30.2955 27.3293 30.4667 27.4268 30.6544 27.4918L30.8945 27.5812L30.7896 27.8114C30.7123 27.9847 30.6682 28.1662 30.6626 28.353C30.6544 28.5426 30.682 28.7268 30.7482 28.9055C30.8145 29.0843 30.9083 29.2441 31.0381 29.3849C31.165 29.5258 31.3141 29.6395 31.488 29.7262H34.1794V27.6191C33.9945 27.5974 33.8206 27.546 33.6522 27.4647C33.4866 27.3862 33.3347 27.2833 33.2022 27.156C33.0697 27.0287 32.9621 26.8824 32.8765 26.7226C32.7909 26.5601 32.7357 26.3895 32.7054 26.208C32.283 26.1566 31.9407 25.9643 31.6757 25.6339C31.5294 25.4308 31.4494 25.2033 31.4383 24.9541C31.4245 24.7049 31.4825 24.472 31.6122 24.2553C31.6178 24.6968 31.7668 25.0841 32.0622 25.4172C32.3023 25.6637 32.5977 25.8045 32.9483 25.8316H33.1443V26.0293C33.1608 26.3191 33.2657 26.571 33.4589 26.7903C33.6494 27.007 33.8923 27.1451 34.1794 27.2047V22.9039C34.2043 22.2268 34.3506 21.5768 34.6156 20.9512H29.1417Z" fill="white"/>
<path d="M21.8625 22.9242L21.7825 25.6623L22.1027 25.7057L22.8784 23.084L22.4864 22.2715L21.8625 22.9242Z" fill="white"/>
<path d="M30.4253 35.4757H30.5026C30.9857 35.6111 31.1099 37.3147 31.9573 37.4664C32.0319 37.4745 32.1092 37.4745 32.1865 37.4664C32.4211 37.4691 32.6033 37.3716 32.733 37.1793C32.733 37.1793 32.3079 36.5428 31.9905 36.0824C31.5654 35.5028 31.2396 34.8068 30.4446 34.8068H30.3867C30.2348 34.8122 30.0941 34.8555 29.9698 34.9395C29.6993 34.7661 29.4039 34.6795 29.0837 34.6795C28.7194 34.7228 28.3633 34.7959 28.0127 34.9016L26.2543 34.7282C26.0086 34.6714 25.8154 34.5386 25.6801 34.3274V34.2814C25.6801 34.238 25.6801 34.1866 25.6801 34.1432C25.6857 33.9103 25.6525 33.6855 25.5808 33.4661C25.509 33.2468 25.4013 33.0436 25.2578 32.8622C25.1143 32.678 24.9459 32.5209 24.7471 32.3936C24.5511 32.2664 24.3386 32.1743 24.1095 32.1201C24.1095 32.1201 24.1564 31.852 24.0515 31.7491L23.6595 32.2095L22.3566 31.5703L23.2703 32.6103L22.4477 33.5041C22.3621 33.5853 22.3456 33.6801 22.4035 33.7857L22.7348 34.0728L23.1599 33.8236C23.193 33.8128 23.2289 33.8128 23.262 33.8236C23.3807 33.8236 23.5574 33.8236 23.712 33.8236C23.8693 33.8236 24.0322 33.7857 24.0515 33.6314C23.9991 34.1541 23.5049 35.0614 23.8307 35.7764L24.0708 36.318L22.5139 36.1014L21.7962 37.3066C21.6858 37.4691 21.6306 37.6478 21.6306 37.8428C21.6306 38.0378 21.6858 38.2166 21.7962 38.3791L22.0695 38.7122C22.26 38.5226 22.4173 38.3114 22.5388 38.073L22.4146 37.9403C22.3069 37.8374 22.2959 37.7264 22.3842 37.6072L22.8397 36.8678L24.6781 37.2876L24.7747 37.1278C24.8851 36.9382 25.0535 36.8516 25.2771 36.8678C25.3599 36.8624 25.4428 36.8624 25.5256 36.8678C26.0086 36.9626 26.4972 37.0141 26.9913 37.0195C27.5738 37.0764 28.0928 36.922 28.5427 36.5536C29.1942 37.5259 30.555 37.6776 30.4529 38.1705L30.0941 39.8226C30.3287 39.8226 30.555 39.8226 30.7455 39.7711L31.085 38.0486C31.1237 37.8618 31.1541 37.6072 31.1541 37.6072C30.9001 37.3959 30.682 37.1522 30.5026 36.8732C30.2624 36.4264 30.3922 36.1907 30.1713 35.5976C30.2183 35.5109 30.2928 35.4676 30.3922 35.4622M23.5105 33.0382C23.4663 33.0355 23.4276 33.0193 23.4 32.9868C23.3697 32.9543 23.3559 32.9164 23.3614 32.873C23.3614 32.8297 23.3807 32.7918 23.4138 32.762C23.447 32.7349 23.4856 32.7214 23.5298 32.7241C23.6374 32.7241 23.6899 32.7782 23.6899 32.8811C23.6899 32.9868 23.6374 33.0382 23.5298 33.0382" fill="white"/>
<path d="M21.0344 37.0199C21.0344 37.0199 21.6472 36.7735 21.6859 36.6001L21.6086 36.4024C21.5258 36.2697 21.5451 36.156 21.6666 36.0585L22.318 35.6116L23.4194 35.8147C23.2924 35.6468 23.2317 35.4572 23.2372 35.246L22.1883 35.0293L21.1973 35.617C21.0206 35.7443 20.9019 35.9149 20.844 36.1235C20.786 36.332 20.7998 36.5351 20.8854 36.7328L21.0344 37.0199Z" fill="white"/>
<path d="M28.8105 39.8473H29.462C29.462 39.8473 30.0279 38.2277 30.061 38.1763C29.6387 37.984 29.2274 37.77 28.8299 37.5371C28.9983 37.7863 29.4013 38.0625 29.324 38.2792L28.8105 39.8473Z" fill="white"/>
<path d="M34.1796 30.2441H18.5391V35.9885C18.5391 38.3421 20.2781 39.8181 22.8453 39.8181C24.9902 39.8181 25.556 39.8993 26.3593 40.6712C26.6105 40.4085 26.9086 40.2054 27.2482 40.0646C27.5877 39.921 27.9438 39.856 28.3137 39.8614V39.7721L28.8299 38.2987L27.9935 37.3671C27.6567 37.4673 27.3117 37.5052 26.9583 37.4862C26.4366 37.4808 25.9204 37.4266 25.407 37.3291C25.3518 37.321 25.2993 37.321 25.2441 37.3291C25.1723 37.3291 25.1723 37.3291 25.153 37.3671L25.0564 37.5268L24.8797 37.8139L24.5402 37.7354L23.0413 37.3914L22.8343 37.7246V37.7625L23.0165 37.9602L22.9364 38.2148C22.7984 38.5316 22.6052 38.8106 22.3567 39.0516L21.9785 39.4471L21.639 39.0246L21.3851 38.7131C21.2498 38.5371 21.1642 38.3421 21.1339 38.1227C21.1007 37.906 21.1228 37.6948 21.2029 37.4862L20.7805 37.6596L20.5901 37.2587L20.4603 36.9716C20.3968 36.8254 20.3582 36.671 20.3471 36.5112C20.3333 36.3541 20.3499 36.1971 20.3941 36.0427C20.4382 35.8883 20.5045 35.7475 20.5983 35.6148C20.6922 35.4848 20.8054 35.371 20.9351 35.2789L22.1414 34.6398L23.2897 34.8646C23.2897 34.7562 23.3615 34.3716 23.3946 34.2714H23.3284L22.6769 34.5125L22.0255 34.0791C21.9565 34.0141 21.9233 33.9356 21.9233 33.8435C21.9233 33.7514 21.9565 33.6729 22.0255 33.6079L22.6438 32.6871L21.0731 30.7723L23.4857 31.7446L23.9743 31.1677L24.3442 31.5143C24.4436 31.6064 24.5098 31.7202 24.5402 31.8529C25.1917 32.1075 26.3924 32.855 26.4946 34.0656L26.1247 34.2146C26.1716 34.2741 26.2296 34.3229 26.3014 34.3527L28.0211 34.5206L28.1784 34.4746C28.471 34.3662 28.7747 34.3093 29.0894 34.3039C29.4041 34.3039 29.7049 34.3716 29.9893 34.5071C30.1135 34.4637 30.2405 34.4366 30.373 34.4312H30.4585C30.8395 34.4637 31.1873 34.5883 31.4992 34.805C31.8111 35.0216 32.0458 35.3006 32.2059 35.6418L32.3936 35.91C32.7138 36.3568 33.1361 37.0014 33.1499 37.0339L33.3377 37.321L33.103 37.5837C32.8767 37.8762 32.573 38.0225 32.1976 38.0225C32.0927 38.0333 31.9906 38.0333 31.8857 38.0225C31.7725 37.9791 31.6704 37.9223 31.5738 37.8518C31.5738 37.9412 31.5738 38.0496 31.5213 38.1389L31.2204 39.6773C31.651 39.5933 32.0513 39.4389 32.4267 39.2141C32.7994 38.9921 33.1223 38.7104 33.3929 38.3746C33.6661 38.036 33.8677 37.665 34.0029 37.256C34.1382 36.8471 34.1961 36.43 34.1796 35.9993V30.2441Z" fill="#FCE527"/>
<path d="M18.5389 29.7775H30.7179C30.4694 29.5229 30.3065 29.2223 30.2265 28.8783C30.1492 28.5371 30.163 28.1958 30.2762 27.8627C30.1106 27.7842 29.9587 27.6867 29.818 27.5675C29.3432 27.9142 27.8636 28.946 27.513 29.2087L27.433 29.2602L22.663 28.4179H22.5663C22.4118 28.426 22.2572 28.426 22.1026 28.4179C22.0805 28.5208 22.0253 28.6075 21.9425 28.6725C21.8569 28.7402 21.7603 28.7754 21.6526 28.7754H21.5754C21.4456 28.7537 21.3435 28.6915 21.2689 28.5885C21.1917 28.4856 21.164 28.3719 21.1834 28.2446V28.1417C20.877 27.925 20.6561 27.6406 20.5209 27.294C20.3856 26.9473 20.3608 26.5925 20.4408 26.2269L20.4933 26.17L20.565 26.1185C20.565 26.1185 20.6561 26.0562 20.7804 25.9912L20.4353 25.9398C20.369 25.929 20.3194 25.8992 20.2807 25.845C20.2421 25.7935 20.2283 25.7367 20.2393 25.6717C20.2476 25.6094 20.2807 25.5579 20.3332 25.52C20.3884 25.4821 20.4463 25.4712 20.5126 25.4821L21.3407 25.6094L21.418 22.7629L22.6492 21.4873L23.4193 23.069L22.5774 25.7827L23.3089 25.8965C23.3724 25.9073 23.4248 25.9398 23.4607 25.9912C23.4994 26.0427 23.5132 26.1023 23.5049 26.1646C23.4828 26.2946 23.4027 26.3569 23.2702 26.3569H23.2316L22.6381 26.2594V26.3054C22.7044 26.4219 22.801 26.5085 22.9252 26.5654L26.5607 26.625L27.4937 25.7231C27.1376 25.604 26.8422 25.4008 26.6076 25.1137C26.373 24.8267 26.2322 24.5017 26.188 24.136C25.7187 23.96 25.3737 23.6512 25.1529 23.2098C24.9707 22.7927 24.9431 22.3675 25.0673 21.9342C24.4876 21.7094 23.9824 21.379 23.549 20.9375H18.1221C18.3788 21.5685 18.5168 22.224 18.5389 22.9037V29.7775Z" fill="#FCE527"/>
<path d="M23.5629 32.7387C23.5187 32.736 23.4801 32.7468 23.4469 32.7766C23.4138 32.8064 23.3945 32.8416 23.3945 32.8849C23.389 32.9283 23.4028 32.9689 23.4331 33.0014C23.4608 33.0339 23.4994 33.0501 23.5436 33.0528C23.6485 33.0528 23.7037 32.9987 23.7037 32.8958C23.7037 32.7901 23.6485 32.7387 23.5436 32.7387" fill="#222220"/>
<path d="M34.1795 43.1874L33.2796 42.8488L33.5281 41.9361L33.8014 40.9395C32.5702 41.5597 31.2866 42.0553 29.9561 42.4263C29.3046 42.6051 28.8354 42.689 28.8354 42.689V43.3661C28.0348 43.4934 27.2288 43.5611 26.4172 43.5692H26.3593C25.5477 43.5611 24.7417 43.4934 23.9411 43.3661V42.689C23.9411 42.689 23.4581 42.6051 22.8204 42.4263C21.4899 42.0553 20.2063 41.5597 18.9752 40.9395L19.2429 41.9361L19.4969 42.8488L18.5915 43.1874L17.5867 43.5503C18.9393 44.2463 20.3416 44.8232 21.7963 45.2809L21.4513 46.199C23.033 46.7895 24.6671 47.0657 26.3593 47.0305H26.3979C28.0956 47.0684 29.738 46.7922 31.3253 46.199L30.9802 45.2809C32.4294 44.8259 33.829 44.2517 35.176 43.5584L34.1795 43.1874ZM18.6494 43.6153L20.129 43.1359L19.6929 41.7384C20.648 42.207 21.6362 42.5915 22.6576 42.9003L21.9398 44.8151C20.8026 44.5199 19.7067 44.119 18.6494 43.6153ZM26.3593 46.5511C24.9156 46.5349 23.4995 46.3372 22.1082 45.958L22.9888 43.6261C24.0957 43.897 25.2192 44.0351 26.3593 44.0432H26.431C27.5628 44.0324 28.6808 43.8915 29.7794 43.6207L30.6352 45.958C29.2384 46.3372 27.8195 46.5322 26.3731 46.543M30.8035 44.8151L30.0858 42.9003C31.1072 42.5915 32.0954 42.207 33.0533 41.7384L32.6144 43.1359L34.094 43.6153C33.0367 44.1217 31.9381 44.5199 30.798 44.8151" fill="#222220"/>
<path d="M26.3592 6.81997C27.8747 6.77664 29.2494 7.1856 30.4833 8.04685C30.6821 7.09081 31.0437 6.20247 31.5737 5.37914L30.0941 5.54435L29.2991 3.9356L27.8112 4.6831L26.3592 3.29102L24.9238 4.6831L23.4442 3.9356L22.6768 5.54435L21.1973 5.37914C21.7162 6.20518 22.0696 7.09352 22.26 8.04685C23.4857 7.19102 24.8521 6.78206 26.3592 6.81997ZM22.6106 6.10497L23.0219 6.15102L23.1986 5.78539L23.712 4.70747L24.6699 5.19226L25.0425 5.37914L25.3351 5.11102L26.3592 4.08185L27.7008 5.3981L28.0735 5.21122L29.023 4.72643L29.5448 5.80706L29.7214 6.16997L30.1327 6.12393L30.522 6.0806C30.3646 6.43268 30.2293 6.79018 30.1189 7.15852C29.5392 6.86872 28.9347 6.64935 28.2998 6.49768C27.6677 6.34872 27.0273 6.2756 26.3758 6.2756C25.7243 6.2756 25.0812 6.34872 24.449 6.49768C23.8169 6.64935 23.2096 6.86872 22.6299 7.15852C22.5195 6.79018 22.3842 6.43268 22.2269 6.0806L22.6106 6.10497Z" fill="#222220"/>
<path d="M47.8657 25.6479C50.2369 25.6479 51.0346 23.2862 51.065 23.1833L51.3327 22.3546H50.4467C49.5109 22.3248 48.622 22.1 47.7856 21.6856C46.9492 21.2712 46.2425 20.7025 45.6629 19.9794L45.4862 19.7627C44.2744 18.2569 43.1288 16.8215 41.0695 16.1633C41.1496 16.0929 41.2379 16.0306 41.329 15.9737C41.8176 15.7002 42.2261 15.3427 42.5546 14.8958C42.8831 14.4517 43.1039 13.9587 43.2116 13.4198C43.2668 12.9323 43.2282 12.4529 43.0929 11.9817C42.9576 11.5104 42.7368 11.0825 42.4304 10.6952L41.7789 9.89625L41.3483 10.855C41.3483 10.9119 40.6251 12.4312 39.1648 12.4312H38.7673C38.806 11.9275 38.7314 11.4373 38.5493 10.966C38.3671 10.4921 38.0938 10.0777 37.7239 9.72291C37.285 9.28416 36.7743 8.94562 36.1946 8.71C35.6149 8.47437 35.0104 8.36062 34.381 8.36333C34.1464 8.36333 33.9145 8.37958 33.6854 8.41479L32.6861 8.60708L33.2989 9.39791C33.782 10.0371 34.2182 11.1421 33.7047 11.7271C33.4563 11.941 33.1775 12.1035 32.8683 12.22C32.2169 12.5206 31.2783 12.9485 31.2783 14.0183C31.2783 14.7144 31.8332 15.4429 32.8297 16.055C35.7833 17.875 37.6024 19.7708 38.3892 21.8644C39.6093 25.0548 38.0193 26.9235 36.4734 27.8877L35.7833 28.321L36.3879 28.8654C36.9427 29.3258 37.5804 29.594 38.3036 29.6617C38.5134 29.6617 38.7094 29.6617 38.8971 29.6617C39.5071 29.6644 40.1006 29.5804 40.6831 29.4071C40.5395 29.6535 40.3711 29.8865 40.1807 30.1031C39.7418 30.6042 39.2145 30.9833 38.5934 31.2433C37.9751 31.5033 37.3292 31.6171 36.6556 31.5846H36.0759L36.0318 32.1506C36.029 32.5487 36.1118 32.9306 36.2802 33.2908C36.4513 33.6537 36.6915 33.9625 37.0007 34.2198C37.1635 34.3606 37.3457 34.4744 37.5417 34.5637C37.0614 35.0242 36.6887 35.555 36.421 36.1617C36.156 36.7656 36.0207 37.3967 36.0097 38.0548C36.0262 38.8104 35.8717 39.5308 35.5404 40.2133L34.8889 41.1694H36.0511C37.9613 41.1694 39.4271 40.6575 40.4429 39.631C40.9784 39.0812 41.3594 38.4421 41.5885 37.7162C41.9722 38.0331 42.4056 38.2444 42.8942 38.3554C43.1233 38.4069 43.3551 38.434 43.5898 38.4312C43.9431 38.4312 44.2909 38.3906 44.6332 38.3094L45.3702 38.1198L45.0445 37.4427C44.6222 36.3269 44.6222 35.2137 45.0445 34.0979C45.2874 33.391 45.4531 32.6679 45.5469 31.9285C46.1404 32.2265 46.7725 32.37 47.4433 32.3619C47.9788 32.37 48.4868 32.2508 48.9615 32.0044C49.4363 31.7552 49.82 31.4112 50.1154 30.9698L50.4715 30.3333L49.82 30.0652C47.6366 29.1769 47.1562 26.7962 47.0651 25.5071C47.2805 25.5504 47.4958 25.5748 47.7166 25.5829L47.8657 25.6479ZM49.5937 30.6908C49.3591 31.0348 49.0554 31.3056 48.6827 31.4979C48.3073 31.6902 47.9098 31.7823 47.4875 31.7742C47.0127 31.804 46.5572 31.7227 46.1238 31.5358C45.6877 31.349 45.3178 31.0754 45.0169 30.7152C45.0362 31.8121 44.8596 32.8737 44.4842 33.9056C44.2468 34.5231 44.1253 35.1623 44.1253 35.8204C44.1253 36.4812 44.2468 37.1204 44.4842 37.7352C44.1916 37.8056 43.8962 37.8435 43.5981 37.8435C43.4131 37.8462 43.2282 37.8246 43.0487 37.7812C42.6181 37.681 42.2372 37.4833 41.9114 37.1881C41.583 36.8956 41.3511 36.5408 41.2103 36.1292C41.2103 36.1292 41.3483 40.5519 36.0814 40.5519H36.0428C36.4486 39.8017 36.6501 39.0054 36.6418 38.1577C36.8902 34.8779 39.1593 34.4229 39.1593 34.4229C38.5382 34.3552 37.964 34.1575 37.4368 33.8298C36.9399 33.4208 36.686 32.8981 36.6749 32.259C37.4451 32.2969 38.1821 32.1669 38.886 31.869C39.5927 31.571 40.1972 31.135 40.6969 30.5635C41.3042 29.881 41.6934 29.0956 41.8645 28.2073C40.9977 28.8465 40.0261 29.1417 38.944 29.0956C38.7729 29.0956 38.5907 29.0956 38.4085 29.0956C37.8288 29.036 37.3154 28.8248 36.8709 28.4565C38.8777 27.1808 40.28 25.0033 39.0351 21.691C38.0386 19.0423 35.6315 17.0571 33.2161 15.5702C32.4129 15.08 31.9629 14.5302 31.9629 14.0644C31.9629 12.954 33.5722 12.9215 34.232 12.1496C34.9938 11.2802 34.519 9.8827 33.8538 9.035C34.0443 9.0025 34.2347 8.98895 34.428 8.98895C34.969 8.98354 35.4935 9.08375 35.9931 9.28687C36.4955 9.4927 36.9344 9.7852 37.3154 10.1644C37.6963 10.5219 37.9585 10.9498 38.0965 11.4508C38.2346 11.9519 38.229 12.4502 38.0827 12.9485L38.4361 13.0162C38.6514 13.0569 38.8667 13.0758 39.0875 13.0812H39.2311C41.1413 13.0812 41.9943 11.1285 41.9943 11.1285C41.9943 11.1285 44.0204 13.5715 41.0364 15.4862C40.5202 15.814 40.2938 16.1254 40.3849 16.445L40.4291 16.6562L40.6444 16.6942C42.8086 17.2683 43.9045 18.7308 45.246 20.3965C45.8782 21.1737 46.6483 21.7885 47.5537 22.2408C48.4592 22.6904 49.4198 22.9369 50.4329 22.9802H50.4715C50.4715 22.9802 49.82 25.0087 47.8657 25.0087H47.7746C47.2915 25.0142 46.8443 24.8923 46.433 24.6458C46.433 24.6458 46.088 29.2473 49.5937 30.6773" fill="#222220"/>
<path d="M43.714 16.4456C44.451 16.8573 45.0694 17.3989 45.5663 18.0733C45.9444 18.6475 46.4523 19.0727 47.09 19.3489C47.3302 19.4275 47.5758 19.4654 47.827 19.4654C48.3239 19.4627 48.7849 19.3354 49.21 19.0808C49.6323 18.8262 49.9581 18.4823 50.1872 18.0462L50.5654 17.2229L49.6461 17.1741C48.6303 16.9927 47.7856 16.5214 47.1093 15.755C46.5986 15.2133 45.9665 14.9398 45.2129 14.9316C44.647 14.9425 44.1253 15.0968 43.6505 15.3975L42.8086 15.9798L43.714 16.4456ZM45.2129 15.5383C45.7898 15.5437 46.2702 15.7577 46.6539 16.1775C47.4433 17.055 48.426 17.5885 49.6047 17.7781C49.4281 18.1004 49.1824 18.355 48.8622 18.5446C48.5447 18.7314 48.1997 18.8289 47.827 18.8316C47.6421 18.8316 47.4599 18.8018 47.286 18.7423C46.237 18.3983 45.8589 16.8275 44.0259 15.8904C44.3931 15.6602 44.7906 15.541 45.2267 15.5329" fill="#222220"/>
<path d="M44.1307 24.645C43.5979 20.439 40.4814 17.4002 37.0143 15.5558C36.6941 15.3906 36.396 15.2444 36.1089 15.109C36.8239 15.2525 37.5388 15.2417 38.251 15.0765C38.9604 14.914 39.6064 14.6106 40.1805 14.1719C40.1805 14.1719 38.1737 15.6208 34.0552 14.3046C35.1952 15.0277 37.4063 16.0488 39.4325 17.7063C44.484 22.0531 40.8734 26.2971 40.8734 26.2971C41.2405 25.9531 41.5525 25.5658 41.8092 25.1352C42.0631 24.7019 42.2509 24.2442 42.3723 23.7594C42.491 23.2746 42.5379 22.7817 42.5159 22.2833C42.491 21.785 42.3944 21.3002 42.2288 20.829C43.3219 22.6083 43.8132 24.5367 43.7001 26.6113C43.5648 29.956 41.6877 32.8404 39.7113 35.1642C39.115 35.9063 38.7286 36.7431 38.5519 37.6721C38.8942 36.7648 39.3911 35.9523 40.0453 35.2265C42.157 32.8025 43.954 30.2865 44.2025 26.6546C44.4233 27.2938 45.3232 29.1435 46.7503 29.8477C46.7503 29.8477 44.9533 28.786 44.1445 24.6585" fill="#222220"/>
<path d="M17.2332 40.2139C16.9158 39.5531 16.7502 38.8571 16.7446 38.1258C16.7364 37.4677 16.5983 36.8366 16.3333 36.2327C16.0683 35.626 15.6957 35.0952 15.2154 34.6348C15.4114 34.5454 15.5908 34.4316 15.7537 34.2908C16.0656 34.0335 16.3057 33.7248 16.4769 33.3618C16.6453 33.0016 16.7308 32.6198 16.7253 32.2216L16.6867 31.6556H16.1015C15.4279 31.6854 14.7847 31.5716 14.1664 31.3116C13.5481 31.0516 13.0208 30.6725 12.5819 30.1741C12.3694 29.9521 12.1844 29.711 12.0216 29.4537C12.6013 29.6243 13.1947 29.711 13.7993 29.7083C13.9897 29.7083 14.183 29.7083 14.3928 29.7083C15.116 29.6352 15.7564 29.3671 16.3085 28.9039L16.9158 28.3623L16.2229 27.9262C14.6799 26.9566 13.0954 25.1177 14.3072 21.9029C15.0967 19.8093 16.9158 17.9135 19.8667 16.0935C20.8632 15.4571 21.4125 14.7475 21.4125 14.0596C21.4125 12.9871 20.4988 12.5646 19.828 12.2585C19.5216 12.1421 19.2428 11.9796 18.9944 11.7683C18.4727 11.1806 18.9088 10.0512 19.3919 9.43643L20.0102 8.64559L19.0082 8.4533C18.7791 8.4208 18.5472 8.40184 18.3153 8.40455C17.6887 8.39914 17.0842 8.51289 16.5017 8.74851C15.922 8.98414 15.4114 9.32268 14.9725 9.76414C14.6191 10.1189 14.3541 10.5279 14.1802 10.9937C14.0063 11.4623 13.9373 11.9416 13.9759 12.4373H13.584C12.1182 12.4373 11.4281 10.9179 11.4005 10.861L10.9919 9.91039L10.3405 10.7066C10.0341 11.0966 9.816 11.5246 9.68074 11.9958C9.54824 12.4671 9.50959 12.9464 9.5648 13.4339C9.67246 13.9729 9.89053 14.4658 10.2218 14.91C10.5503 15.3568 10.9588 15.7143 11.4474 15.9852C11.5385 16.0421 11.6268 16.1071 11.7069 16.1775C9.64761 16.8166 8.50204 18.271 7.29022 19.7768L7.11355 19.9935C6.53386 20.7166 5.82444 21.2854 4.98527 21.6998C4.14886 22.1141 3.26001 22.3389 2.32147 22.3687L1.39673 22.3416L1.67001 23.1731C1.67001 23.2733 2.49261 25.635 4.86381 25.635H4.98251C5.20058 25.6268 5.41866 25.6025 5.63397 25.5591C5.53459 26.8348 5.05428 29.2289 2.87079 30.1173L2.21933 30.3854L2.57819 31.0218C2.87079 31.466 3.25449 31.8127 3.73204 32.0591C4.20959 32.3083 4.71475 32.4275 5.25579 32.4193C5.92105 32.4275 6.55319 32.2812 7.14668 31.986C7.23777 32.7254 7.4034 33.4485 7.64631 34.1554C8.06866 35.2712 8.06866 36.3871 7.64631 37.5002L7.32058 38.1773L8.0659 38.3696C8.40819 38.4481 8.756 38.4887 9.10657 38.4887C9.34397 38.4914 9.57584 38.4643 9.80496 38.4129C10.2908 38.3046 10.7269 38.0906 11.1079 37.7764C11.337 38.4996 11.7152 39.1387 12.2479 39.6885C13.2665 40.715 14.7295 41.2268 16.6425 41.2268H17.8019L17.2332 40.2139ZM16.6729 40.5633C11.4088 40.5633 11.544 36.1406 11.544 36.1406C11.406 36.555 11.1741 36.9071 10.8456 37.2023C10.5199 37.4975 10.139 37.6952 9.70558 37.7954C9.52616 37.8387 9.34397 37.8604 9.15902 37.8577C8.8609 37.855 8.56829 37.8198 8.27845 37.7493C8.51584 37.1318 8.63454 36.4954 8.63454 35.8346C8.63454 35.1764 8.51584 34.5373 8.27845 33.9198C7.90579 32.8879 7.72912 31.8235 7.75121 30.7293C7.45032 31.0896 7.08319 31.3631 6.64704 31.55C6.2109 31.7368 5.75543 31.8154 5.28063 31.7883C4.85829 31.7964 4.46079 31.7016 4.08813 31.5093C3.71272 31.3171 3.40907 31.0489 3.1772 30.7023C6.68293 29.275 6.34339 24.6708 6.34339 24.6708C5.93209 24.92 5.48491 25.0391 5.00183 25.0364H4.85277C2.89563 25.0364 2.24418 23.0052 2.24418 23.0052H2.28282C3.31246 22.9727 4.28965 22.7262 5.20886 22.2712C6.12808 21.8135 6.90652 21.1879 7.54418 20.3971C8.88022 18.7314 9.98162 17.2689 12.143 16.6948L12.3583 16.6568L12.4053 16.4456C12.4632 16.1206 12.2369 15.8064 11.7538 15.4868C8.7698 13.5721 10.7959 11.1291 10.7959 11.1291C10.7959 11.1291 11.6434 13.0818 13.5591 13.0818H13.6944C13.9152 13.0764 14.1305 13.0548 14.3486 13.0168L14.6992 12.9491C14.5529 12.4508 14.5474 11.9525 14.6854 11.4514C14.8234 10.9504 15.0856 10.5225 15.4693 10.165C15.8475 9.7858 16.2864 9.4933 16.7888 9.28747C17.2912 9.08434 17.8129 8.98414 18.3567 8.98955C18.5472 8.98955 18.7404 9.00309 18.9281 9.03559C18.2767 9.87789 17.7936 11.2808 18.5582 12.1502C19.2097 12.8977 20.8245 12.9275 20.8245 14.065C20.8245 14.5362 20.3746 15.0806 19.5741 15.5708C17.1559 17.0631 14.7571 19.0429 13.7551 21.6916C12.5102 24.9985 13.918 27.1923 15.9248 28.4571C15.4776 28.8254 14.9614 29.0393 14.379 29.0962C14.1913 29.0962 14.0146 29.0962 13.8379 29.0962C12.7586 29.1423 11.7842 28.8471 10.9202 28.2079C11.0886 29.0962 11.475 29.8816 12.0795 30.5641C12.5792 31.1302 13.1782 31.5608 13.8793 31.8587C14.5805 32.1539 15.312 32.2866 16.0739 32.2541C16.0573 32.8987 15.7923 33.4241 15.2789 33.8304C14.7516 34.1771 14.1719 34.391 13.5398 34.4696C13.5398 34.4696 15.8061 34.9218 16.0601 38.2016C16.0545 39.0493 16.2533 39.8456 16.6536 40.5958L16.6729 40.5633Z" fill="#222220"/>
<path d="M4.91624 19.4508C5.16743 19.4508 5.41311 19.4129 5.65327 19.3344C6.29092 19.0608 6.8016 18.6356 7.17702 18.0588C7.67389 17.3844 8.29223 16.8427 9.02926 16.431L9.9402 15.9517L9.09551 15.3721C8.61796 15.0715 8.09624 14.9144 7.53035 14.9062C6.77676 14.9117 6.14462 15.1852 5.63394 15.7296C4.95764 16.4933 4.11295 16.9673 3.09712 17.146L2.18066 17.2354L2.55608 18.0588C2.78519 18.4921 3.11092 18.8333 3.53603 19.0879C3.95837 19.3425 4.41936 19.4698 4.91624 19.4698M6.08389 16.1954C6.47035 15.7729 6.95066 15.559 7.53035 15.5563C7.97478 15.5535 8.38608 15.6646 8.7615 15.8948C6.91754 16.859 6.53936 18.4027 5.5042 18.7494C5.3303 18.809 5.15087 18.8388 4.96868 18.8388C4.59603 18.8333 4.25098 18.7385 3.93077 18.549C3.61332 18.3621 3.36488 18.1048 3.19098 17.7852C4.36691 17.5929 5.34686 17.0594 6.13634 16.1819" fill="#222220"/>
<path d="M9.05407 26.6445C8.9409 24.5672 9.43225 22.6415 10.5281 20.8622C10.3625 21.3334 10.2659 21.8182 10.2411 22.3165C10.2162 22.8149 10.2659 23.3051 10.3846 23.7899C10.5061 24.2747 10.6938 24.7351 10.9477 25.1657C11.2017 25.599 11.5136 25.9863 11.8835 26.3303C11.8835 26.3303 8.26735 22.0863 13.3244 17.7395C15.3451 16.0874 17.5534 15.0663 18.6934 14.3378C14.5832 15.654 12.5681 14.2051 12.5681 14.2051C13.1422 14.6438 13.7854 14.9445 14.4976 15.1097C15.207 15.2722 15.9192 15.2857 16.6342 15.1422C16.3471 15.2776 16.049 15.4238 15.7288 15.589C12.2562 17.4334 9.13965 20.4722 8.60412 24.6782V24.6457C7.79808 28.7759 5.99829 29.8349 5.99829 29.8349C7.42543 29.1442 8.32532 27.3134 8.54616 26.6445C8.78907 30.2763 10.5944 32.7897 12.7116 35.2163C13.3631 35.9503 13.86 36.7763 14.1967 37.6917C14.0201 36.7601 13.6308 35.9259 13.0318 35.1838C11.0747 32.8601 9.18657 29.9676 9.04855 26.6309" fill="#222220"/>
<path d="M25.186 18.1348V18.9716C25.4262 18.7441 25.7133 18.6493 26.0445 18.69V19.8898C26.0418 20.1931 25.9617 20.4775 25.8099 20.7402H27.0107C26.8588 20.4748 26.7816 20.1931 26.776 19.8898V18.69C27.1073 18.6493 27.3944 18.7441 27.6373 18.9716V18.1348H25.186Z" fill="#222220"/>
<path d="M24.6587 13.1889C24.852 13.3514 25.0673 13.4733 25.3102 13.5518L25.4648 13.6222V12.8314L24.0266 12.2383C24.0984 12.6499 24.3165 12.9668 24.6781 13.1889" fill="#222220"/>
<path d="M28.0846 13.1889C28.4462 12.9668 28.6643 12.6499 28.7388 12.2383L27.2979 12.8314V13.6168L27.4469 13.5464C27.6898 13.4679 27.9051 13.346 28.0984 13.1835" fill="#222220"/>
<path d="M30.6875 9.99073C30.6875 8.79906 28.6393 7.72656 26.3785 7.72656C24.1177 7.72656 22.0695 8.79906 22.0695 9.99073L22.1164 10.2859L23.0218 15.3911L22.1164 15.9084L19.7507 17.2355C19.7507 17.2355 19.2235 17.5036 18.9751 17.6634C18.0807 18.3026 17.893 19.1557 18.4064 19.5214C18.4395 19.3101 18.5058 19.1124 18.6134 18.9255C18.7183 18.7414 18.8536 18.5789 19.022 18.4434C19.1876 18.3053 19.3726 18.2024 19.5796 18.1347C19.7839 18.0643 19.9964 18.0318 20.2117 18.0399C20.5871 18.0507 20.9405 18.1428 21.269 18.3189C21.6002 18.4949 21.8707 18.7332 22.0833 19.0366C22.2103 19.1909 22.329 19.3507 22.4339 19.5214C22.5719 19.738 22.7099 19.9303 22.8396 20.1145H16.8164C17.3326 20.9839 17.6197 21.9209 17.6832 22.923V35.9989C17.6832 39.192 20.1731 40.6843 22.8976 40.6843C24.9762 40.6843 25.2578 40.5895 26.4116 41.7134C27.5517 40.5895 27.8305 40.6843 29.9173 40.6843C32.6088 40.6843 35.0986 39.173 35.0986 35.9989V22.9041C35.1621 21.8993 35.4492 20.9649 35.9654 20.0955H29.8842C30.0222 19.9114 30.1575 19.7191 30.2872 19.5024C30.3977 19.3345 30.5136 19.172 30.6406 19.0176C30.8531 18.7143 31.1236 18.4759 31.4549 18.2999C31.7834 18.1239 32.1367 18.0318 32.5121 18.0209C32.7274 18.0155 32.94 18.0453 33.1443 18.1157C33.3485 18.1861 33.5335 18.2891 33.7019 18.4245C33.8675 18.5626 34.0028 18.7224 34.1104 18.9093C34.2153 19.0934 34.2843 19.2911 34.3174 19.5024C34.8364 19.1368 34.6487 18.2241 33.7488 17.6445C33.528 17.4793 32.9869 17.2355 32.9869 17.2355L30.6406 15.8949L29.7352 15.3776L30.6406 10.2724L30.6875 9.99073ZM22.9445 10.5784L26.1163 11.632V16.5151L23.7506 15.3207L22.9445 10.5784ZM23.596 20.9514C24.0266 21.3928 24.5318 21.7232 25.1142 21.9453C24.9872 22.3814 25.0176 22.8066 25.1998 23.2236C25.4179 23.6651 25.7657 23.9739 26.2349 24.1472C26.2791 24.5128 26.4171 24.8405 26.6518 25.1276C26.8892 25.4147 27.1818 25.6178 27.5379 25.737L26.5855 26.6172L22.9501 26.5603C22.8258 26.5034 22.732 26.4168 22.663 26.2976V26.2543L23.2565 26.3491H23.2951C23.4304 26.3518 23.5077 26.2868 23.5297 26.1595C23.5408 26.0945 23.527 26.0376 23.4883 25.9861C23.4497 25.9347 23.4 25.9022 23.3338 25.8914L22.605 25.7749L23.4138 23.0368L22.6436 21.4551L21.4125 22.7307L21.3324 25.5772L20.4933 25.4499C20.427 25.4391 20.3691 25.4526 20.3139 25.4878C20.2614 25.5257 20.2283 25.5772 20.22 25.6422C20.209 25.7045 20.2228 25.7614 20.2614 25.8155C20.3001 25.867 20.3497 25.8968 20.416 25.9103L20.761 25.9618C20.6368 26.0295 20.5512 26.0809 20.5457 26.0945L20.4933 26.1703V26.2543C20.4105 26.6172 20.4381 26.972 20.5733 27.3186C20.7086 27.668 20.9294 27.9497 21.2358 28.1691V28.272C21.2165 28.3966 21.2441 28.5103 21.3214 28.6132C21.3959 28.7161 21.4981 28.7784 21.6278 28.8001H21.7051C21.8128 28.8001 21.9094 28.7676 21.9949 28.6999C22.0778 28.6322 22.133 28.5482 22.1551 28.4426C22.3096 28.4507 22.4642 28.4507 22.6188 28.4426H22.7154L27.4854 29.2849L27.5655 29.2334C27.9436 28.9734 29.3956 27.9578 29.8704 27.5949C30.0112 27.7114 30.163 27.8116 30.3286 27.8874C30.2155 28.2232 30.1989 28.5618 30.279 28.9057C30.359 29.2497 30.5219 29.5476 30.7703 29.8022H18.5389V22.9041C18.5113 22.227 18.365 21.577 18.1 20.9514H23.596ZM29.4619 27.2374C28.9788 27.5868 27.7339 28.4751 27.2839 28.7811L22.9501 28.0147V27.9009C23.0246 27.6139 23.0632 27.3214 23.0688 27.0261L26.7097 27.083L26.7815 27.0126C26.834 26.9611 27.9933 25.8643 28.5813 25.2386C28.7359 25.4282 28.9181 25.588 29.1279 25.718C29.023 26.2624 29.1251 26.7661 29.4343 27.2293M22.2406 26.5034C22.3372 26.6876 22.4753 26.8311 22.6574 26.9368C22.6519 27.1968 22.6243 27.4541 22.5774 27.7086C22.5774 27.7655 22.5774 27.8251 22.5332 27.882V27.9714C22.2351 27.9714 21.9425 27.928 21.6609 27.8359C21.3987 27.7005 21.2027 27.5028 21.0702 27.2428C20.9349 26.9855 20.888 26.712 20.9294 26.4276C21.1668 26.2786 21.4263 26.1947 21.7051 26.1703C21.8238 26.1676 21.9315 26.2001 22.0281 26.2651C22.1247 26.3328 22.1937 26.4195 22.2323 26.5278M21.7962 25.653L21.868 22.9149L22.5194 22.2784L22.9114 23.0828L22.1357 25.7045L21.7962 25.653ZM29.4619 39.8366H28.8104L29.3239 38.2982C29.4011 38.0816 28.9981 37.7999 28.8297 37.5507C29.2272 37.7836 29.6385 37.9976 30.0609 38.1899C30.0609 38.2414 29.4619 39.8609 29.4619 39.8609M31.085 38.0734L30.7455 39.7986C30.5302 39.7986 30.301 39.842 30.094 39.8474L30.4529 38.1953C30.555 37.7051 29.2079 37.5561 28.5427 36.5811C28.0927 36.9495 27.5738 37.1039 26.9913 37.047C26.4972 37.0389 26.0086 36.9901 25.5255 36.8926C25.4427 36.8872 25.3599 36.8872 25.2771 36.8926C25.0535 36.8791 24.8851 36.9657 24.7747 37.1553L24.6781 37.3151L22.8396 36.8926L22.3842 37.6347C22.3014 37.7539 22.3124 37.8649 22.4145 37.9651L22.5388 38.1005C22.4173 38.3361 22.2599 38.5501 22.0695 38.737L21.7962 38.3795C21.6858 38.217 21.6306 38.0382 21.6306 37.8432C21.6306 37.6482 21.6858 37.4695 21.7962 37.307L22.5277 36.1018L24.0846 36.3184L23.8417 35.7768C23.5159 35.0618 24.0128 34.1545 24.0653 33.6318C24.0653 33.7916 23.8941 33.8241 23.7257 33.8241C23.5573 33.8241 23.3945 33.8241 23.2758 33.8241C23.2399 33.8132 23.2068 33.8132 23.1709 33.8241L22.7485 34.0732L22.4477 33.7861C22.3924 33.6805 22.4063 33.5857 22.4946 33.5045L23.262 32.6568L22.351 31.6141L23.654 32.2532L24.0459 31.7928C24.1481 31.8957 24.1039 32.1639 24.1039 32.1639C24.333 32.2207 24.5456 32.3128 24.7416 32.4401C24.9376 32.5674 25.1087 32.7218 25.2522 32.9059C25.393 33.0901 25.5007 33.2905 25.5752 33.5126C25.647 33.732 25.6801 33.9568 25.6746 34.187C25.6746 34.233 25.6746 34.2764 25.6746 34.3278V34.3711C25.8098 34.5824 26.0003 34.7178 26.2488 34.7747L28.0071 34.948C28.3577 34.8424 28.7138 34.7666 29.0754 34.7232C29.3984 34.7259 29.6938 34.8126 29.9615 34.9859C30.0885 34.902 30.2265 34.8559 30.3811 34.8505H30.4391C31.2258 34.8505 31.5598 35.552 31.9821 36.1289C32.3023 36.5676 32.7247 37.2257 32.7247 37.2257C32.5977 37.418 32.4128 37.5128 32.1781 37.5128C32.1036 37.5209 32.0263 37.5209 31.9518 37.5128C31.1043 37.3584 30.9801 35.6549 30.497 35.5222H30.4197C30.3176 35.5249 30.2458 35.5682 30.1961 35.6549C30.4197 36.2372 30.2872 36.4728 30.5302 36.9305C30.7096 37.2095 30.9249 37.4532 31.1816 37.6645C31.1816 37.6645 31.1485 37.9136 31.1098 38.1059M21.614 36.4214L21.6913 36.6191C21.6389 36.7924 21.0398 37.0416 21.0398 37.0416L20.9101 36.7599C20.8245 36.5595 20.8107 36.3564 20.8687 36.1478C20.9267 35.9393 21.0454 35.7714 21.222 35.6414L22.213 35.0564L23.262 35.273C23.2565 35.4816 23.3172 35.6711 23.4442 35.8391L22.3428 35.6359L21.6913 36.0828C21.5726 36.1803 21.5533 36.2968 21.6333 36.4268M31.2672 39.6822L31.5736 38.1384C31.5736 38.0491 31.604 37.9407 31.6178 37.8514C31.7061 37.8893 31.7972 37.9164 31.891 37.9326C31.9959 37.9434 32.1008 37.9434 32.2057 37.9326C32.5811 37.9326 32.882 37.7864 33.1111 37.4939L33.3458 37.2311L33.1553 36.9441C33.1553 36.9441 32.7192 36.267 32.399 35.8201L32.2168 35.552C32.0594 35.2107 31.8248 34.9318 31.5129 34.7151C31.1982 34.4984 30.8531 34.3739 30.4722 34.3414H30.3866C30.2541 34.3468 30.1271 34.3739 30.0029 34.4172C29.7186 34.2818 29.4177 34.2141 29.103 34.2141C28.7883 34.2195 28.4847 34.2764 28.1893 34.3847L28.0347 34.4307L26.3122 34.2628C26.2405 34.2303 26.1825 34.1816 26.1383 34.1166L26.5082 33.9703C26.4033 32.757 25.2053 32.0122 24.5539 31.7549C24.5235 31.6222 24.4572 31.5057 24.3579 31.4109L23.9852 31.067L23.6595 31.4489L23.4966 31.6411L21.0868 30.6716L22.6492 32.5864L22.0308 33.5045C21.9646 33.5695 21.9315 33.648 21.9315 33.7401C21.9315 33.8322 21.9646 33.9107 22.0308 33.9757L22.6823 34.4118L23.3338 34.168H23.4C23.4 34.2628 23.3282 34.6528 23.2951 34.7611L22.1495 34.5391L20.9432 35.1755C20.8024 35.273 20.6838 35.3922 20.5871 35.5303C20.4905 35.6684 20.4215 35.8201 20.3801 35.9826C20.3387 36.1451 20.3277 36.3103 20.347 36.4755C20.3663 36.6434 20.416 36.8005 20.4933 36.9522L20.6313 37.2393L20.819 37.6401L21.2414 37.4668C21.1641 37.6726 21.1392 37.8866 21.1723 38.1032C21.2055 38.3226 21.2883 38.5176 21.4263 38.6936L21.6803 39.0051L22.017 39.4276L22.3952 39.0322C22.6464 38.7911 22.8396 38.5122 22.9749 38.1953L23.0549 37.9407L22.8728 37.743V37.7051L23.0798 37.372L24.5787 37.7159L24.9182 37.7945L25.1004 37.4993L25.1998 37.3395C25.1998 37.307 25.1998 37.3016 25.2909 37.3016H25.4538C25.9644 37.4018 26.4806 37.4559 27.0051 37.4614C27.3557 37.4803 27.7007 37.4397 28.0403 37.3395L28.8297 38.2982L28.3135 39.7851V39.8745C27.9436 39.8664 27.5876 39.9341 27.248 40.0749C26.9085 40.2157 26.6104 40.4189 26.3592 40.6843C25.5559 39.907 24.9955 39.8284 22.8452 39.8284C20.278 39.8284 18.5389 38.3551 18.5389 35.9989V30.2545H34.1794V35.9989C34.196 36.4268 34.138 36.8466 34.0055 37.2528C33.8703 37.6618 33.6688 38.0328 33.3982 38.3686C33.1277 38.7072 32.8075 38.9861 32.4348 39.2109C32.0622 39.4357 31.6619 39.5901 31.2341 39.6768M34.6156 20.9514C34.3506 21.5743 34.2043 22.227 34.1794 22.9041V27.1995C33.8951 27.1399 33.6577 27.0018 33.4645 26.7878C33.274 26.5711 33.1691 26.322 33.1498 26.0376V25.8399H32.9538C32.606 25.8101 32.3106 25.672 32.0677 25.4255C31.7696 25.0897 31.6178 24.6997 31.6122 24.2555C31.4715 24.4803 31.408 24.7241 31.4218 24.9841C31.4356 25.2468 31.5211 25.4824 31.684 25.6936C31.9462 26.0214 32.2885 26.2136 32.7136 26.2678C32.7413 26.4466 32.7965 26.6172 32.882 26.777C32.9648 26.9395 33.0753 27.083 33.205 27.2103C33.3375 27.3376 33.4866 27.4405 33.6549 27.5218C33.8206 27.6003 33.9945 27.6545 34.1794 27.6761V29.7832H31.488C31.3141 29.6993 31.1651 29.5855 31.0381 29.442C30.9083 29.3011 30.8145 29.1414 30.7482 28.9626C30.682 28.7839 30.6544 28.5997 30.6627 28.4128C30.6682 28.2232 30.7123 28.0418 30.7896 27.8684L30.8945 27.6382L30.6544 27.5489C30.4667 27.4839 30.2955 27.3891 30.1465 27.2591C29.9974 27.1291 29.8787 26.9774 29.7876 26.8041C29.6993 26.6307 29.6468 26.4466 29.6303 26.2516C29.6137 26.0566 29.6358 25.867 29.6965 25.6801L29.749 25.4878L29.564 25.4066C29.2245 25.2089 28.965 24.938 28.7939 24.5886C28.6199 24.242 28.5592 23.8736 28.6144 23.4918C28.4267 23.6705 28.3108 23.8872 28.2694 24.1391C28.228 24.3936 28.2666 24.6347 28.3853 24.8622C28.2556 25.003 28.0844 25.1818 27.8967 25.3659C27.5627 25.2955 27.2839 25.1303 27.0631 24.8757C26.8395 24.6184 26.7208 24.3232 26.7042 23.9874V23.8086L26.5552 23.7518C26.1356 23.6245 25.8319 23.3672 25.6415 22.9799C25.5117 22.6766 25.4896 22.3651 25.5752 22.0482C25.7049 22.0753 25.8347 22.0943 25.9672 22.1051C26.0997 22.1132 26.2322 22.1132 26.3647 22.1051C26.8919 22.1051 27.3971 21.9995 27.8774 21.7882C28.3605 21.577 28.7773 21.2764 29.1279 20.8918L34.6156 20.9514ZM30.4115 16.5964L31.4825 17.2355L31.7475 17.3899C31.1844 17.5389 30.6985 17.8232 30.2955 18.2376L30.2679 18.2566C30.1768 18.3541 30.094 18.4489 30.0084 18.5518L29.956 18.6141C29.8732 18.717 29.7959 18.8226 29.7214 18.9336L29.6827 18.9905C29.5916 19.1178 29.506 19.2586 29.4205 19.3995C29.1251 19.9764 28.7055 20.4476 28.1617 20.8132C27.6152 21.1789 27.0161 21.3928 26.3592 21.4551C25.7049 21.3901 25.1059 21.1761 24.5649 20.8105C24.0211 20.4449 23.6043 19.9764 23.3089 19.3995C23.2233 19.2586 23.1378 19.1259 23.0549 18.9986L23.0025 18.9282L22.7734 18.6195L22.7154 18.5518C22.6298 18.4489 22.547 18.3541 22.4615 18.2647L22.4477 18.2132C22.0446 17.7989 21.5588 17.5199 20.9957 17.3709L21.269 17.2166L22.3372 16.5774L23.4331 15.9409L26.3592 17.5551L29.2907 15.9924L30.4115 16.5964ZM28.965 15.3207L26.6269 16.5286V11.632L29.7986 10.5784L28.965 15.3207ZM26.3592 11.1093L22.8838 9.76323C23.1792 9.07802 24.5456 8.4849 26.3592 8.4849C28.17 8.4849 29.5392 9.0726 29.8401 9.76323L26.3592 11.1093Z" fill="#222220"/>
</g>
<defs>
<clipPath id="clip0_333_1431">
<rect width="53" height="52" fill="white"/>
</clipPath>
</defs>
</svg>
