<svg width="40" height="32" viewBox="0 0 40 32" fill="none" xmlns="http://www.w3.org/2000/svg">
<g filter="url(#filter0_d_39_410)">
<g clip-path="url(#clip0_39_410)">
<rect x="4" y="4" width="32" height="24" rx="3" fill="white"/>
<path fill-rule="evenodd" clip-rule="evenodd" d="M4 4H36V28H4V4Z" fill="#F7FCFF"/>
<path fill-rule="evenodd" clip-rule="evenodd" d="M4 18.6667V20.6667H36V18.6667H4Z" fill="#E31D1C"/>
<path fill-rule="evenodd" clip-rule="evenodd" d="M4 22.3333V24.3333H36V22.3333H4Z" fill="#E31D1C"/>
<path fill-rule="evenodd" clip-rule="evenodd" d="M4 11.3333V13.3333H36V11.3333H4Z" fill="#E31D1C"/>
<path fill-rule="evenodd" clip-rule="evenodd" d="M4 26V28H36V26H4Z" fill="#E31D1C"/>
<path fill-rule="evenodd" clip-rule="evenodd" d="M4 15V17H36V15H4Z" fill="#E31D1C"/>
<path fill-rule="evenodd" clip-rule="evenodd" d="M4 4V6H36V4H4Z" fill="#E31D1C"/>
<path fill-rule="evenodd" clip-rule="evenodd" d="M4 7.66667V9.66667H36V7.66667H4Z" fill="#E31D1C"/>
<rect x="4" y="4" width="20" height="13" fill="#2E42A5"/>
<path fill-rule="evenodd" clip-rule="evenodd" d="M5.72197 6.93867L4.99609 7.44756L5.24115 6.54195L4.59644 5.96803H5.43852L5.72095 5.22897L6.05212 5.96803H6.76998L6.20594 6.54195L6.4243 7.44756L5.72197 6.93867ZM9.72197 6.93867L8.99609 7.44756L9.24115 6.54195L8.59644 5.96803H9.43852L9.72095 5.22897L10.0521 5.96803H10.77L10.2059 6.54195L10.4243 7.44756L9.72197 6.93867ZM12.9961 7.44756L13.722 6.93867L14.4243 7.44756L14.2059 6.54195L14.77 5.96803H14.0521L13.721 5.22897L13.4385 5.96803H12.5964L13.2412 6.54195L12.9961 7.44756ZM17.722 6.93867L16.9961 7.44756L17.2412 6.54195L16.5964 5.96803H17.4385L17.721 5.22897L18.0521 5.96803H18.77L18.2059 6.54195L18.4243 7.44756L17.722 6.93867ZM4.99609 11.4476L5.72197 10.9387L6.4243 11.4476L6.20594 10.5419L6.76998 9.96803H6.05212L5.72095 9.22897L5.43852 9.96803H4.59644L5.24115 10.5419L4.99609 11.4476ZM9.72197 10.9387L8.99609 11.4476L9.24115 10.5419L8.59644 9.96803H9.43852L9.72095 9.22897L10.0521 9.96803H10.77L10.2059 10.5419L10.4243 11.4476L9.72197 10.9387ZM12.9961 11.4476L13.722 10.9387L14.4243 11.4476L14.2059 10.5419L14.77 9.96803H14.0521L13.721 9.22897L13.4385 9.96803H12.5964L13.2412 10.5419L12.9961 11.4476ZM17.722 10.9387L16.9961 11.4476L17.2412 10.5419L16.5964 9.96803H17.4385L17.721 9.22897L18.0521 9.96803H18.77L18.2059 10.5419L18.4243 11.4476L17.722 10.9387ZM4.99609 15.4476L5.72197 14.9387L6.4243 15.4476L6.20594 14.5419L6.76998 13.968H6.05212L5.72095 13.229L5.43852 13.968H4.59644L5.24115 14.5419L4.99609 15.4476ZM9.72197 14.9387L8.99609 15.4476L9.24115 14.5419L8.59644 13.968H9.43852L9.72095 13.229L10.0521 13.968H10.77L10.2059 14.5419L10.4243 15.4476L9.72197 14.9387ZM12.9961 15.4476L13.722 14.9387L14.4243 15.4476L14.2059 14.5419L14.77 13.968H14.0521L13.721 13.229L13.4385 13.968H12.5964L13.2412 14.5419L12.9961 15.4476ZM17.722 14.9387L16.9961 15.4476L17.2412 14.5419L16.5964 13.968H17.4385L17.721 13.229L18.0521 13.968H18.77L18.2059 14.5419L18.4243 15.4476L17.722 14.9387ZM20.9961 7.44756L21.722 6.93867L22.4243 7.44756L22.2059 6.54195L22.77 5.96803H22.0521L21.721 5.22897L21.4385 5.96803H20.5964L21.2412 6.54195L20.9961 7.44756ZM21.722 10.9387L20.9961 11.4476L21.2412 10.5419L20.5964 9.96803H21.4385L21.721 9.22897L22.0521 9.96803H22.77L22.2059 10.5419L22.4243 11.4476L21.722 10.9387ZM20.9961 15.4476L21.722 14.9387L22.4243 15.4476L22.2059 14.5419L22.77 13.968H22.0521L21.721 13.229L21.4385 13.968H20.5964L21.2412 14.5419L20.9961 15.4476ZM7.72197 8.93867L6.99609 9.44756L7.24115 8.54194L6.59644 7.96803H7.43852L7.72095 7.22897L8.05212 7.96803H8.76998L8.20594 8.54194L8.4243 9.44756L7.72197 8.93867ZM10.9961 9.44756L11.722 8.93867L12.4243 9.44756L12.2059 8.54194L12.77 7.96803H12.0521L11.721 7.22897L11.4385 7.96803H10.5964L11.2412 8.54194L10.9961 9.44756ZM15.722 8.93867L14.9961 9.44756L15.2412 8.54194L14.5964 7.96803H15.4385L15.721 7.22897L16.0521 7.96803H16.77L16.2059 8.54194L16.4243 9.44756L15.722 8.93867ZM6.99609 13.4476L7.72197 12.9387L8.4243 13.4476L8.20594 12.5419L8.76998 11.968H8.05212L7.72095 11.229L7.43852 11.968H6.59644L7.24115 12.5419L6.99609 13.4476ZM11.722 12.9387L10.9961 13.4476L11.2412 12.5419L10.5964 11.968H11.4385L11.721 11.229L12.0521 11.968H12.77L12.2059 12.5419L12.4243 13.4476L11.722 12.9387ZM14.9961 13.4476L15.722 12.9387L16.4243 13.4476L16.2059 12.5419L16.77 11.968H16.0521L15.721 11.229L15.4385 11.968H14.5964L15.2412 12.5419L14.9961 13.4476ZM19.722 8.93867L18.9961 9.44756L19.2412 8.54194L18.5964 7.96803H19.4385L19.721 7.22897L20.0521 7.96803H20.77L20.2059 8.54194L20.4243 9.44756L19.722 8.93867ZM18.9961 13.4476L19.722 12.9387L20.4243 13.4476L20.2059 12.5419L20.77 11.968H20.0521L19.721 11.229L19.4385 11.968H18.5964L19.2412 12.5419L18.9961 13.4476Z" fill="#F7FCFF"/>
</g>
</g>
<defs>
<filter id="filter0_d_39_410" x="0" y="0" width="40" height="32" filterUnits="userSpaceOnUse" color-interpolation-filters="sRGB">
<feFlood flood-opacity="0" result="BackgroundImageFix"/>
<feColorMatrix in="SourceAlpha" type="matrix" values="0 0 0 0 0 0 0 0 0 0 0 0 0 0 0 0 0 0 127 0" result="hardAlpha"/>
<feMorphology radius="1" operator="dilate" in="SourceAlpha" result="effect1_dropShadow_39_410"/>
<feOffset/>
<feGaussianBlur stdDeviation="1.5"/>
<feComposite in2="hardAlpha" operator="out"/>
<feColorMatrix type="matrix" values="0 0 0 0 0 0 0 0 0 0 0 0 0 0 0 0 0 0 0.15 0"/>
<feBlend mode="normal" in2="BackgroundImageFix" result="effect1_dropShadow_39_410"/>
<feBlend mode="normal" in="SourceGraphic" in2="effect1_dropShadow_39_410" result="shape"/>
</filter>
<clipPath id="clip0_39_410">
<rect x="4" y="4" width="32" height="24" rx="3" fill="white"/>
</clipPath>
</defs>
</svg>
